<svg width="40" height="40" viewBox="0 0 40 40" fill="none" xmlns="http://www.w3.org/2000/svg">
<circle cx="20" cy="20" r="19.5" stroke="#1877F2"/>
<path d="M36 20.0978C36 11.2073 28.8365 4 20 4C11.1635 4 4 11.2073 4 20.0978C4 28.1326 9.851 34.7924 17.5 36V24.751H13.4375V20.0978H17.5V16.5512C17.5 12.5167 19.8888 10.2882 23.5435 10.2882C25.294 10.2882 27.125 10.6026 27.125 10.6026V14.5642H25.1075C23.1199 14.5642 22.5 15.8051 22.5 17.0782V20.0978H26.9375L26.2281 24.751H22.5V36C30.149 34.7924 36 28.1327 36 20.0978Z" fill="#1877F2"/>
</svg>
