<svg width="13" height="20" viewBox="0 0 13 20" fill="none" xmlns="http://www.w3.org/2000/svg">
<path d="M1.5 11.5L5.5 6M5.5 6L6.5 19L7.5 6M5.5 6H7.5M5.5 6L4 14.5H9L7.5 6M11.5 11.5L7.5 6M6.5 3C6.76522 3 7.01957 2.89464 7.20711 2.70711C7.39464 2.51957 7.5 2.26522 7.5 2C7.5 1.73478 7.39464 1.48043 7.20711 1.29289C7.01957 1.10536 6.76522 1 6.5 1C6.23478 1 5.98043 1.10536 5.79289 1.29289C5.60536 1.48043 5.5 1.73478 5.5 2C5.5 2.26522 5.60536 2.51957 5.79289 2.70711C5.98043 2.89464 6.23478 3 6.5 3Z" stroke="#17586E" stroke-width="2" stroke-linecap="round" stroke-linejoin="round"/>
</svg>
