<svg width="16" height="22" viewBox="0 0 16 22" fill="none" xmlns="http://www.w3.org/2000/svg">
<path d="M6 15.5V20.5M6 15.5H10M6 15.5L5 8.5M10 15.5V20.5M10 15.5L11 8.5M5 8.5H11M5 8.5C3.667 8.5 2.333 9.167 1 10.5M11 8.5C12.333 8.5 13.667 9.167 15 10.5M6 3.5C6 4.03043 6.21071 4.53914 6.58579 4.91421C6.96086 5.28929 7.46957 5.5 8 5.5C8.53043 5.5 9.03914 5.28929 9.41421 4.91421C9.78929 4.53914 10 4.03043 10 3.5C10 2.96957 9.78929 2.46086 9.41421 2.08579C9.03914 1.71071 8.53043 1.5 8 1.5C7.46957 1.5 6.96086 1.71071 6.58579 2.08579C6.21071 2.46086 6 2.96957 6 3.5Z" stroke="#17586E" stroke-width="2" stroke-linecap="round" stroke-linejoin="round"/>
</svg>
