<svg width="26" height="28" viewBox="0 0 26 28" fill="none" xmlns="http://www.w3.org/2000/svg">
<path d="M17.0101 22V23C17.0101 24.0609 16.5886 25.0783 15.8385 25.8284C15.0884 26.5786 14.0709 27 13.0101 27C11.9492 27 10.9318 26.5786 10.1816 25.8284C9.4315 25.0783 9.01007 24.0609 9.01007 23V22M23.7401 19.9644C22.1351 18 21.0019 17 21.0019 11.5844C21.0019 6.625 18.4694 4.85812 16.3851 4C16.1082 3.88625 15.8476 3.625 15.7632 3.34062C15.3976 2.09625 14.3726 1 13.0101 1C11.6476 1 10.6219 2.09688 10.2601 3.34188C10.1757 3.62938 9.91507 3.88625 9.6382 4C7.55132 4.85938 5.02132 6.62 5.02132 11.5844C5.0182 17 3.88507 18 2.28007 19.9644C1.61507 20.7781 2.19757 22 3.3607 22H22.6657C23.8226 22 24.4013 20.7744 23.7401 19.9644Z" stroke="#C1AF92" stroke-width="2" stroke-linecap="round" stroke-linejoin="round"/>
</svg>
