<svg width="26" height="27" viewBox="0 0 26 27" fill="none" xmlns="http://www.w3.org/2000/svg">
<path d="M25 12.9972C25.004 15.3796 24.2954 17.7087 22.9653 19.6852C21.8685 21.3212 20.3854 22.6616 18.6473 23.5881C16.9092 24.5146 14.9696 24.9986 13 24.9972C11.0304 24.9986 9.09078 24.5146 7.35268 23.5881C5.61457 22.6616 4.13153 21.3212 3.03467 19.6852C1.99031 18.1284 1.3252 16.3486 1.09267 14.4885C0.860146 12.6283 1.06666 10.7396 1.69566 8.9736C2.32467 7.20764 3.35866 5.61361 4.71476 4.31929C6.07085 3.02497 7.71133 2.06637 9.50468 1.52034C11.298 0.974298 13.1944 0.856011 15.0417 1.17496C16.889 1.49391 18.6358 2.24121 20.1423 3.35698C21.6487 4.47274 22.8728 5.92592 23.7164 7.60002C24.5599 9.27412 24.9996 11.1226 25 12.9972Z" stroke="#EEE8D8" stroke-width="2"/>
<path d="M14.3335 8.99731C14.3335 9.35094 14.193 9.69007 13.943 9.94012C13.6929 10.1902 13.3538 10.3306 13.0002 10.3306V12.9973C14.061 12.9973 15.0784 12.5759 15.8286 11.8257C16.5787 11.0756 17.0002 10.0582 17.0002 8.99731H14.3335ZM13.0002 10.3306C12.6465 10.3306 12.3074 10.1902 12.0574 9.94012C11.8073 9.69007 11.6668 9.35094 11.6668 8.99731H9.00016C9.00016 10.0582 9.42159 11.0756 10.1717 11.8257C10.9219 12.5759 11.9393 12.9973 13.0002 12.9973V10.3306ZM11.6668 8.99731C11.6668 8.64369 11.8073 8.30455 12.0574 8.05451C12.3074 7.80446 12.6465 7.66398 13.0002 7.66398V4.99731C11.9393 4.99731 10.9219 5.41874 10.1717 6.16889C9.42159 6.91903 9.00016 7.93645 9.00016 8.99731H11.6668ZM13.0002 7.66398C13.3538 7.66398 13.6929 7.80446 13.943 8.05451C14.193 8.30455 14.3335 8.64369 14.3335 8.99731H17.0002C17.0002 7.93645 16.5787 6.91903 15.8286 6.16889C15.0784 5.41874 14.061 4.99731 13.0002 4.99731V7.66398ZM3.88817 20.8053L2.6095 20.4253L2.40283 21.1226L2.87617 21.6733L3.88817 20.8053ZM22.1122 20.8053L23.1255 21.6733L23.5975 21.1226L23.3908 20.4253L22.1122 20.8053ZM9.00016 18.3306H17.0002V15.664H9.00016V18.3306ZM9.00016 15.664C7.56434 15.664 6.16685 16.1273 5.01546 16.9852C3.86407 17.843 3.02027 19.0495 2.6095 20.4253L5.1655 21.1853C5.41251 20.3603 5.91903 19.6369 6.60985 19.1226C7.30067 18.6084 8.13894 18.3306 9.00016 18.3306V15.664ZM13.0002 23.664C11.4608 23.6657 9.93942 23.3334 8.54098 22.69C7.14254 22.0466 5.90036 21.1074 4.90017 19.9373L2.87617 21.6733C4.12668 23.1353 5.67934 24.3088 7.42714 25.1128C9.17494 25.9169 11.0763 26.3324 13.0002 26.3306V23.664ZM17.0002 18.3306C18.8095 18.3306 20.3415 19.5333 20.8348 21.1866L23.3908 20.4253C22.9801 19.0497 22.1352 17.8434 20.9841 16.9856C19.8329 16.1277 18.4358 15.6642 17.0002 15.664V18.3306ZM21.1002 19.9373C20.1 21.1074 18.8578 22.0466 17.4594 22.69C16.0609 23.3334 14.5395 23.6657 13.0002 23.664V26.3306C14.924 26.3324 16.8254 25.9169 18.5732 25.1128C20.321 24.3088 21.875 23.1353 23.1255 21.6733L21.1002 19.9373Z" fill="#EEE8D8"/>
</svg>
