<svg width="375" height="302" viewBox="0 0 375 302" fill="none" xmlns="http://www.w3.org/2000/svg">
<path opacity="0.2" d="M112.302 59.5588L112.104 59.5028L49.3018 206.968L270.694 226.136L270.944 226.157L279.056 106.449L279.072 106.214L112.302 59.5588ZM175.901 154.392L50.1731 206.22L112.29 60.3653L175.901 154.392ZM176.27 154.836L269.79 225.495L50.8448 206.54L176.27 154.836ZM176.386 154.183L112.869 60.2931L278.016 106.494L176.386 154.183ZM270.497 225.355L176.827 154.582L278.527 106.861L270.497 225.355Z" fill="#367CFF"/>
<path d="M307.351 108.942C307.151 114.619 305.729 120.157 303.205 125.083C300.681 130.01 297.132 134.177 292.86 137.23C288.588 140.284 283.72 142.131 278.673 142.616C273.626 143.1 268.549 142.206 263.876 140.012C261.685 138.982 259.607 137.672 257.682 136.109C254.004 133.131 250.943 129.297 248.708 124.869V124.865C246.325 120.13 244.953 114.839 244.701 109.409C244.448 103.978 245.322 98.5562 247.253 93.5685C249.185 88.5807 252.121 84.1632 255.831 80.6629C259.542 77.1627 263.925 74.6751 268.638 73.3955C273.35 72.116 278.263 72.0793 282.99 73.2885C287.717 74.4977 292.129 76.9197 295.881 80.3644C299.632 83.809 302.621 88.1823 304.611 93.1408C306.601 98.0993 307.539 103.508 307.351 108.942L307.351 108.942Z" fill="white"/>
<path opacity="0.09" d="M307.351 108.942C307.151 114.619 305.729 120.157 303.205 125.083C300.681 130.01 297.132 134.177 292.86 137.23C288.588 140.284 283.72 142.131 278.673 142.616C273.626 143.1 268.549 142.206 263.876 140.012C261.685 138.982 259.607 137.672 257.682 136.109C254.004 133.131 250.943 129.297 248.708 124.869V124.865C246.325 120.13 244.953 114.839 244.701 109.409C244.448 103.978 245.322 98.5562 247.253 93.5685C249.185 88.5807 252.121 84.1632 255.831 80.6629C259.542 77.1627 263.925 74.6751 268.638 73.3955C273.35 72.116 278.263 72.0793 282.99 73.2885C287.717 74.4977 292.129 76.9197 295.881 80.3644C299.632 83.809 302.621 88.1823 304.611 93.1408C306.601 98.0993 307.539 103.508 307.351 108.942L307.351 108.942Z" fill="#367CFF"/>
<path d="M283.431 80.7942C283.431 80.7942 290.928 80.8972 288.343 92.4846L287.639 92.5232L286.21 92.6013" fill="#0C0C0C"/>
<path d="M275.06 104.642C275.095 104.638 275.233 111.866 282.723 111.562C287.909 111.353 289.965 105.28 290.084 105.285C289.531 105.128 288.599 104.894 288.357 104.735C287.56 104.209 286.57 103.655 286.369 101.87C286.253 100.841 286.69 95.6236 286.647 94.5862L278.641 96.2275C278.677 98.4166 279.278 103.513 276.526 104.291C276.068 104.42 275.576 104.535 275.06 104.642Z" fill="#E98862"/>
<path opacity="0.52" d="M278.32 102.297C278.46 101.853 278.556 101.393 278.607 100.926C278.731 99.8592 278.751 98.7809 278.666 97.7097C280.287 97.5357 281.833 96.8551 283.127 95.7451C283.253 96.3608 283.972 99.0648 283.726 99.6351C283.264 100.714 281.209 102.423 278.32 102.297Z" fill="#0C0C0C"/>
<path d="M280.137 101.02C283.275 100.768 287.061 98.625 287.193 93.8555L287.311 89.5527C287.443 84.7839 285.315 80.8405 281.313 80.7017C277.31 80.5617 274.21 84.3247 274.079 89.0934L274.027 90.9984C274.019 91.6531 274.05 92.3076 274.122 92.9574C274.3 94.6757 274.576 97.2884 275.584 99.0725C276.537 100.757 278.132 101.18 280.137 101.02Z" fill="#E98862"/>
<path d="M286.904 95.3007C288.121 95.3427 289.147 93.9171 289.185 92.5528C289.223 91.1885 288.257 90.4015 287.04 90.3593L286.388 91.2517L285.858 95.2643L286.904 95.3007Z" fill="#E98862"/>
<path d="M274.285 94.3976C274.505 94.6899 274.786 94.9158 275.104 95.055C275.421 95.1941 275.765 95.2419 276.103 95.1941C276.827 95.0919 277.307 95.4249 277.911 95.3581C278.418 95.3021 278.506 95.0393 279.371 94.9819C282.711 94.76 285.218 94.5238 285.381 89.8225L287.506 87.7048C287.506 87.7048 288.456 100.733 282.174 102.464C278.313 103.528 274.692 103.139 274.226 99.0726C273.848 95.7683 274.285 94.3976 274.285 94.3976Z" fill="#0C0C0C"/>
<path d="M275.867 91.6767C276.14 91.6767 276.361 91.429 276.361 91.1235C276.361 90.8179 276.14 90.5702 275.867 90.5702C275.595 90.5702 275.374 90.8179 275.374 91.1235C275.374 91.429 275.595 91.6767 275.867 91.6767Z" fill="#0C0C0C"/>
<path d="M280.275 91.5738C280.547 91.5738 280.768 91.3261 280.768 91.0206C280.768 90.715 280.547 90.4673 280.275 90.4673C280.002 90.4673 279.781 90.715 279.781 91.0206C279.781 91.3261 280.002 91.5738 280.275 91.5738Z" fill="#0C0C0C"/>
<path d="M285.729 93.0825C285.729 93.0825 285.428 86.3251 283.61 85.8709C282.399 85.5684 279.42 87.4417 276.7 86.802C275.51 86.5221 274.371 86.8299 274.245 87.4607C274.195 87.7104 273.253 85.4964 275.168 82.8025C276.692 80.6577 281.65 80.0544 283.855 80.8128C289.961 82.9134 287.287 90.6617 287.287 90.6617L286.975 92.9829L285.729 93.0825Z" fill="#0C0C0C"/>
<path d="M288.504 87.6336C290.301 87.6336 291.758 85.9995 291.758 83.9837C291.758 81.968 290.301 80.3339 288.504 80.3339C286.707 80.3339 285.25 81.968 285.25 83.9837C285.25 85.9995 286.707 87.6336 288.504 87.6336Z" fill="#0C0C0C"/>
<g opacity="0.52">
<path d="M277.97 95.1408H277.962C277.57 95.1282 276.914 95.0582 276.922 94.7294C276.929 94.4568 277.669 91.5357 277.753 91.2032C277.76 91.1746 277.777 91.1504 277.8 91.136C277.823 91.1215 277.851 91.118 277.876 91.1261C277.902 91.1342 277.923 91.1534 277.936 91.1793C277.949 91.2053 277.952 91.2359 277.945 91.2645C277.617 92.5583 277.127 94.5503 277.122 94.7347C277.158 94.8136 277.562 94.9026 277.968 94.9158C277.994 94.9154 278.02 94.9269 278.039 94.9477C278.058 94.9684 278.069 94.9968 278.069 95.0265C278.069 95.0561 278.059 95.0847 278.04 95.106C278.022 95.1272 277.997 95.1393 277.97 95.1397V95.1408Z" fill="#0C0C0C"/>
</g>
<path d="M276.776 89.2437C276.371 89.1092 275.942 89.0995 275.532 89.2157C275.33 89.2712 275.137 89.3605 274.96 89.4804C274.783 89.598 274.621 89.7401 274.477 89.9033C274.452 89.9285 274.437 89.9637 274.435 90.0014C274.433 90.0391 274.444 90.076 274.467 90.1041C274.489 90.1322 274.521 90.1491 274.554 90.1512C274.588 90.1533 274.621 90.1403 274.646 90.1151L274.654 90.1079C274.788 89.9716 274.938 89.855 275.098 89.7606C275.256 89.6666 275.426 89.6 275.602 89.563C275.949 89.4869 276.308 89.515 276.642 89.6444L276.655 89.6497C276.679 89.66 276.704 89.6649 276.729 89.6641C276.755 89.6633 276.779 89.6569 276.802 89.6452C276.826 89.6335 276.846 89.6168 276.864 89.596C276.881 89.5752 276.894 89.5508 276.903 89.5241C276.912 89.4975 276.916 89.4691 276.914 89.4408C276.913 89.4124 276.907 89.3846 276.896 89.3589C276.885 89.3333 276.87 89.3103 276.851 89.2913C276.833 89.2723 276.811 89.2578 276.787 89.2484L276.776 89.2437Z" fill="#0C0C0C"/>
<path d="M279.683 89.6451C280.004 89.4795 280.359 89.4124 280.711 89.4506C280.89 89.4681 281.064 89.5159 281.23 89.5925C281.398 89.6688 281.557 89.7686 281.702 89.8894L281.71 89.8955C281.737 89.9154 281.77 89.9228 281.802 89.9163C281.834 89.9098 281.863 89.8898 281.882 89.8605C281.901 89.8312 281.909 89.7948 281.905 89.7587C281.901 89.7227 281.885 89.6897 281.86 89.6666C281.702 89.5199 281.528 89.3962 281.343 89.2983C281.155 89.1984 280.956 89.1306 280.75 89.0971C280.332 89.0265 279.905 89.0833 279.514 89.2614C279.468 89.2837 279.432 89.3253 279.413 89.3774C279.394 89.4295 279.394 89.4878 279.414 89.5397C279.433 89.5916 279.469 89.6329 279.516 89.6547C279.562 89.6765 279.614 89.6771 279.66 89.6563L279.669 89.6518L279.683 89.6451Z" fill="#0C0C0C"/>
<path d="M299.669 122.689C299.39 125.052 299.117 128.297 298.874 131.653C297.924 132.787 296.908 133.85 295.832 134.834C295.149 135.457 294.443 136.049 293.716 136.61C289.782 139.621 285.29 141.59 280.579 142.368C275.867 143.146 271.059 142.713 266.519 141.1C266.457 137.983 266.373 133.779 266.289 129.927C266.193 125.484 266.096 121.505 266.044 120.198C265.828 115.01 264.602 111.548 265.529 108.718C265.806 107.88 266.252 107.125 266.832 106.512C268.991 104.141 274.356 104.195 276.507 104.289C276.545 104.291 275.88 109.86 282.959 109.793C288.163 109.745 288.553 104.813 288.553 104.813C288.553 104.813 291.117 105.112 292.82 105.444C295.605 105.991 297.416 107.137 298.825 108.848C300.14 110.443 300.915 112.137 299.669 122.689Z" fill="#367CFF"/>
<path d="M258.049 104.838L258.263 98.8953C258.268 98.7646 258.249 98.6342 258.206 98.5124C258.164 98.3906 258.099 98.2801 258.016 98.188C257.934 98.0958 257.835 98.024 257.726 97.9771C257.617 97.9303 257.5 97.9094 257.384 97.9158C257.169 97.9352 256.969 98.0433 256.821 98.2191C256.674 98.3949 256.59 98.6259 256.585 98.8673L256.539 100.142L255.043 96.0606C254.884 95.6036 254.428 95.157 253.982 95.3912C253.806 95.4687 253.658 95.6111 253.563 95.7951C253.467 95.9791 253.431 96.1938 253.458 96.4043C253.454 96.4049 253.45 96.4059 253.446 96.4074C253.443 96.4092 253.44 96.4112 253.438 96.4135L253.192 95.7088C253.147 95.5783 253.076 95.4608 252.985 95.3649C252.894 95.269 252.785 95.1972 252.665 95.1546C252.546 95.112 252.42 95.0997 252.297 95.1186C252.173 95.1376 252.054 95.1873 251.95 95.2642C251.787 95.3888 251.668 95.5723 251.612 95.7839C251.555 95.9954 251.566 96.2223 251.641 96.4264L251.745 96.7261C251.739 96.7336 251.734 96.7422 251.73 96.7516C251.617 96.5676 251.45 96.4343 251.258 96.3758C251.066 96.3172 250.862 96.337 250.682 96.4317C250.487 96.5421 250.337 96.7307 250.261 96.9598C250.185 97.189 250.189 97.4418 250.272 97.6678L250.532 98.4128C250.521 98.4052 250.51 98.4004 250.497 98.3988C250.485 98.3973 250.473 98.399 250.461 98.4039C250.448 98.4106 250.436 98.4214 250.428 98.4352C250.288 98.3023 250.112 98.225 249.928 98.2151C249.744 98.2053 249.562 98.2634 249.411 98.3806C249.254 98.5075 249.14 98.6899 249.087 98.8985C249.034 99.1071 249.045 99.3296 249.119 99.53L251.309 105.815C251.616 106.695 252.149 107.451 252.842 107.988C253.534 108.525 254.353 108.818 255.195 108.829C255.921 108.839 256.621 108.531 257.148 107.97C257.674 107.41 257.985 106.642 258.015 105.828L258.049 104.838Z" fill="#E98862"/>
<g opacity="0.2">
<path d="M254.921 100.452C254.902 100.461 254.881 100.46 254.862 100.451C254.843 100.442 254.829 100.425 254.821 100.404L253.403 96.5207C253.398 96.51 253.396 96.4984 253.396 96.4866C253.395 96.4748 253.397 96.463 253.401 96.452C253.405 96.441 253.41 96.431 253.418 96.4226C253.425 96.4142 253.434 96.4075 253.444 96.4031C253.454 96.3986 253.464 96.3964 253.474 96.3966C253.485 96.3968 253.495 96.3994 253.505 96.4043C253.515 96.4091 253.523 96.4161 253.53 96.4248C253.537 96.4335 253.543 96.4438 253.546 96.4549L254.964 100.338C254.968 100.349 254.97 100.36 254.97 100.372C254.97 100.383 254.968 100.395 254.964 100.405C254.96 100.416 254.954 100.425 254.947 100.433C254.94 100.441 254.931 100.448 254.922 100.452L254.921 100.452Z" fill="#0C0C0C"/>
</g>
<g opacity="0.2">
<path d="M253.411 101.201C253.392 101.21 253.371 101.209 253.353 101.2C253.334 101.191 253.319 101.174 253.311 101.153L251.729 96.8187C251.722 96.7975 251.722 96.7739 251.73 96.753C251.738 96.7321 251.753 96.7155 251.771 96.7068C251.79 96.6992 251.811 96.6999 251.83 96.7086C251.848 96.7174 251.863 96.7336 251.871 96.7541L253.454 101.088C253.461 101.11 253.461 101.133 253.453 101.155C253.445 101.176 253.43 101.193 253.411 101.202V101.201Z" fill="#0C0C0C"/>
</g>
<g opacity="0.2">
<path d="M251.78 102.023C251.761 102.031 251.74 102.03 251.721 102.021C251.703 102.012 251.688 101.995 251.68 101.974L250.418 98.5171C250.41 98.4958 250.41 98.4719 250.418 98.4507C250.426 98.4295 250.441 98.4127 250.46 98.4039C250.479 98.3952 250.5 98.3953 250.519 98.4042C250.538 98.4131 250.553 98.4301 250.561 98.4514L251.824 101.908C251.832 101.929 251.832 101.953 251.824 101.974C251.816 101.995 251.801 102.012 251.782 102.021L251.78 102.023Z" fill="#0C0C0C"/>
</g>
<path d="M275.589 114.155L262.694 136.391C262.225 137.2 261.596 137.876 260.858 138.37C259.759 137.69 258.698 136.935 257.682 136.109C255.516 134.356 253.559 132.3 251.858 129.991L249.149 106.437L259.99 104.489L261.225 115.826L266.178 107.287L275.589 114.155Z" fill="#367CFF"/>
<path d="M277.101 96.354C278.284 96.4421 279.459 96.0856 280.441 95.3407C280.475 95.315 280.515 95.3008 280.556 95.2996C280.597 95.2985 280.638 95.3104 280.673 95.3341C280.708 95.3578 280.736 95.3923 280.755 95.4334C280.773 95.4746 280.781 95.5207 280.776 95.5665C280.697 96.3501 280.352 97.7914 278.886 97.9749C277.94 98.0933 277.254 97.2781 276.908 96.736C276.884 96.6985 276.871 96.6541 276.868 96.6081C276.866 96.5621 276.876 96.5163 276.896 96.4762C276.916 96.436 276.946 96.4032 276.983 96.3816C277.019 96.36 277.06 96.3504 277.101 96.354Z" fill="white"/>
<path d="M303.165 125.188C301.259 128.873 298.775 132.141 295.832 134.834C295.148 135.457 294.443 136.049 293.715 136.61L288.679 115.119L300.022 111.773L303.165 125.188Z" fill="#367CFF"/>
<path d="M293.826 136.526C293.79 136.552 293.751 136.582 293.716 136.61C293.68 136.638 293.644 136.666 293.608 136.692L289.769 120.32L290.011 120.25L293.826 136.526Z" fill="#0C0C0C"/>
<path d="M266.319 130.939C266.288 130.938 266.258 130.923 266.236 130.899C266.214 130.874 266.201 130.841 266.199 130.806L265.952 124.705C265.95 124.668 265.962 124.631 265.984 124.604C266.007 124.577 266.038 124.56 266.071 124.559C266.104 124.557 266.136 124.57 266.161 124.595C266.185 124.62 266.2 124.655 266.201 124.692L266.449 130.793C266.45 130.83 266.438 130.866 266.416 130.894C266.394 130.921 266.363 130.937 266.33 130.939H266.319Z" fill="#0C0C0C"/>
<path d="M173.029 187.394C190.685 187.394 204.997 171.342 204.997 151.54C204.997 131.739 190.685 115.687 173.029 115.687C155.374 115.687 141.062 131.739 141.062 151.54C141.062 171.342 155.374 187.394 173.029 187.394Z" fill="white"/>
<path opacity="0.09" d="M204.998 151.539C204.998 158.63 203.123 165.562 199.61 171.458C196.098 177.354 191.105 181.95 185.264 184.663C179.422 187.377 172.995 188.087 166.794 186.704C160.593 185.32 154.897 181.906 150.426 176.891C145.955 171.877 142.911 165.489 141.677 158.534C140.444 151.579 141.077 144.37 143.496 137.819C145.916 131.268 150.013 125.668 155.27 121.729C160.527 117.789 166.708 115.686 173.03 115.686C177.233 115.669 181.397 116.584 185.282 118.38C189.168 120.175 192.698 122.816 195.669 126.148C198.641 129.481 200.995 133.441 202.596 137.798C204.197 142.156 205.013 146.826 204.998 151.539Z" fill="#367CFF"/>
<path d="M158.879 130.393C158.879 130.393 158.557 135.805 157.472 137.769C154.346 143.422 153.44 149.782 156.571 153.105C159.701 156.429 179.665 156.474 181.178 148.832C182.45 142.398 179.718 141.706 179.054 136.399C178.753 133.997 177.925 128.962 177.925 128.962" fill="#0A0A0A"/>
<path d="M176.01 147.71C175.976 147.705 175.593 154.822 168.221 154.203C163.118 153.774 161.299 147.702 161.182 147.702C161.732 147.571 162.658 147.38 162.903 147.234C163.707 146.749 164.701 146.245 164.96 144.495C165.11 143.487 164.856 138.325 164.935 137.305L172.769 139.266C172.66 141.42 171.893 146.419 174.578 147.303C175.024 147.448 175.505 147.583 176.01 147.71Z" fill="#E98862"/>
<path opacity="0.5" d="M172.877 145.26C172.754 144.816 172.675 144.359 172.641 143.896C172.555 142.84 172.572 141.776 172.692 140.724C171.1 140.484 169.6 139.747 168.363 138.598C168.217 139.2 167.417 141.833 167.639 142.406C168.059 143.487 170.025 145.26 172.877 145.26Z" fill="#0C0C0C"/>
<path d="M171.864 143.042C168.776 143.378 164.78 141.992 163.952 137.379L163.205 133.217C162.377 128.604 163.866 124.377 167.739 123.503C171.611 122.628 175.177 125.713 176.005 130.327L176.336 132.17C176.653 133.94 177.375 142.444 171.864 143.042Z" fill="#E98862"/>
<path opacity="0.1" d="M169.901 136.999C170.409 136.931 170.785 136.537 170.74 136.118C170.696 135.7 170.248 135.416 169.74 135.484C169.231 135.552 168.855 135.946 168.9 136.365C168.944 136.783 169.392 137.067 169.901 136.999Z" fill="#0C0C0C"/>
<path opacity="0.1" d="M175.272 135.326C175.317 135.743 175.765 136.026 176.273 135.96C176.361 135.948 176.448 135.926 176.532 135.894C176.555 135.396 176.557 134.917 176.544 134.474C176.402 134.434 176.256 134.425 176.112 134.446C175.603 134.513 175.228 134.907 175.272 135.326Z" fill="#0C0C0C"/>
<path opacity="0.5" d="M173.026 136.616H173.033C173.19 136.579 173.345 136.533 173.497 136.476C173.725 136.393 174.021 136.251 173.981 136.021C173.934 135.758 172.783 133.067 172.652 132.761C172.639 132.735 172.619 132.717 172.595 132.708C172.57 132.699 172.544 132.701 172.521 132.714C172.498 132.726 172.48 132.748 172.471 132.775C172.462 132.801 172.462 132.831 172.472 132.857C172.963 134.005 173.754 135.888 173.785 136.065C173.76 136.147 173.383 136.308 172.994 136.396C172.969 136.403 172.947 136.419 172.933 136.443C172.919 136.467 172.913 136.495 172.918 136.524C172.922 136.552 172.935 136.577 172.955 136.594C172.975 136.612 173 136.62 173.026 136.617V136.616Z" fill="#0C0C0C"/>
<path d="M160.115 134.711L163.587 133.95C166.209 132.719 166.954 127.594 166.954 127.594C166.954 127.594 170.19 131.051 177.925 128.961C177.925 128.961 176.245 116.85 164.823 120.526C161.14 121.711 158.532 125.921 158.92 131.498C159.191 135.407 160.115 134.711 160.115 134.711Z" fill="#0A0A0A"/>
<path d="M164.444 138.73C163.267 138.996 162.06 137.799 161.824 136.479C161.588 135.159 162.411 134.216 163.588 133.95L164.353 134.698L165.457 138.502L164.444 138.73Z" fill="#E98862"/>
<path d="M173.486 130.615C173.781 130.381 174.125 130.239 174.484 130.203C174.665 130.184 174.847 130.195 175.024 130.236C175.203 130.277 175.377 130.343 175.541 130.432L175.546 130.435C175.564 130.443 175.585 130.443 175.603 130.435C175.621 130.427 175.636 130.412 175.644 130.392C175.652 130.372 175.654 130.349 175.647 130.329C175.641 130.308 175.628 130.291 175.611 130.28C175.437 130.177 175.252 130.099 175.06 130.048C174.868 129.995 174.669 129.975 174.471 129.989C174.07 130.014 173.682 130.159 173.348 130.409C173.335 130.418 173.324 130.43 173.315 130.444C173.306 130.459 173.3 130.475 173.297 130.491C173.294 130.508 173.294 130.526 173.297 130.543C173.3 130.559 173.306 130.575 173.315 130.59C173.323 130.604 173.335 130.616 173.348 130.625C173.36 130.635 173.375 130.641 173.39 130.644C173.405 130.647 173.421 130.646 173.436 130.642C173.451 130.638 173.465 130.631 173.477 130.621L173.479 130.619L173.486 130.615Z" fill="#0C0C0C"/>
<path d="M170.315 131.106C169.92 131.018 169.512 131.051 169.133 131.2C168.946 131.272 168.769 131.376 168.609 131.508C168.45 131.637 168.305 131.789 168.18 131.959C168.167 131.976 168.161 131.998 168.162 132.02C168.163 132.042 168.172 132.063 168.187 132.077C168.201 132.092 168.22 132.1 168.24 132.1C168.26 132.099 168.279 132.09 168.292 132.074L168.296 132.069C168.418 131.916 168.556 131.781 168.707 131.666C168.857 131.551 169.021 131.463 169.194 131.403C169.538 131.282 169.905 131.266 170.257 131.355L170.265 131.357C170.28 131.361 170.296 131.363 170.311 131.36C170.326 131.358 170.34 131.352 170.353 131.343C170.367 131.335 170.378 131.323 170.387 131.309C170.396 131.295 170.403 131.28 170.406 131.263C170.41 131.247 170.41 131.229 170.408 131.212C170.405 131.196 170.4 131.179 170.392 131.165C170.384 131.15 170.373 131.138 170.361 131.128C170.348 131.118 170.334 131.111 170.319 131.107L170.315 131.106Z" fill="#0C0C0C"/>
<path d="M163.589 133.886C165.922 132.912 166.697 131.105 166.936 129.759C167.09 128.862 167.075 127.939 166.893 127.048L166.821 127.071C167 127.95 167.014 128.861 166.861 129.746C166.626 131.069 165.863 132.848 163.562 133.808L163.589 133.886Z" fill="#0C0C0C"/>
<path d="M193.096 146.293L194.493 140.976C194.524 140.859 194.576 140.751 194.646 140.657C194.716 140.564 194.803 140.489 194.9 140.435C194.998 140.382 195.104 140.352 195.213 140.347C195.321 140.342 195.429 140.363 195.53 140.408C195.715 140.497 195.863 140.659 195.946 140.864C196.03 141.068 196.042 141.3 195.982 141.515L195.682 142.655L198.091 139.555C198.354 139.204 198.875 138.963 199.206 139.319C199.341 139.447 199.434 139.622 199.468 139.817C199.503 140.011 199.479 140.213 199.398 140.389C199.402 140.391 199.405 140.394 199.408 140.396C199.41 140.399 199.412 140.402 199.414 140.404L199.818 139.865C199.893 139.765 199.987 139.685 200.093 139.631C200.199 139.577 200.315 139.55 200.431 139.552C200.547 139.555 200.662 139.586 200.766 139.645C200.87 139.703 200.962 139.786 201.033 139.889C201.144 140.054 201.2 140.256 201.193 140.461C201.186 140.667 201.117 140.864 200.996 141.019L200.824 141.248C200.828 141.257 200.83 141.267 200.831 141.276C200.979 141.151 201.162 141.09 201.347 141.103C201.533 141.115 201.708 141.202 201.841 141.346C201.984 141.509 202.066 141.725 202.072 141.953C202.078 142.181 202.007 142.403 201.874 142.574L201.446 143.145C201.457 143.141 201.468 143.141 201.48 143.144C201.491 143.146 201.501 143.152 201.51 143.16C201.52 143.171 201.528 143.184 201.531 143.199C201.691 143.129 201.867 143.12 202.032 143.174C202.197 143.227 202.341 143.34 202.443 143.494C202.548 143.659 202.6 143.858 202.591 144.06C202.582 144.262 202.512 144.454 202.394 144.606L198.784 149.42C198.28 150.093 197.607 150.582 196.853 150.823C196.098 151.065 195.297 151.048 194.551 150.776C193.908 150.541 193.372 150.034 193.057 149.363C192.742 148.692 192.673 147.909 192.864 147.182L193.096 146.293Z" fill="#E98862"/>
<g opacity="0.2">
<path d="M197.026 143.473C197.041 143.486 197.059 143.492 197.078 143.49C197.097 143.489 197.114 143.479 197.126 143.463L199.413 140.512C199.426 140.495 199.432 140.474 199.431 140.453C199.429 140.431 199.421 140.412 199.406 140.397C199.392 140.383 199.373 140.376 199.354 140.378C199.335 140.379 199.317 140.389 199.304 140.406L197.017 143.357C197.011 143.365 197.006 143.374 197.003 143.384C197 143.394 196.999 143.405 197 143.416C197 143.426 197.003 143.437 197.007 143.446C197.011 143.456 197.017 143.464 197.024 143.471L197.026 143.473Z" fill="#0C0C0C"/>
</g>
<g opacity="0.2">
<path d="M198.159 144.64C198.173 144.653 198.192 144.659 198.211 144.658C198.229 144.656 198.246 144.646 198.259 144.63L200.811 141.336C200.817 141.328 200.822 141.319 200.825 141.309C200.828 141.299 200.829 141.288 200.829 141.278C200.828 141.267 200.825 141.257 200.821 141.247C200.817 141.238 200.811 141.229 200.804 141.222C200.789 141.209 200.77 141.202 200.752 141.204C200.733 141.205 200.715 141.215 200.702 141.23L198.151 144.524C198.145 144.532 198.141 144.542 198.138 144.552C198.135 144.562 198.133 144.572 198.134 144.583C198.135 144.594 198.137 144.604 198.141 144.614C198.146 144.623 198.152 144.631 198.159 144.638L198.159 144.64Z" fill="#0C0C0C"/>
</g>
<g opacity="0.2">
<path d="M199.379 145.912C199.394 145.925 199.412 145.931 199.431 145.93C199.45 145.928 199.467 145.918 199.479 145.903L201.515 143.275C201.527 143.259 201.532 143.238 201.53 143.218C201.528 143.197 201.52 143.178 201.506 143.164C201.492 143.151 201.474 143.143 201.455 143.144C201.437 143.145 201.419 143.154 201.406 143.169L199.37 145.796C199.364 145.804 199.359 145.814 199.356 145.824C199.353 145.834 199.352 145.845 199.353 145.855C199.353 145.866 199.356 145.876 199.36 145.886C199.364 145.895 199.37 145.904 199.377 145.911L199.379 145.912Z" fill="#0C0C0C"/>
</g>
<path d="M201.6 148.614L196.198 176.102C196.185 176.163 196.173 176.227 196.158 176.289C194.944 177.713 193.63 179.024 192.228 180.21C191.946 180.445 191.664 180.677 191.374 180.901C191.195 180.923 191.015 180.935 190.835 180.935C189.873 180.934 188.927 180.65 188.093 180.11C187.259 179.57 186.566 178.794 186.084 177.859L175.789 157.879L185.296 151.72L188.517 157.972L190.878 145.963L201.6 148.614Z" fill="#0CBC8B"/>
<path d="M184.974 161.146C184.941 161.582 184.877 162.361 184.787 163.385C184.338 168.621 183.287 180.291 182.8 185.684C176.654 187.888 170.057 187.963 163.872 185.899H163.869C159.301 184.366 155.097 181.703 151.567 178.108C151.587 173.286 151.525 167.863 151.236 164.376C150.37 153.956 151.188 152.325 152.533 150.817C152.643 150.693 152.758 150.573 152.872 150.456C154.262 149.04 156.006 148.116 158.549 147.729C160.231 147.475 162.761 147.29 162.761 147.29C162.761 147.29 162.976 152.154 168.083 152.423C175.038 152.79 174.574 147.29 174.609 147.29C176.358 147.29 180.25 147.414 182.706 148.816C182.708 148.816 182.708 148.816 182.711 148.818C183.205 149.088 183.655 149.451 184.041 149.89C186.853 153.232 185.465 154.661 184.974 161.146Z" fill="#0CBC8B"/>
<path d="M174.061 137.526C173.058 138.098 171.913 138.279 170.807 138.04C170.769 138.032 170.729 138.036 170.693 138.052C170.657 138.069 170.626 138.096 170.603 138.131C170.58 138.167 170.567 138.209 170.564 138.252C170.562 138.296 170.571 138.339 170.59 138.378C170.92 139.029 171.701 140.142 173.042 139.689C173.908 139.396 174.235 138.397 174.356 137.778C174.365 137.736 174.362 137.691 174.349 137.65C174.335 137.609 174.312 137.573 174.281 137.546C174.25 137.52 174.212 137.504 174.174 137.5C174.135 137.496 174.096 137.505 174.061 137.526Z" fill="white"/>
<path d="M174.124 132.52C174.392 132.52 174.609 132.277 174.609 131.976C174.609 131.676 174.392 131.433 174.124 131.433C173.856 131.433 173.639 131.676 173.639 131.976C173.639 132.277 173.856 132.52 174.124 132.52Z" fill="#0C0C0C"/>
<path d="M169.464 133.435C169.732 133.435 169.949 133.191 169.949 132.891C169.949 132.591 169.732 132.347 169.464 132.347C169.197 132.347 168.979 132.591 168.979 132.891C168.979 133.191 169.197 133.435 169.464 133.435Z" fill="#0C0C0C"/>
<path d="M183.902 172.885C183.899 172.885 183.895 172.885 183.892 172.885C183.873 172.882 183.855 172.87 183.843 172.852C183.831 172.834 183.826 172.812 183.828 172.79L184.685 163.105C184.687 163.094 184.69 163.083 184.695 163.073C184.7 163.064 184.706 163.055 184.714 163.048C184.722 163.042 184.731 163.037 184.741 163.034C184.75 163.032 184.76 163.031 184.77 163.033C184.79 163.036 184.807 163.048 184.819 163.065C184.831 163.083 184.837 163.105 184.834 163.128L183.977 172.813C183.974 172.833 183.965 172.852 183.951 172.865C183.937 172.878 183.92 172.885 183.902 172.885Z" fill="#0C0C0C"/>
<path d="M178.714 172.418L183.398 170.071C183.501 170.02 183.613 169.993 183.725 169.993C183.838 169.992 183.949 170.018 184.053 170.069C184.156 170.119 184.249 170.193 184.325 170.286C184.401 170.378 184.46 170.488 184.496 170.607C184.558 170.83 184.544 171.071 184.456 171.283C184.368 171.494 184.214 171.662 184.022 171.753L183.018 172.257L186.824 172.301C187.249 172.298 187.769 172.597 187.741 173.13C187.742 173.336 187.681 173.536 187.568 173.698C187.455 173.86 187.296 173.974 187.117 174.022C187.118 174.026 187.119 174.031 187.119 174.035C187.119 174.039 187.118 174.042 187.117 174.045L187.77 174.04C187.891 174.039 188.01 174.069 188.12 174.126C188.229 174.184 188.326 174.268 188.403 174.372C188.479 174.477 188.534 174.599 188.564 174.731C188.593 174.862 188.596 174.999 188.572 175.132C188.53 175.34 188.426 175.526 188.277 175.659C188.127 175.791 187.942 175.862 187.751 175.859L187.474 175.862C187.47 175.871 187.465 175.879 187.459 175.886C187.647 175.933 187.814 176.054 187.929 176.227C188.045 176.399 188.103 176.613 188.091 176.828C188.073 177.064 187.975 177.283 187.819 177.442C187.663 177.6 187.459 177.687 187.248 177.685L186.558 177.69C186.568 177.698 186.576 177.708 186.581 177.72C186.587 177.731 186.59 177.745 186.59 177.758C186.59 177.774 186.585 177.789 186.577 177.802C186.734 177.897 186.859 178.046 186.933 178.228C187.007 178.411 187.025 178.615 186.985 178.81C186.94 179.013 186.835 179.194 186.687 179.322C186.539 179.45 186.356 179.518 186.169 179.516L180.348 179.562C179.534 179.569 178.736 179.302 178.058 178.797C177.379 178.292 176.851 177.571 176.54 176.727C176.272 175.999 176.267 175.182 176.527 174.451C176.788 173.719 177.292 173.13 177.933 172.809L178.714 172.418Z" fill="#E98862"/>
<g opacity="0.2">
<path d="M183.349 173.999C183.349 174.021 183.357 174.042 183.371 174.058C183.385 174.074 183.404 174.083 183.424 174.083L187.044 174.119C187.064 174.119 187.083 174.111 187.097 174.095C187.111 174.08 187.119 174.058 187.12 174.036C187.12 174.014 187.112 173.992 187.098 173.976C187.084 173.961 187.065 173.952 187.045 173.951L183.425 173.915C183.405 173.915 183.386 173.924 183.372 173.939C183.358 173.955 183.35 173.976 183.35 173.999H183.349Z" fill="#0C0C0C"/>
</g>
<g opacity="0.2">
<path d="M183.291 175.79C183.291 175.812 183.299 175.833 183.313 175.849C183.327 175.865 183.346 175.874 183.366 175.874L187.405 175.915C187.425 175.915 187.444 175.906 187.458 175.89C187.472 175.874 187.48 175.853 187.48 175.831C187.48 175.809 187.472 175.788 187.458 175.772C187.444 175.756 187.425 175.747 187.405 175.747L183.365 175.706C183.346 175.706 183.326 175.715 183.312 175.73C183.298 175.746 183.291 175.767 183.291 175.79Z" fill="#0C0C0C"/>
</g>
<g opacity="0.2">
<path d="M183.217 177.727C183.217 177.75 183.225 177.771 183.239 177.787C183.253 177.802 183.272 177.811 183.292 177.811L186.515 177.844C186.535 177.844 186.554 177.835 186.568 177.819C186.582 177.804 186.59 177.782 186.59 177.76C186.59 177.738 186.582 177.716 186.568 177.701C186.554 177.685 186.535 177.676 186.515 177.676L183.292 177.644C183.272 177.644 183.253 177.652 183.239 177.668C183.225 177.684 183.217 177.705 183.217 177.728V177.727Z" fill="#0C0C0C"/>
</g>
<path d="M180.056 181.774L163.872 185.899H163.869C159.301 184.366 155.098 181.704 151.568 178.108C151.188 177.722 150.817 177.326 150.455 176.921C149.823 176.214 149.218 175.478 148.641 174.714L150.906 154.273C151.153 152.625 151.974 151.155 153.188 150.186C154.401 149.217 155.909 148.828 157.378 149.105C158.847 149.383 160.158 150.303 161.022 151.664C161.886 153.025 162.232 154.716 161.985 156.363L160.553 175.556L178.599 170.974L180.056 181.774Z" fill="#0CBC8B"/>
<path d="M156.902 176.31C156.893 176.311 156.883 176.309 156.873 176.306C156.864 176.302 156.855 176.297 156.848 176.29C156.84 176.282 156.834 176.274 156.83 176.264C156.825 176.254 156.823 176.243 156.822 176.232C156.821 176.221 156.822 176.21 156.826 176.199C156.829 176.189 156.834 176.179 156.84 176.171C156.846 176.162 156.854 176.156 156.863 176.151C156.872 176.146 156.881 176.143 156.891 176.142L160.509 175.274C160.519 175.273 160.529 175.273 160.539 175.276C160.548 175.278 160.557 175.283 160.565 175.29C160.573 175.296 160.58 175.304 160.585 175.314C160.59 175.323 160.593 175.334 160.595 175.345C160.596 175.356 160.596 175.367 160.593 175.378C160.591 175.388 160.587 175.398 160.581 175.407C160.575 175.416 160.568 175.424 160.559 175.429C160.551 175.435 160.541 175.439 160.532 175.44L156.912 176.308C156.909 176.309 156.906 176.309 156.902 176.31Z" fill="#0C0C0C"/>
<path d="M180.056 181.774C180.06 181.796 180.056 181.818 180.046 181.837C180.036 181.856 180.02 181.869 180.001 181.875L164.278 186.031C164.179 186 164.081 185.969 163.984 185.935L179.891 181.735L178.474 171.101L160.535 175.441C160.524 175.443 160.512 175.442 160.501 175.438C160.489 175.434 160.479 175.428 160.471 175.419C160.463 175.409 160.458 175.397 160.454 175.385C160.451 175.372 160.449 175.359 160.451 175.346L161.456 164.378C161.458 164.368 161.462 164.357 161.467 164.348C161.472 164.339 161.479 164.331 161.487 164.324C161.495 164.318 161.505 164.314 161.514 164.311C161.524 164.309 161.534 164.309 161.544 164.311C161.563 164.314 161.581 164.326 161.592 164.344C161.604 164.362 161.609 164.384 161.606 164.406L160.615 175.262L178.506 170.913C178.516 170.91 178.526 170.909 178.536 170.911C178.546 170.913 178.555 170.918 178.564 170.924C178.572 170.929 178.58 170.937 178.586 170.945C178.592 170.954 178.596 170.964 178.599 170.974L180.056 181.774Z" fill="#0C0C0C"/>
<path d="M58.3864 228.704C74.5753 228.704 87.6991 213.985 87.6991 195.828C87.6991 177.671 74.5753 162.952 58.3864 162.952C42.1975 162.952 29.0737 177.671 29.0737 195.828C29.0737 213.985 42.1975 228.704 58.3864 228.704Z" fill="white"/>
<path opacity="0.09" d="M58.3864 228.704C74.5753 228.704 87.6991 213.985 87.6991 195.828C87.6991 177.671 74.5753 162.952 58.3864 162.952C42.1975 162.952 29.0737 177.671 29.0737 195.828C29.0737 213.985 42.1975 228.704 58.3864 228.704Z" fill="#367CFF"/>
<path d="M50.314 177.181C50.314 177.181 50.6316 187.083 56.5241 187.538L57.5222 174.481L50.314 177.181Z" fill="#0A0A0A"/>
<path d="M51.4489 189.56C53.3768 189.56 54.9397 187.807 54.9397 185.645C54.9397 183.483 53.3768 181.73 51.4489 181.73C49.5209 181.73 47.958 183.483 47.958 185.645C47.958 187.807 49.5209 189.56 51.4489 189.56Z" fill="#0A0A0A"/>
<path d="M65.1075 192.133C65.0763 192.128 64.7315 198.549 58.0811 197.989C53.4771 197.603 51.8358 192.125 51.7305 192.125C52.2566 192.027 52.7756 191.886 53.2833 191.703C54.0081 191.266 54.9052 190.811 55.1387 189.232C55.2735 188.322 55.0452 183.666 55.1153 182.745L62.1823 184.515C62.0825 186.459 61.3923 190.967 63.8147 191.766C64.2174 191.897 64.6516 192.019 65.1075 192.133Z" fill="#E98862"/>
<path opacity="0.5" d="M62.281 189.922C62.1702 189.522 62.0989 189.109 62.0684 188.691C61.9908 187.738 62.0063 186.779 62.1146 185.83C60.6782 185.613 59.325 184.948 58.2088 183.911C58.0775 184.454 57.3559 186.829 57.5558 187.346C57.9335 188.324 59.7084 189.922 62.281 189.922Z" fill="#0C0C0C"/>
<path d="M61.1742 188.193C58.3752 188.233 54.8762 186.649 54.4425 182.432L54.0512 178.626C53.6173 174.409 55.2405 170.734 58.7807 170.277C62.3207 169.819 65.3183 172.895 65.7522 177.112L65.9254 178.796C66.0918 180.415 66.1682 188.121 61.1742 188.193Z" fill="#E98862"/>
<path d="M64.9106 178.683C65.153 178.683 65.3495 178.463 65.3495 178.191C65.3495 177.919 65.153 177.699 64.9106 177.699C64.6682 177.699 64.4717 177.919 64.4717 178.191C64.4717 178.463 64.6682 178.683 64.9106 178.683Z" fill="#0C0C0C"/>
<path d="M60.4243 179.259C60.6667 179.259 60.8632 179.038 60.8632 178.766C60.8632 178.495 60.6667 178.274 60.4243 178.274C60.1819 178.274 59.9854 178.495 59.9854 178.766C59.9854 179.038 60.1819 179.259 60.4243 179.259Z" fill="#0C0C0C"/>
<path opacity="0.5" d="M62.6508 182.514H62.6578C62.8013 182.494 62.9436 182.466 63.0843 182.429C63.2944 182.371 63.5713 182.271 63.5496 182.059C63.5247 181.819 62.6716 179.303 62.5742 179.017C62.57 179.004 62.5637 178.993 62.5556 178.983C62.5475 178.974 62.5377 178.966 62.527 178.961C62.5162 178.955 62.5046 178.952 62.4928 178.952C62.481 178.951 62.4692 178.954 62.4582 178.958C62.4472 178.963 62.4371 178.97 62.4285 178.979C62.4199 178.988 62.413 178.999 62.4082 179.011C62.4034 179.024 62.4008 179.037 62.4004 179.05C62.4001 179.063 62.4021 179.076 62.4063 179.089C62.7704 180.16 63.3545 181.921 63.371 182.083C63.1464 182.225 62.8947 182.304 62.6371 182.314C62.6134 182.316 62.5913 182.329 62.5758 182.349C62.5603 182.369 62.5526 182.396 62.5544 182.422C62.5562 182.449 62.5674 182.474 62.5855 182.491C62.6036 182.509 62.6271 182.517 62.6508 182.515V182.514Z" fill="#0C0C0C"/>
<path opacity="0.5" d="M62.0181 184.269C62.5931 184.232 63.1523 184.045 63.6507 183.721C63.6704 183.707 63.6846 183.686 63.6904 183.661C63.6962 183.636 63.6932 183.609 63.6821 183.586C63.6709 183.564 63.6523 183.547 63.6303 183.539C63.6083 183.531 63.5844 183.533 63.5637 183.544C62.4872 184.212 61.4577 184.251 60.5868 183.656C60.5692 183.644 60.5511 183.632 60.5324 183.622C60.5108 183.612 60.4869 183.613 60.4655 183.622C60.444 183.632 60.4268 183.651 60.4174 183.675C60.408 183.699 60.4071 183.725 60.4149 183.75C60.4227 183.774 60.4386 183.794 60.4593 183.806C60.4661 183.81 60.4775 183.818 60.4933 183.829C60.9511 184.143 61.4821 184.296 62.0181 184.269Z" fill="#0C0C0C"/>
<path d="M51.1729 179.708L54.3451 179.318C56.7852 178.434 57.799 173.889 57.799 173.889C57.799 173.889 59.9856 176.677 66.4652 175.404C66.4652 175.404 66.2142 166.035 56.3595 167.354C52.9283 167.814 50.341 171.673 50.3143 176.719C50.2958 180.255 51.1729 179.708 51.1729 179.708Z" fill="#0A0A0A"/>
<path d="M54.7946 183.688C53.7186 183.828 52.7138 182.649 52.5898 181.442C52.4658 180.236 53.2692 179.458 54.3452 179.319L54.9827 180.055L55.7196 183.568L54.7946 183.688Z" fill="#E98862"/>
<path d="M63.3582 176.963C63.6755 176.766 64.0342 176.668 64.3967 176.68C64.5758 176.684 64.7532 176.719 64.923 176.782C65.0917 176.845 65.2528 176.93 65.4023 177.038C65.4173 177.049 65.428 177.065 65.4322 177.085C65.4365 177.104 65.4339 177.124 65.4251 177.142C65.4162 177.159 65.4018 177.172 65.3848 177.177C65.3677 177.183 65.3495 177.181 65.3337 177.172L65.3292 177.169C65.1875 177.074 65.0358 177 64.8776 176.949C64.7209 176.896 64.558 176.87 64.3945 176.873C64.0691 176.875 63.75 176.973 63.4695 177.158L63.4628 177.163C63.4512 177.171 63.4382 177.177 63.4245 177.18C63.4109 177.183 63.3969 177.182 63.3833 177.179C63.3698 177.175 63.357 177.169 63.3458 177.16C63.3345 177.151 63.325 177.139 63.3178 177.126C63.3106 177.113 63.3058 177.098 63.3038 177.083C63.3018 177.067 63.3026 177.051 63.3061 177.036C63.3096 177.021 63.3158 177.007 63.3243 176.995C63.3328 176.983 63.3434 176.972 63.3555 176.965L63.3582 176.963Z" fill="#0C0C0C"/>
<path d="M60.5154 177.549C60.2053 177.439 59.8745 177.423 59.557 177.503C59.3971 177.542 59.2434 177.608 59.1011 177.699C58.9574 177.789 58.8242 177.899 58.7049 178.027L58.7011 178.031C58.6876 178.042 58.6708 178.047 58.654 178.046C58.6372 178.044 58.6215 178.035 58.6099 178.021C58.5984 178.008 58.5918 177.99 58.5913 177.971C58.5909 177.952 58.5967 177.933 58.6076 177.919C58.732 177.777 58.8718 177.653 59.0238 177.55C59.1767 177.445 59.3427 177.367 59.5163 177.318C59.8674 177.216 60.2365 177.221 60.5851 177.334C60.5985 177.337 60.6112 177.344 60.6222 177.354C60.6333 177.363 60.6425 177.375 60.6493 177.389C60.6562 177.402 60.6605 177.417 60.6621 177.433C60.6637 177.448 60.6624 177.464 60.6585 177.479C60.6545 177.494 60.6479 177.508 60.639 177.52C60.6302 177.532 60.6192 177.542 60.6069 177.549C60.5945 177.556 60.581 177.56 60.5671 177.561C60.5533 177.563 60.5393 177.561 60.5262 177.556H60.5234L60.5154 177.549Z" fill="#0C0C0C"/>
<path opacity="0.52" d="M62.0782 185.223C62.1823 185.218 62.2858 185.203 62.3876 185.179C62.4103 185.172 62.4298 185.157 62.4422 185.134C62.4546 185.112 62.4589 185.085 62.454 185.06C62.4492 185.034 62.4357 185.012 62.4164 184.997C62.3971 184.982 62.3734 184.977 62.3504 184.981C62.1914 185.033 62.0243 185.047 61.8603 185.021C61.6962 184.995 61.539 184.929 61.3992 184.83C61.3808 184.813 61.3571 184.805 61.3333 184.808C61.3096 184.81 61.2878 184.823 61.2727 184.844C61.2576 184.865 61.2505 184.891 61.2529 184.918C61.2553 184.945 61.267 184.969 61.2855 184.986C61.5173 185.165 61.7975 185.249 62.0782 185.223Z" fill="#0C0C0C"/>
<path opacity="0.1" d="M59.8166 182.592C60.2781 182.574 60.6426 182.252 60.6307 181.872C60.6189 181.492 60.2351 181.199 59.7736 181.217C59.3121 181.235 58.9476 181.558 58.9594 181.938C58.9713 182.317 59.355 182.61 59.8166 182.592Z" fill="#0C0C0C"/>
<path opacity="0.1" d="M64.7556 181.544C64.7686 181.923 65.1521 182.216 65.6137 182.199C65.6935 182.196 65.7728 182.183 65.8503 182.162C65.9049 181.716 65.9383 181.286 65.9566 180.886C65.8323 180.838 65.7012 180.817 65.57 180.824C65.1094 180.841 64.7451 181.163 64.7556 181.544Z" fill="#0C0C0C"/>
<path d="M75.0398 198.896C75.0198 201.137 74.3336 203.81 74.0891 207.039C74.0242 207.901 72.3746 210.395 72.1351 213.168C71.8332 216.7 72.5046 222.208 72.5944 224.589C67.9578 227.467 62.7129 228.882 57.4166 228.685C52.1204 228.488 46.9706 226.686 42.5142 223.47C42.3945 217.352 42.2522 209.799 42.0701 207.988C41.4787 202.01 41.6384 198.23 42.4918 196.461C43.8866 193.573 46.3694 192.691 48.967 192.294C50.5539 192.053 52.9369 191.882 52.9369 191.882C52.9369 191.882 53.139 196.464 57.9548 196.718C64.5099 197.065 64.0732 191.882 64.1056 191.882C66.4836 191.882 70.99 192.521 72.7167 193.841C74.5482 195.238 75.0622 196.895 75.0398 198.896Z" fill="#FFC239"/>
<path d="M52.393 202.383L43.5 224.149C40.0855 221.888 37.1146 218.875 34.7666 215.291L42.185 197.134L52.393 202.383Z" fill="#FFC239"/>
<path d="M82.2237 214.962C80.4815 217.688 78.3788 220.1 75.988 222.115C75.2012 222.782 74.3841 223.402 73.5402 223.974L64.4126 201.468L74.6331 196.251L82.2237 214.962Z" fill="#FFC239"/>
<path d="M119.391 99.9258C136.246 99.9258 149.91 84.6009 149.91 65.6968C149.91 46.7927 136.246 31.4679 119.391 31.4679C102.535 31.4679 88.8716 46.7927 88.8716 65.6968C88.8716 84.6009 102.535 99.9258 119.391 99.9258Z" fill="white"/>
<path opacity="0.09" d="M119.391 99.9258C136.246 99.9258 149.91 84.6009 149.91 65.6968C149.91 46.7927 136.246 31.4679 119.391 31.4679C102.535 31.4679 88.8716 46.7927 88.8716 65.6968C88.8716 84.6009 102.535 99.9258 119.391 99.9258Z" fill="#367CFF"/>
<path d="M125.292 45.1998C125.292 45.1998 127.225 42.8506 127.075 38.3763C126.96 34.912 124.535 37.6638 124.535 37.6638C124.535 37.6638 124.43 35.1703 122.888 35.7328C121.347 36.2953 120.873 39.0334 120.873 39.0334" fill="#0C0C0C"/>
<path d="M114.758 37.6779C114.758 37.6779 107.061 40.2148 111.824 51.5674L112.526 51.4784L113.953 51.2982" fill="#0C0C0C"/>
<path d="M125.665 63.3435C125.63 63.3384 125.241 70.5806 117.739 69.9481C112.546 69.5118 110.694 63.3323 110.575 63.3323C111.135 63.1988 111.827 62.9965 112.102 62.9268C112.701 62.7708 113.244 62.4138 113.658 61.9033C114.072 61.3929 114.338 60.7531 114.42 60.0692C114.572 59.0426 114.314 53.7909 114.393 52.7523L122.365 54.7477C122.253 56.9415 121.474 62.0268 124.206 62.9268C124.661 63.0759 125.151 63.2131 125.665 63.3435Z" fill="#E98862"/>
<path opacity="0.52" d="M122.477 60.8488C122.352 60.3974 122.272 59.9322 122.237 59.4612C122.15 58.3866 122.167 57.3044 122.29 56.2339C120.669 55.9887 119.143 55.2386 117.884 54.069C117.736 54.6821 116.922 57.3612 117.147 57.9439C117.573 59.0454 119.575 60.8488 122.477 60.8488Z" fill="#0C0C0C"/>
<path d="M121.176 58.543C118.032 58.8601 113.973 57.4191 113.159 52.7187L112.425 48.4775C111.611 43.7759 113.153 39.4871 117.099 38.6279C121.045 37.7685 124.654 40.9367 125.468 45.6372L125.792 47.5147C125.894 48.1616 125.956 48.8154 125.978 49.4718C126.049 51.2069 126.15 53.844 125.406 55.7935C124.705 57.6343 123.185 58.3407 121.176 58.543Z" fill="#E98862"/>
<path opacity="0.5" d="M121.651 53.896C122.227 53.8839 122.792 53.7201 123.301 53.418C123.312 53.4124 123.322 53.4043 123.33 53.3943C123.339 53.3843 123.345 53.3725 123.349 53.3596C123.353 53.3468 123.355 53.3331 123.354 53.3195C123.353 53.3059 123.35 53.2927 123.345 53.2805C123.339 53.2683 123.331 53.2575 123.322 53.2488C123.313 53.24 123.302 53.2334 123.29 53.2294C123.279 53.2254 123.267 53.2241 123.255 53.2256C123.242 53.227 123.231 53.2312 123.22 53.2378C122.122 53.8594 121.092 53.8535 120.242 53.2227C120.225 53.2094 120.207 53.197 120.189 53.1858C120.178 53.1799 120.167 53.1765 120.155 53.1756C120.143 53.1748 120.131 53.1765 120.12 53.1808C120.109 53.1851 120.099 53.1918 120.09 53.2005C120.081 53.2093 120.074 53.2199 120.068 53.2318C120.063 53.2437 120.06 53.2566 120.059 53.2698C120.059 53.283 120.06 53.2963 120.064 53.3088C120.068 53.3214 120.074 53.333 120.081 53.3429C120.089 53.3529 120.099 53.361 120.109 53.3668C120.116 53.371 120.127 53.3794 120.143 53.3909C120.589 53.7239 121.115 53.8998 121.651 53.896Z" fill="#0C0C0C"/>
<path opacity="0.52" d="M121.679 54.8524C121.783 54.852 121.887 54.8417 121.99 54.8216C122.001 54.8194 122.012 54.8146 122.022 54.8075C122.032 54.8005 122.041 54.7913 122.048 54.7805C122.055 54.7697 122.06 54.7575 122.062 54.7446C122.065 54.7317 122.065 54.7184 122.063 54.7053C122.061 54.6923 122.057 54.6798 122.051 54.6686C122.044 54.6574 122.036 54.6477 122.027 54.64C122.017 54.6324 122.006 54.6269 121.995 54.624C121.983 54.621 121.971 54.6207 121.959 54.6229C121.799 54.668 121.631 54.6743 121.468 54.6412C121.305 54.6081 121.15 54.5364 121.014 54.4309C120.996 54.4139 120.973 54.4054 120.949 54.4074C120.926 54.4093 120.904 54.4215 120.889 54.4412C120.873 54.461 120.865 54.4868 120.866 54.5131C120.868 54.5395 120.878 54.5642 120.895 54.582C121.121 54.7711 121.398 54.8667 121.679 54.8524Z" fill="#0C0C0C"/>
<path d="M124.524 48.6991C124.797 48.6991 125.019 48.4505 125.019 48.1439C125.019 47.8372 124.797 47.5886 124.524 47.5886C124.25 47.5886 124.029 47.8372 124.029 48.1439C124.029 48.4505 124.25 48.6991 124.524 48.6991Z" fill="#0C0C0C"/>
<path d="M119.71 49.3302C119.983 49.3302 120.205 49.0816 120.205 48.775C120.205 48.4683 119.983 48.2197 119.71 48.2197C119.436 48.2197 119.215 48.4683 119.215 48.775C119.215 49.0816 119.436 49.3302 119.71 49.3302Z" fill="#0C0C0C"/>
<path d="M113.653 54.0973C112.453 54.3584 111.232 53.1312 110.999 51.7862C110.766 50.4412 111.61 49.488 112.809 49.2269L113.583 49.9935L114.683 53.8728L113.653 54.0973Z" fill="#E98862"/>
<path d="M114.499 51.6883C114.499 51.6883 113.829 44.9395 115.565 44.1621C116.721 43.6441 119.94 44.9628 122.543 43.8389C123.682 43.3469 124.855 43.4471 125.069 44.049C125.155 44.2872 125.316 40.5822 123.033 38.2585C121.215 36.4087 116.305 36.7789 114.229 37.928C108.48 41.1097 112.609 49.57 112.609 49.57L113.25 51.8134L114.499 51.6883Z" fill="#0C0C0C"/>
<g opacity="0.52">
<path d="M122.389 52.2247H122.397C122.784 52.1407 123.424 51.9541 123.37 51.6297C123.324 51.3608 122.172 48.6003 122.041 48.2866C122.036 48.2732 122.028 48.2612 122.018 48.2513C122.009 48.2413 121.997 48.2336 121.985 48.2286C121.972 48.2236 121.959 48.2214 121.946 48.222C121.933 48.2227 121.92 48.2263 121.908 48.2326C121.896 48.2388 121.886 48.2477 121.877 48.2586C121.868 48.2695 121.861 48.2822 121.857 48.2961C121.852 48.31 121.85 48.3247 121.851 48.3394C121.851 48.3542 121.854 48.3686 121.86 48.382C122.371 49.6044 123.142 51.4884 123.173 51.6717C123.148 51.7557 122.761 51.9177 122.361 52.0036C122.334 52.008 122.31 52.0241 122.294 52.0482C122.278 52.0723 122.272 52.1025 122.276 52.1322C122.28 52.1619 122.294 52.1886 122.315 52.2065C122.337 52.2244 122.364 52.2319 122.39 52.2275L122.389 52.2247Z" fill="#0C0C0C"/>
</g>
<path d="M122.663 45.4605C123.05 45.2525 123.479 45.1655 123.907 45.2087C124.116 45.2285 124.322 45.2834 124.517 45.3715C124.71 45.4575 124.892 45.5703 125.06 45.7074C125.091 45.7315 125.112 45.7682 125.12 45.8098C125.127 45.8513 125.12 45.8945 125.1 45.9302C125.079 45.966 125.047 45.9914 125.011 46.0013C124.974 46.0111 124.935 46.0046 124.903 45.983L124.891 45.9786C124.74 45.8698 124.576 45.7828 124.405 45.7197C124.236 45.6566 124.061 45.6226 123.883 45.6187C123.533 45.6077 123.187 45.7007 122.879 45.8882L122.867 45.8963C122.842 45.9123 122.814 45.9226 122.786 45.9267C122.757 45.9308 122.728 45.9285 122.7 45.92C122.672 45.9115 122.646 45.8969 122.624 45.8771C122.601 45.8573 122.582 45.8327 122.567 45.8046C122.553 45.7766 122.544 45.7456 122.54 45.7136C122.537 45.6815 122.539 45.649 122.546 45.6178C122.554 45.5866 122.567 45.5574 122.585 45.5319C122.602 45.5064 122.624 45.485 122.649 45.4689L122.663 45.4605Z" fill="#0C0C0C"/>
<path d="M119.825 46.3209C119.488 46.2151 119.132 46.211 118.793 46.3089C118.621 46.3569 118.456 46.434 118.304 46.5375C118.149 46.6417 118.007 46.7672 117.88 46.9111L117.872 46.9201C117.845 46.9498 117.808 46.9663 117.77 46.9662C117.732 46.966 117.695 46.9492 117.668 46.9193C117.641 46.8894 117.625 46.8488 117.625 46.8061C117.624 46.7635 117.638 46.7221 117.664 46.6909C117.8 46.5151 117.955 46.3592 118.126 46.2271C118.298 46.0924 118.488 45.9874 118.689 45.9157C118.889 45.8416 119.098 45.7986 119.309 45.7881C119.524 45.7747 119.741 45.7958 119.952 45.8507C120.008 45.8656 120.057 45.9051 120.088 45.9605C120.119 46.0159 120.128 46.0827 120.115 46.1463C120.102 46.2098 120.067 46.2648 120.017 46.2993C119.968 46.3337 119.908 46.3447 119.852 46.3299L119.839 46.3259L119.825 46.3209Z" fill="#0C0C0C"/>
<path d="M121.343 40.9895C122.199 40.6004 122.479 39.1395 121.968 37.7264C121.458 36.3133 120.35 35.4831 119.494 35.8722C118.638 36.2613 118.358 37.7222 118.868 39.1353C119.379 40.5484 120.487 41.3786 121.343 40.9895Z" fill="#0C0C0C"/>
<path d="M136.032 70.8271C136.062 73.1471 135.254 75.7554 134.984 79.2871C134.93 80.0036 134.8 81.582 134.628 83.6389C134.346 87.0448 133.946 91.7547 133.597 96.0002C128.601 98.941 122.977 100.273 117.348 99.8496C111.718 99.4257 106.303 97.2623 101.703 93.599C101.593 93.5066 101.483 93.4171 101.373 93.3303C101.082 88.5308 100.737 83.4934 100.423 80.3114C99.8314 74.3701 99.0255 71.412 99.4771 69.4138C99.5133 69.2437 99.5617 69.0771 99.6218 68.9157C100.922 65.3783 105.061 63.7999 107.866 63.3745C109.578 63.1143 112.153 62.9268 112.153 62.9268C112.153 62.9268 112.37 67.8746 117.568 68.1489C124.644 68.5239 124.173 62.9268 124.208 62.9268C125.353 62.9268 131.593 63.8615 133.153 65.0033C133.414 65.1937 133.665 65.4031 133.902 65.6302C134.579 66.264 135.122 67.0595 135.491 67.9585C135.859 68.8576 136.044 69.8376 136.032 70.8271Z" fill="#383838"/>
<path d="M109.977 74.4149L101.703 93.599C101.593 93.5066 101.483 93.4171 101.374 93.3303C98.166 90.6925 95.4457 87.3811 93.3638 83.5801L99.4771 69.4138L99.7192 68.8513L109.977 74.4149Z" fill="#383838"/>
<path d="M109.179 76.6229L101.653 93.557C101.603 93.515 101.556 93.4758 101.506 93.4395L109.022 76.5362C109.032 76.5126 109.051 76.4948 109.073 76.4864C109.096 76.478 109.12 76.4798 109.141 76.4914C109.162 76.5033 109.177 76.5238 109.184 76.5485C109.191 76.5731 109.189 76.5999 109.179 76.6229Z" fill="white"/>
<path d="M147.336 79.4774C145.836 83.2901 143.73 86.7647 141.12 89.7314L134.628 83.6389L126.381 75.8981L133.902 65.6301L133.924 65.5994L147.336 79.4774Z" fill="#383838"/>
<path d="M134.728 83.7136C134.749 83.7125 134.769 83.7027 134.784 83.6862C134.799 83.6697 134.809 83.6475 134.811 83.6238L135.239 77.9903C135.241 77.9643 135.234 77.9385 135.219 77.9185C135.204 77.8985 135.182 77.886 135.159 77.8837C135.136 77.8818 135.113 77.8901 135.096 77.9068C135.078 77.9236 135.067 77.9474 135.064 77.9732L134.636 83.607C134.634 83.633 134.641 83.6588 134.656 83.6787C134.671 83.6986 134.693 83.7111 134.716 83.7134L134.728 83.7136Z" fill="white"/>
<path d="M263.097 248.147C279.173 248.147 292.206 233.53 292.206 215.499C292.206 197.469 279.173 182.852 263.097 182.852C247.021 182.852 233.988 197.469 233.988 215.499C233.988 233.53 247.021 248.147 263.097 248.147Z" fill="white"/>
<path opacity="0.09" d="M233.988 215.499C233.988 221.955 235.695 228.267 238.894 233.636C242.092 239.005 246.638 243.189 251.957 245.66C257.276 248.131 263.128 248.778 268.775 247.518C274.421 246.258 279.608 243.149 283.679 238.584C287.75 234.018 290.522 228.201 291.645 221.868C292.768 215.535 292.192 208.971 289.989 203.006C287.786 197.04 284.055 191.941 279.268 188.354C274.481 184.767 268.853 182.852 263.096 182.852C259.27 182.836 255.478 183.67 251.94 185.305C248.403 186.94 245.188 189.344 242.482 192.379C239.777 195.413 237.633 199.019 236.175 202.987C234.717 206.955 233.974 211.207 233.988 215.499Z" fill="#367CFF"/>
<path d="M276.305 197.484C275.84 203.528 276.271 205.578 278.509 209.042C280.397 211.962 269.656 209.48 264.904 208.53L269.098 194.784C269.098 194.784 276.468 195.361 276.305 197.484Z" fill="#0A0A0A"/>
<path d="M259.91 194.969C258.508 200.828 258.665 202.641 255.922 205.719C253.648 208.269 262.51 208.788 267.266 209.714L267.506 195.19C267.506 195.19 260.403 192.911 259.91 194.969Z" fill="#0A0A0A"/>
<path d="M260.383 212.012C260.414 212.008 260.762 218.488 267.475 217.923C272.122 217.533 273.779 212.003 273.885 212.003C273.354 211.904 272.83 211.762 272.318 211.577C271.586 211.136 270.681 210.677 270.445 209.083C270.309 208.165 270.539 203.465 270.469 202.535L263.335 204.32C263.435 206.283 264.134 210.834 261.689 211.639C261.281 211.773 260.843 211.896 260.383 212.012Z" fill="#E98862"/>
<path opacity="0.5" d="M263.235 209.78C263.347 209.377 263.419 208.96 263.45 208.539C263.528 207.577 263.513 206.609 263.404 205.651C264.853 205.431 266.219 204.76 267.346 203.714C267.479 204.263 268.207 206.66 268.005 207.181C267.624 208.167 265.832 209.78 263.235 209.78Z" fill="#0C0C0C"/>
<path d="M264.158 207.762C266.97 208.067 270.608 206.805 271.362 202.605L272.042 198.815C272.796 194.614 271.44 190.765 267.914 189.969C264.388 189.173 261.141 191.984 260.387 196.184L260.086 197.863C259.797 199.473 259.14 207.217 264.158 207.762Z" fill="#E98862"/>
<path d="M275.446 200.011L272.274 199.621C266.067 198.341 264.547 192.723 264.547 192.723C264.547 192.723 261.943 196.622 259.732 195.727C259.732 195.727 260.445 186.326 270.259 187.978C274.115 188.627 276.305 192.212 276.305 197.021C276.305 200.557 275.446 200.011 275.446 200.011Z" fill="#0A0A0A"/>
<path opacity="0.1" d="M266.855 201.679C266.896 201.298 266.553 200.939 266.091 200.877C265.628 200.815 265.22 201.073 265.179 201.454C265.139 201.835 265.481 202.194 265.944 202.256C266.407 202.318 266.815 202.059 266.855 201.679Z" fill="#0C0C0C"/>
<path opacity="0.1" d="M261.056 200.735C261.015 201.115 260.607 201.374 260.144 201.312C260.064 201.301 259.985 201.281 259.909 201.252C259.888 200.799 259.886 200.363 259.898 199.959C260.027 199.923 260.16 199.915 260.291 199.933C260.753 199.995 261.095 200.353 261.056 200.735Z" fill="#0C0C0C"/>
<path opacity="0.5" d="M263.1 201.91H263.093C262.951 201.877 262.81 201.835 262.671 201.784C262.464 201.706 262.193 201.579 262.231 201.369C262.274 201.129 263.322 198.679 263.441 198.4C263.446 198.388 263.453 198.377 263.462 198.367C263.471 198.358 263.481 198.351 263.492 198.346C263.504 198.342 263.516 198.339 263.528 198.34C263.54 198.341 263.552 198.344 263.563 198.35C263.574 198.356 263.584 198.364 263.592 198.374C263.6 198.385 263.606 198.397 263.61 198.409C263.614 198.422 263.615 198.436 263.614 198.45C263.613 198.463 263.61 198.476 263.604 198.489C263.157 199.532 262.437 201.248 262.408 201.409C262.624 201.573 262.871 201.676 263.129 201.711C263.152 201.716 263.172 201.731 263.185 201.753C263.199 201.774 263.204 201.801 263.2 201.827C263.196 201.852 263.184 201.876 263.165 201.892C263.147 201.907 263.124 201.915 263.1 201.912V201.91Z" fill="#0C0C0C"/>
<path d="M270.914 203.835C271.986 204.077 273.085 202.987 273.301 201.785C273.516 200.583 272.767 199.724 271.695 199.483L270.998 200.163L269.993 203.627L270.914 203.835Z" fill="#E98862"/>
<path d="M262.681 196.445C262.548 196.34 262.404 196.255 262.252 196.193C262.097 196.128 261.936 196.087 261.772 196.072C261.607 196.054 261.442 196.065 261.28 196.102C261.117 196.14 260.959 196.2 260.809 196.281L260.805 196.284C260.789 196.29 260.771 196.29 260.755 196.282C260.739 196.275 260.726 196.261 260.719 196.244C260.711 196.226 260.71 196.206 260.715 196.188C260.72 196.169 260.731 196.154 260.746 196.144C260.904 196.05 261.073 195.979 261.247 195.932C261.423 195.884 261.604 195.866 261.784 195.879C262.15 195.901 262.503 196.034 262.807 196.262C262.829 196.28 262.844 196.306 262.849 196.336C262.854 196.366 262.848 196.397 262.832 196.422C262.817 196.448 262.794 196.465 262.767 196.471C262.74 196.477 262.713 196.472 262.69 196.455L262.687 196.453L262.681 196.445Z" fill="#0C0C0C"/>
<path d="M265.569 196.893C265.927 196.813 266.299 196.842 266.644 196.978C266.815 197.044 266.976 197.138 267.122 197.258C267.267 197.376 267.399 197.514 267.513 197.669C267.526 197.684 267.532 197.704 267.531 197.725C267.531 197.745 267.522 197.765 267.509 197.779C267.495 197.792 267.477 197.8 267.459 197.799C267.44 197.798 267.423 197.789 267.411 197.774L267.407 197.769C267.296 197.63 267.171 197.506 267.033 197.402C266.896 197.298 266.747 197.217 266.589 197.163C266.275 197.053 265.942 197.037 265.621 197.119L265.614 197.121C265.587 197.128 265.558 197.123 265.535 197.107C265.511 197.091 265.494 197.065 265.487 197.035C265.481 197.005 265.485 196.973 265.499 196.947C265.514 196.92 265.537 196.901 265.564 196.894L265.569 196.893Z" fill="#0C0C0C"/>
<path d="M249.572 244.413C248.428 243.854 247.571 243.255 245.617 241.604C244.207 240.417 242.897 239.088 241.703 237.633L251.736 216.22L252.172 215.29L261.222 220.626L253.372 237.381L253.336 237.455L253.404 237.753" fill="#EA394A"/>
<path d="M282.94 227.188C282.677 230.363 282.62 235.301 282.638 239.692C278.855 243.541 274.235 246.205 269.242 247.416C264.25 248.626 259.061 248.342 254.198 246.59C253.603 239.969 252.718 230.239 252.219 224.247C251.714 218.041 250.227 215.991 254.285 213.019C256.52 211.743 260.065 211.631 261.658 211.631C261.117 217.513 272.171 218.237 272.445 211.631C280.713 212.498 284.54 212.713 282.94 227.188Z" fill="#EA394A"/>
<path d="M262.158 202.738C263.071 203.259 264.114 203.424 265.12 203.206C265.155 203.199 265.191 203.203 265.224 203.218C265.257 203.232 265.286 203.257 265.307 203.29C265.328 203.322 265.34 203.36 265.342 203.4C265.344 203.44 265.336 203.479 265.319 203.514C265.019 204.107 264.306 205.121 263.086 204.708C262.297 204.441 261.999 203.533 261.888 202.969C261.88 202.93 261.882 202.889 261.895 202.851C261.907 202.814 261.928 202.781 261.957 202.756C261.985 202.732 262.019 202.718 262.055 202.714C262.09 202.711 262.126 202.719 262.158 202.738Z" fill="white"/>
<path d="M262.1 198.18C262.344 198.18 262.542 197.959 262.542 197.685C262.542 197.412 262.344 197.19 262.1 197.19C261.856 197.19 261.659 197.412 261.659 197.685C261.659 197.959 261.856 198.18 262.1 198.18Z" fill="#0C0C0C"/>
<path d="M266.343 199.013C266.587 199.013 266.785 198.792 266.785 198.518C266.785 198.245 266.587 198.023 266.343 198.023C266.099 198.023 265.902 198.245 265.902 198.518C265.902 198.792 266.099 199.013 266.343 199.013Z" fill="#0C0C0C"/>
<path d="M253.196 234.935H253.205C253.223 234.932 253.239 234.921 253.25 234.905C253.261 234.889 253.265 234.868 253.263 234.848L252.482 226.029C252.481 226.019 252.478 226.009 252.474 226.001C252.47 225.992 252.464 225.984 252.456 225.978C252.449 225.972 252.441 225.968 252.432 225.965C252.423 225.963 252.414 225.962 252.406 225.964C252.397 225.965 252.388 225.969 252.38 225.974C252.373 225.979 252.366 225.985 252.36 225.993C252.355 226.002 252.351 226.011 252.349 226.02C252.347 226.03 252.346 226.04 252.347 226.05L253.128 234.87C253.13 234.888 253.138 234.905 253.151 234.917C253.164 234.929 253.18 234.935 253.196 234.935Z" fill="#0C0C0C"/>
<path d="M252.176 228.218H244.209V239.177H252.176V228.218Z" fill="white"/>
<path d="M248.914 233.698C248.914 232.974 249.105 232.267 249.464 231.665C249.822 231.063 250.332 230.594 250.928 230.317C251.525 230.041 252.181 229.968 252.813 230.11C253.446 230.251 254.028 230.6 254.484 231.111C254.94 231.623 255.251 232.275 255.377 232.985C255.502 233.695 255.438 234.431 255.191 235.099C254.944 235.768 254.525 236.339 253.989 236.741C253.452 237.143 252.821 237.358 252.176 237.358C251.311 237.357 250.482 236.971 249.87 236.285C249.258 235.598 248.914 234.668 248.914 233.698ZM250.25 233.698C250.25 234.125 250.363 234.543 250.574 234.898C250.786 235.253 251.087 235.53 251.439 235.694C251.791 235.857 252.178 235.9 252.552 235.817C252.926 235.733 253.269 235.528 253.538 235.225C253.808 234.923 253.991 234.538 254.065 234.119C254.14 233.7 254.102 233.266 253.956 232.871C253.81 232.476 253.563 232.139 253.246 231.901C252.93 231.664 252.557 231.537 252.176 231.537C251.665 231.538 251.176 231.766 250.815 232.171C250.454 232.576 250.25 233.125 250.25 233.698Z" fill="white"/>
<path d="M252.113 235.054C252.139 234.869 252.224 234.7 252.35 234.577C252.477 234.454 252.638 234.385 252.806 234.382C252.801 234.375 252.798 234.366 252.796 234.357L252.559 234.3C252.393 234.263 252.244 234.163 252.137 234.018C252.029 233.872 251.97 233.689 251.969 233.5C251.971 233.381 251.996 233.265 252.042 233.158C252.089 233.052 252.156 232.958 252.239 232.884C252.322 232.811 252.418 232.758 252.521 232.731C252.624 232.704 252.731 232.703 252.834 232.728L253.394 232.864C253.394 232.862 253.394 232.859 253.394 232.857C253.395 232.852 253.397 232.847 253.399 232.842C253.253 232.765 253.135 232.635 253.063 232.473C252.992 232.311 252.971 232.127 253.005 231.95C253.066 231.486 253.563 231.333 253.927 231.421L255.377 231.713L254.887 231.349C254.733 231.229 254.625 231.048 254.585 230.842C254.545 230.636 254.577 230.421 254.673 230.24C254.725 230.148 254.794 230.07 254.874 230.009C254.954 229.948 255.045 229.907 255.14 229.886C255.236 229.866 255.334 229.868 255.428 229.892C255.523 229.915 255.612 229.96 255.691 230.024L261.535 237.524L260.237 236.864C259.834 237.528 259.264 238.043 258.599 238.341C257.934 238.639 257.205 238.708 256.505 238.538L253.336 237.764C253.17 237.727 253.021 237.627 252.914 237.482C252.806 237.336 252.747 237.153 252.746 236.964C252.748 236.793 252.799 236.628 252.891 236.492C252.983 236.356 253.111 236.257 253.257 236.208C253.253 236.196 253.251 236.183 253.253 236.17C253.254 236.158 253.259 236.146 253.265 236.137C253.272 236.127 253.281 236.119 253.291 236.114L252.706 235.973C252.522 235.932 252.358 235.815 252.248 235.644C252.138 235.474 252.089 235.263 252.113 235.054Z" fill="#E98862"/>
<path opacity="0.2" d="M254.452 233.128C254.468 233.124 254.481 233.115 254.491 233.101C254.501 233.088 254.506 233.07 254.506 233.053C254.505 233.036 254.5 233.019 254.489 233.005C254.479 232.992 254.465 232.983 254.45 232.98L253.471 232.794C253.462 232.792 253.453 232.792 253.444 232.794C253.435 232.796 253.427 232.8 253.419 232.806C253.412 232.812 253.406 232.819 253.401 232.827C253.396 232.836 253.393 232.846 253.391 232.856C253.39 232.866 253.39 232.876 253.392 232.886C253.394 232.895 253.398 232.905 253.403 232.913C253.409 232.921 253.415 232.928 253.423 232.933C253.431 232.938 253.44 232.941 253.449 232.943L254.428 233.129C254.436 233.13 254.444 233.13 254.452 233.128Z" fill="#0C0C0C"/>
<path opacity="0.2" d="M254.216 234.681C254.231 234.677 254.245 234.668 254.255 234.654C254.265 234.641 254.27 234.624 254.269 234.606C254.269 234.589 254.264 234.572 254.254 234.559C254.243 234.545 254.23 234.536 254.214 234.533L252.873 234.266C252.864 234.264 252.855 234.264 252.846 234.266C252.837 234.268 252.829 234.271 252.821 234.277C252.814 234.283 252.807 234.29 252.802 234.298C252.797 234.307 252.794 234.317 252.792 234.327C252.79 234.337 252.791 234.347 252.793 234.357C252.795 234.367 252.799 234.376 252.804 234.384C252.81 234.393 252.816 234.4 252.824 234.405C252.832 234.41 252.841 234.413 252.85 234.415L254.191 234.681C254.199 234.683 254.208 234.683 254.216 234.681Z" fill="#0C0C0C"/>
<path opacity="0.2" d="M253.97 236.365C253.985 236.361 253.999 236.351 254.009 236.337C254.019 236.324 254.024 236.306 254.023 236.289C254.023 236.271 254.017 236.254 254.006 236.241C253.996 236.228 253.982 236.219 253.966 236.217L253.33 236.107C253.313 236.106 253.296 236.111 253.283 236.123C253.269 236.135 253.26 236.152 253.258 236.171C253.255 236.19 253.259 236.209 253.269 236.225C253.279 236.241 253.293 236.252 253.31 236.256L253.946 236.365C253.954 236.367 253.962 236.367 253.97 236.365Z" fill="#0C0C0C"/>
<path d="M286.999 234.127C283.414 239.909 278.262 244.241 272.308 246.478L272.305 246.476C270.983 246.186 258.367 240.599 256.698 240.232L258.524 230.678C263.213 231.724 271.764 235.758 276.479 236.808L273.153 219.892C273.032 219.145 273.045 218.378 273.191 217.636C273.336 216.895 273.612 216.193 274.001 215.572C274.39 214.951 274.886 214.422 275.459 214.017C276.031 213.612 276.67 213.339 277.338 213.213C278.005 213.087 278.689 213.111 279.348 213.284C280.007 213.456 280.63 213.774 281.179 214.218C281.728 214.662 282.193 215.224 282.547 215.872C282.901 216.519 283.137 217.239 283.241 217.989L286.999 234.127Z" fill="#EA394A"/>
<path d="M280.053 238.054C280.07 238.053 280.087 238.046 280.099 238.033C280.111 238.02 280.119 238.002 280.12 237.983C280.121 237.964 280.116 237.945 280.106 237.93C280.095 237.915 280.08 237.905 280.064 237.901L276.518 236.553C276.509 236.551 276.5 236.551 276.492 236.554C276.483 236.556 276.475 236.56 276.467 236.566C276.46 236.572 276.454 236.58 276.449 236.589C276.445 236.597 276.442 236.607 276.441 236.617C276.438 236.637 276.443 236.657 276.453 236.674C276.464 236.69 276.48 236.701 276.498 236.704L280.043 238.053C280.047 238.053 280.05 238.054 280.053 238.054Z" fill="#0C0C0C"/>
<path d="M276.573 236.617C276.575 236.641 276.568 236.665 276.555 236.684C276.547 236.692 276.537 236.698 276.527 236.702C276.517 236.705 276.506 236.706 276.495 236.704L258.638 230.793L256.848 240.196L272.226 246.506C272.178 246.524 272.128 246.542 272.08 246.559C272.046 246.572 272.012 246.585 271.976 246.595L256.748 240.325C256.731 240.319 256.716 240.307 256.707 240.29C256.698 240.273 256.695 240.252 256.698 240.233L258.524 230.679C258.527 230.669 258.53 230.66 258.536 230.652C258.541 230.644 258.548 230.638 258.556 230.633C258.564 230.627 258.572 230.623 258.581 230.621C258.59 230.62 258.6 230.62 258.608 230.623L276.423 236.542L274.406 227.216C274.404 227.196 274.408 227.176 274.419 227.16C274.429 227.143 274.445 227.133 274.463 227.129C274.472 227.127 274.481 227.127 274.49 227.129C274.498 227.132 274.507 227.135 274.514 227.141C274.522 227.147 274.528 227.154 274.533 227.163C274.538 227.171 274.541 227.18 274.543 227.19L276.573 236.617Z" fill="#0C0C0C"/>
<path d="M43.7127 224.431C43.6961 224.431 43.6796 224.427 43.6643 224.42C43.6492 224.413 43.6355 224.402 43.624 224.389C43.6124 224.376 43.6033 224.361 43.5971 224.344C43.5909 224.327 43.5878 224.308 43.5879 224.29C43.588 224.272 43.5913 224.253 43.5977 224.237L48.4869 211.203C48.4997 211.169 48.5242 211.141 48.5549 211.127C48.5855 211.114 48.6199 211.114 48.6504 211.128C48.6809 211.143 48.7051 211.17 48.7175 211.204C48.73 211.239 48.7298 211.277 48.7169 211.312L43.8277 224.345C43.8182 224.37 43.8023 224.392 43.7818 224.407C43.7613 224.423 43.7373 224.431 43.7127 224.431Z" fill="#0C0C0C"/>
<path d="M72.482 224.579H72.4765C72.4601 224.58 72.4438 224.577 72.4284 224.571C72.413 224.564 72.3988 224.555 72.3867 224.542C72.3746 224.53 72.3648 224.515 72.3579 224.498C72.3509 224.482 72.347 224.464 72.3462 224.445L71.8013 211.115C71.8009 211.078 71.8129 211.042 71.8349 211.015C71.857 210.988 71.8874 210.971 71.9201 210.968C71.9364 210.967 71.9528 210.97 71.9683 210.976C71.9837 210.983 71.9979 210.992 72.01 211.005C72.0221 211.017 72.0319 211.032 72.0389 211.049C72.0459 211.065 72.0498 211.083 72.0506 211.102L72.5955 224.432C72.5971 224.469 72.5862 224.504 72.565 224.531C72.5439 224.559 72.5141 224.576 72.482 224.579Z" fill="#0C0C0C"/>
<g opacity="0.25">
<path d="M86.7834 281.582C157.172 329.399 258.601 285.735 321.263 227.722C381.405 172.043 410.652 27.4612 302.113 3.79473C256.919 -6.05934 236.367 4.21742 203.084 23.7876C176.214 39.5873 139.294 32.1087 112.592 17.9462C74.8347 -2.07896 28.3029 27.0473 8.38159 70.9709C-16.0235 124.798 13.6905 231.927 86.7834 281.582Z" fill="#EEE8D8"/>
<path d="M321.093 227.539C289.786 256.524 248.796 281.92 206.851 294.098C164.906 306.276 122.036 305.228 86.9239 281.375C50.4317 256.585 24.7584 217.439 11.2574 177.761C-2.24618 138.075 -3.5569 97.9076 8.60927 71.0741C18.5497 49.157 35.1273 30.9377 53.9179 20.6973C72.7059 10.4582 93.6875 8.20296 112.475 18.167C139.206 32.3451 176.229 39.8684 203.211 24.0031C219.854 14.2168 233.285 6.77325 248.193 2.99943C263.094 -0.772423 279.49 -0.88211 302.06 4.03899C329.136 9.94277 347.601 23.3811 359.143 41.0743C370.69 58.7731 375.324 80.7504 374.694 103.747C373.433 149.748 351.111 199.748 321.093 227.539Z" stroke="black" stroke-opacity="0.25" stroke-width="0.5"/>
</g>
</svg>
