<svg width="24" height="24" viewBox="0 0 24 24" fill="none" xmlns="http://www.w3.org/2000/svg">
<path d="M5.25 11.25H20.25C20.4489 11.25 20.6397 11.329 20.7803 11.4697C20.921 11.6103 21 11.8011 21 12C21 12.1989 20.921 12.3897 20.7803 12.5303C20.6397 12.671 20.4489 12.75 20.25 12.75H5.25C5.05109 12.75 4.86032 12.671 4.71967 12.5303C4.57902 12.3897 4.5 12.1989 4.5 12C4.5 11.8011 4.57902 11.6103 4.71967 11.4697C4.86032 11.329 5.05109 11.25 5.25 11.25Z" fill="white"/>
<path d="M4.5605 12L10.781 18.219C10.9218 18.3598 11.0009 18.5508 11.0009 18.75C11.0009 18.9491 10.9218 19.1401 10.781 19.281C10.6402 19.4218 10.4492 19.5009 10.25 19.5009C10.0508 19.5009 9.85983 19.4218 9.719 19.281L2.969 12.531C2.89915 12.4613 2.84374 12.3785 2.80593 12.2874C2.76812 12.1963 2.74866 12.0986 2.74866 12C2.74866 11.9013 2.76812 11.8036 2.80593 11.7125C2.84374 11.6214 2.89915 11.5386 2.969 11.469L9.719 4.71897C9.85983 4.57814 10.0508 4.49902 10.25 4.49902C10.4492 4.49902 10.6402 4.57814 10.781 4.71897C10.9218 4.8598 11.0009 5.05081 11.0009 5.24997C11.0009 5.44913 10.9218 5.64014 10.781 5.78097L4.5605 12Z" fill="white"/>
</svg>
