<svg width="25" height="24" viewBox="0 0 25 24" fill="none" xmlns="http://www.w3.org/2000/svg">
<path d="M20.0082 14.49C20.6621 13.2618 21.003 11.8914 21.0007 10.5C21.0007 5.8055 17.1952 2 12.5007 2C7.80624 2 4.00074 5.8055 4.00074 10.5C3.9973 12.5051 4.70609 14.4463 6.00074 15.9775L6.01075 15.99C6.01425 15.993 6.01724 15.997 6.01974 16H6.00074L11.0447 21.355C11.2317 21.5535 11.4573 21.7116 11.7077 21.8197C11.958 21.9278 12.2278 21.9836 12.5005 21.9836C12.7732 21.9836 13.043 21.9278 13.2933 21.8197C13.5437 21.7116 13.7693 21.5535 13.9562 21.355L19.0007 16H18.9817L18.9897 15.9905L18.9907 15.9895C19.0267 15.9465 19.0627 15.9035 19.0982 15.8595C19.4451 15.4333 19.7498 14.9749 20.0082 14.49ZM12.5032 13.7495C11.7076 13.7495 10.9445 13.4334 10.3819 12.8708C9.81932 12.3082 9.50324 11.5451 9.50324 10.7495C9.50324 9.95385 9.81932 9.19079 10.3819 8.62818C10.9445 8.06557 11.7076 7.7495 12.5032 7.7495C13.2989 7.7495 14.062 8.06557 14.6246 8.62818C15.1872 9.19079 15.5032 9.95385 15.5032 10.7495C15.5032 11.5451 15.1872 12.3082 14.6246 12.8708C14.062 13.4334 13.2989 13.7495 12.5032 13.7495Z" fill="#0881A3"/>
</svg>
