<svg width="24" height="24" viewBox="0 0 24 24" fill="none" xmlns="http://www.w3.org/2000/svg">
<path d="M15.2896 14.677C15.1428 14.629 14.2151 14.2108 14.7948 12.4487H14.7865C16.2976 10.8923 17.4524 8.38804 17.4524 5.9225C17.4524 2.13143 14.9314 0.144043 12.0016 0.144043C9.0699 0.144043 6.56282 2.1305 6.56282 5.9225C6.56282 8.3982 7.71113 10.9127 9.23144 12.4653C9.82405 14.0197 8.76436 14.5967 8.54282 14.6779C5.47451 15.7874 1.87451 17.8099 1.87451 19.8065V20.5551C1.87451 23.2754 7.14897 23.8939 12.0302 23.8939C16.9188 23.8939 22.1268 23.2754 22.1268 20.5551V19.8065C22.1268 17.7499 18.5093 15.7431 15.2896 14.677Z" fill="#0881A3"/>
</svg>
