<svg width="18" height="17" viewBox="0 0 18 17" fill="none" xmlns="http://www.w3.org/2000/svg">
<path d="M12.5567 10.906L12.1017 11.359C12.1017 11.359 11.0187 12.435 8.06373 9.49698C5.10873 6.55898 6.19173 5.48298 6.19173 5.48298L6.47773 5.19698C7.18473 4.49498 7.25173 3.36698 6.63473 2.54298L5.37473 0.859979C4.61073 -0.160021 3.13573 -0.29502 2.26073 0.57498L0.690734 2.13498C0.257734 2.56698 -0.0322661 3.12498 0.00273393 3.74498C0.0927339 5.33198 0.810734 8.74498 4.81473 12.727C9.06173 16.949 13.0467 17.117 14.6757 16.965C15.1917 16.917 15.6397 16.655 16.0007 16.295L17.4207 14.883C18.3807 13.93 18.1107 12.295 16.8827 11.628L14.9727 10.589C14.1667 10.152 13.1867 10.28 12.5567 10.906Z" fill="#0881A3"/>
</svg>
