<svg width="8" height="10" viewBox="0 0 8 10" fill="none" xmlns="http://www.w3.org/2000/svg">
<path fill-rule="evenodd" clip-rule="evenodd" d="M0.5 9H7.5C7.63261 9 7.75979 9.05268 7.85355 9.14645C7.94732 9.24021 8 9.36739 8 9.5C8 9.63261 7.94732 9.75979 7.85355 9.85355C7.75979 9.94732 7.63261 10 7.5 10H0.5C0.367392 10 0.240215 9.94732 0.146447 9.85355C0.0526785 9.75979 0 9.63261 0 9.5C0 9.36739 0.0526785 9.24021 0.146447 9.14645C0.240215 9.05268 0.367392 9 0.5 9ZM0 6.5L5 1.5L6.5 3L1.5 8H0V6.5ZM5.5 1L6.5 0L8 1.5L6.9995 2.5005L5.5 1Z" fill="#0881A3"/>
</svg>
