<svg width="20" height="22" viewBox="0 0 20 22" fill="none" xmlns="http://www.w3.org/2000/svg">
<path d="M20 12C20 17.523 15.523 22 10 22C4.477 22 2.81829e-06 17.523 2.81829e-06 12C-0.00116364 10.4473 0.359775 8.91581 1.05414 7.52707C1.74851 6.13833 2.75718 4.93066 4 4V6.71C2.98176 7.86477 2.31836 9.28883 2.0894 10.8113C1.86044 12.3337 2.07566 13.8899 2.70922 15.2931C3.34277 16.6963 4.36776 17.8869 5.66119 18.7219C6.95461 19.557 8.46153 20.0011 10.0011 20.001C11.5407 20.0009 13.0475 19.5565 14.3408 18.7212C15.6341 17.8859 16.6589 16.6952 17.2922 15.2919C17.9255 13.8886 18.1405 12.3324 17.9113 10.81C17.6821 9.28755 17.0184 7.8636 16 6.709V3.999C17.243 4.92976 18.2517 6.13759 18.9461 7.52652C19.6405 8.91544 20.0013 10.4472 20 12ZM14 5H11L11 13H9L9 5L6 5L10 1.3113e-06L14 5Z" fill="white"/>
</svg>
