<svg width="13" height="12" viewBox="0 0 13 12" fill="none" xmlns="http://www.w3.org/2000/svg">
<path d="M6.5 0L6.19125 0.125357L0.50375 2.17286L0 2.35393V2.78571C0 5.09786 1.08875 7.13143 2.38875 8.62179C3.03875 9.36 3.7375 9.97286 4.42 10.4046C5.1025 10.8364 5.76875 11.1429 6.5 11.1429C7.2475 11.1429 7.8975 10.8364 8.58 10.4046C9.2625 9.97286 9.96125 9.36 10.6113 8.62179C11.9113 7.13143 13 5.09786 13 2.78571V2.35393L12.4963 2.17286L6.80875 0.125357L6.5 0ZM6.5 1.51821V9.75C6.435 9.75 5.96375 9.6525 5.4275 9.31821C4.89125 8.98393 4.27375 8.44071 3.705 7.8C2.665 6.61607 1.8525 4.9725 1.7225 3.23143L6.5 1.53214V1.51821Z" fill="#9AB6BE"/>
</svg>
