<svg width="358" height="224" viewBox="0 0 358 224" fill="none" xmlns="http://www.w3.org/2000/svg">
<path d="M56.0077 207.855C56.0077 207.855 5.18564 186.422 0.282169 129.477C-4.62131 72.531 56.0077 69.4692 56.0077 69.4692C56.0077 69.4692 100.139 68.9796 138.675 61.5117C177.211 54.0438 220.682 25.9984 220.682 25.9984C220.682 25.9984 292.983 -9.14192 327.89 54.0438C362.797 117.23 326.243 188.008 286.572 201.459C253.895 212.54 170.497 241.231 56.0077 207.855Z" fill="#EEE8D8"/>
<path d="M237.91 179.979C244.309 179.979 249.497 177.102 249.497 173.553C249.497 170.004 244.309 167.126 237.91 167.126C231.511 167.126 226.324 170.004 226.324 173.553C226.324 177.102 231.511 179.979 237.91 179.979Z" fill="#17586E"/>
<path d="M325.823 72.3141L331.892 104.385C332.203 106.025 334.34 106.46 335.273 105.076L343.129 93.4045L356.651 89.5035C358.252 89.0372 358.492 86.8691 357.024 86.0687L328.357 70.4724C327.074 69.773 325.551 70.8842 325.823 72.3141Z" fill="#C1AF92"/>
<path d="M249.078 56.5237C254.155 56.5237 258.271 52.4078 258.271 47.3306C258.271 42.2534 254.155 38.1376 249.078 38.1376C244 38.1376 239.885 42.2534 239.885 47.3306C239.885 52.4078 244 56.5237 249.078 56.5237Z" fill="#17586E"/>
<path d="M15.4812 182.598C23.0434 182.598 29.1737 176.468 29.1737 168.906C29.1737 161.344 23.0434 155.213 15.4812 155.213C7.91913 155.213 1.78882 161.344 1.78882 168.906C1.78882 176.468 7.91913 182.598 15.4812 182.598Z" fill="#17586E"/>
<path d="M92.3446 38.0739C92.0105 36.7528 89.4849 36.1778 86.0968 36.4575C85.4362 36.5119 84.8146 36.1389 84.5503 35.5328C83.1904 32.4166 81.4886 30.4583 80.1753 30.7925C78.8542 31.1266 78.2792 33.6522 78.5589 37.0403C78.6133 37.7009 78.2403 38.3226 77.6342 38.5868C74.518 39.9467 72.5598 41.6485 72.8939 42.9618C73.2281 44.2829 75.7536 44.8579 79.1418 44.5782C79.8023 44.5238 80.424 44.8968 80.6882 45.5029C82.0481 48.6191 83.7499 50.5773 85.0632 50.2432C86.3765 49.909 86.9593 47.3835 86.6796 43.9953C86.6252 43.3348 86.9982 42.7131 87.6043 42.4489C90.7205 41.0968 92.6788 39.3949 92.3446 38.0739Z" fill="#C1AF92"/>
<path d="M266.602 97.2235C266.602 97.2235 266.602 94.5142 262.689 90.7592C258.776 87.0042 256.294 84.826 256.294 84.826C256.294 84.826 254.349 91.0247 257.971 94.8014C260.63 97.4539 263.513 99.8862 266.59 102.073L266.602 97.2235Z" fill="#17586E"/>
<path d="M260.956 114.053C260.956 114.053 260.956 111.344 257.043 107.589C253.13 103.834 250.66 101.656 250.66 101.656C250.66 101.656 248.709 107.855 252.337 111.631C254.996 114.284 257.879 116.716 260.956 118.903V114.053Z" fill="#17586E"/>
<path d="M266.356 101.813C266.356 101.813 266.652 99.1362 270.934 95.7822C275.216 92.4282 277.938 90.5426 277.938 90.5426C277.938 90.5426 279.196 96.9038 275.194 100.296C272.261 102.662 269.129 104.786 265.831 106.646L266.356 101.813Z" fill="#17586E"/>
<path d="M259.537 121.688C259.537 121.688 260.096 119.054 264.741 116.156C269.386 113.257 272.271 111.658 272.271 111.658C272.271 111.658 272.83 118.117 268.486 121.07C265.313 123.125 261.968 124.919 258.486 126.434L259.537 121.688Z" fill="#17586E"/>
<path d="M260.817 143.362C260.817 143.362 260.817 140.653 264.73 136.892C268.643 133.132 271.119 130.964 271.119 130.964C271.119 130.964 273.07 137.163 269.442 140.934C266.784 143.589 263.901 146.024 260.823 148.211L260.817 143.362Z" fill="#17586E"/>
<path d="M260.755 148.65C260.755 148.65 261.147 145.984 257.849 141.715C254.551 137.445 252.387 134.963 252.387 134.963C252.387 134.963 249.553 140.831 252.577 145.063C254.819 148.056 257.315 150.862 260.04 153.451L260.755 148.65Z" fill="#17586E"/>
<path d="M256.915 164.326C256.915 164.326 256.915 161.617 260.828 157.862C264.741 154.107 267.223 151.928 267.223 151.928C267.223 151.928 269.168 158.127 265.546 161.904C262.886 164.557 260.003 166.991 256.926 169.181L256.915 164.326Z" fill="#17586E"/>
<path d="M259.515 178.538C259.515 178.538 258.81 175.932 261.588 171.326C264.367 166.721 266.228 164.022 266.228 164.022C266.228 164.022 269.727 169.538 267.217 174.079C265.34 177.298 263.188 180.359 260.783 183.231L259.515 178.538Z" fill="#17586E"/>
<path d="M266.955 96.5354C266.759 99.3408 266.404 102.134 265.893 104.901C264.35 112.607 260.504 117.581 258.967 124.538C257.429 131.495 261.845 140.463 260.644 149.403C259.442 158.344 255.875 163.313 256.898 169.278C257.921 175.244 263.31 191.402 263.31 191.402" stroke="#263238" stroke-linecap="round" stroke-linejoin="round"/>
<path d="M266.323 103.606L270.515 100.485" stroke="#263238" stroke-linecap="round" stroke-linejoin="round"/>
<path d="M266.518 100.014L264.758 96.9851" stroke="#263238" stroke-linecap="round" stroke-linejoin="round"/>
<path d="M259.202 124.218C259.202 124.218 262.712 121.666 266.323 119.114" stroke="#263238" stroke-linecap="round" stroke-linejoin="round"/>
<path d="M260.957 118.903C260.957 118.903 258.027 113.343 254.713 109.659" stroke="#263238" stroke-linecap="round" stroke-linejoin="round"/>
<path d="M260.957 147.198C262.959 143.611 265.49 140.325 268.469 137.445" stroke="#263238" stroke-linecap="round" stroke-linejoin="round"/>
<path d="M260.275 150.98C259.21 148.548 257.936 146.206 256.468 143.979C254.422 141.048 254.126 140.669 254.126 140.669" stroke="#263238" stroke-linecap="round" stroke-linejoin="round"/>
<path d="M256.915 169.278C257.807 167.143 258.864 165.076 260.079 163.096C261.295 161.255 262.665 159.516 264.177 157.894" stroke="#263238" stroke-linecap="round" stroke-linejoin="round"/>
<path d="M260.783 183.231C260.579 181.189 260.942 179.131 261.834 177.27C263.298 174.529 264.953 170.936 265.635 169.517" stroke="#263238" stroke-linecap="round" stroke-linejoin="round"/>
<path d="M234.84 133.229C234.84 133.229 234.539 131.539 236.557 128.759C238.575 125.979 239.91 124.37 239.91 124.37C239.91 124.37 241.822 128.055 239.978 130.796C238.608 132.741 237.072 134.572 235.388 136.269L234.84 133.229Z" fill="#17586E"/>
<path d="M240.268 143.188C240.268 143.188 239.966 141.498 241.984 138.718C244.002 135.938 245.338 134.329 245.338 134.329C245.338 134.329 247.25 138.014 245.405 140.761C244.034 142.703 242.499 144.532 240.816 146.228L240.268 143.188Z" fill="#17586E"/>
<path d="M235.506 136.079C235.506 136.079 235.025 134.454 231.962 132.779C228.899 131.105 226.987 130.227 226.987 130.227C226.987 130.227 226.909 134.351 229.782 136.052C231.885 137.226 234.086 138.228 236.361 139.049L235.506 136.079Z" fill="#17586E"/>
<path d="M242.012 147.827C242.012 147.827 241.353 146.234 238.133 144.901C234.913 143.568 232.901 142.874 232.901 142.874C232.901 142.874 233.27 146.981 236.333 148.379C238.553 149.333 240.851 150.105 243.203 150.688L242.012 147.827Z" fill="#17586E"/>
<path d="M243.633 161.552C243.633 161.552 243.337 159.861 240.469 157.905C237.602 155.949 235.796 154.86 235.796 154.86C235.796 154.86 235.271 158.951 237.959 160.934C239.924 162.32 242.005 163.544 244.181 164.591L243.633 161.552Z" fill="#17586E"/>
<path d="M244.271 164.862C244.271 164.862 243.712 163.237 245.316 160.202C246.92 157.168 247.982 155.396 247.982 155.396C247.982 155.396 250.414 158.777 248.994 161.752C247.924 163.864 246.673 165.885 245.254 167.794L244.271 164.862Z" fill="#17586E"/>
<path d="M249.156 178.49C249.156 178.49 249.357 176.788 252.102 174.697C254.846 172.605 256.574 171.397 256.574 171.397C256.574 171.397 257.339 175.455 254.774 177.585C252.894 179.075 250.89 180.411 248.781 181.578L249.156 178.49Z" fill="#17586E"/>
<path d="M248.424 174.285C248.424 174.285 248.122 172.594 245.26 170.638C242.398 168.682 240.598 167.593 240.598 167.593C240.598 167.593 240.073 171.684 242.761 173.673C244.727 175.057 246.808 176.28 248.983 177.33L248.424 174.285Z" fill="#17586E"/>
<path d="M248.424 183.475C248.424 183.475 248.569 181.762 246.311 179.167C244.053 176.572 242.588 175.076 242.588 175.076C242.588 175.076 241.006 178.901 243.091 181.486C244.62 183.306 246.302 184.999 248.122 186.547L248.424 183.475Z" fill="#17586E"/>
<path d="M234.544 132.828C234.982 134.568 235.517 136.282 236.149 137.965C237.977 142.636 240.945 145.35 242.689 149.55C244.433 153.749 242.689 159.845 244.411 165.323C246.132 170.801 248.983 173.543 248.983 177.39C248.983 181.237 247.44 191.938 247.44 191.938" stroke="#263238" stroke-linecap="round" stroke-linejoin="round"/>
<path d="M235.735 137.196L232.755 135.684" stroke="#263238" stroke-linecap="round" stroke-linejoin="round"/>
<path d="M235.209 134.963L235.97 132.882" stroke="#263238" stroke-linecap="round" stroke-linejoin="round"/>
<path d="M242.504 149.376C242.504 149.376 240.017 148.146 237.473 146.922" stroke="#263238" stroke-linecap="round" stroke-linejoin="round"/>
<path d="M240.811 146.228C241.544 143.996 242.508 141.841 243.689 139.796" stroke="#263238" stroke-linecap="round" stroke-linejoin="round"/>
<path d="M243.98 163.968C242.321 161.934 240.366 160.143 238.177 158.653" stroke="#263238" stroke-linecap="round" stroke-linejoin="round"/>
<path d="M244.83 166.266C245.228 164.631 245.764 163.03 246.434 161.481C247.39 159.427 247.552 159.157 247.552 159.157" stroke="#263238" stroke-linecap="round" stroke-linejoin="round"/>
<path d="M248.849 180.31C249.818 179.146 250.892 178.067 252.058 177.086C252.799 176.557 253.495 175.97 254.137 175.331" stroke="#263238" stroke-linecap="round" stroke-linejoin="round"/>
<path d="M248.983 177.39C248.184 176.141 247.289 174.953 246.306 173.835C245.337 172.81 244.282 171.864 243.153 171.007" stroke="#263238" stroke-linecap="round" stroke-linejoin="round"/>
<path d="M248.122 186.547C248.022 185.244 247.565 183.991 246.798 182.916C245.573 181.351 244.131 179.27 243.544 178.452" stroke="#263238" stroke-linecap="round" stroke-linejoin="round"/>
<path d="M76.0704 109.626L73.6221 102.848L76.0704 105.725L74.1475 95.5546L77.1213 102.848L78.1722 88.6027L79.9219 102.165L81.8448 99.4559V102.848L84.1199 98.2692L82.8957 106.234L84.9919 104.88L81.6715 109.285L76.0704 109.626Z" fill="#17586E"/>
<path d="M83.7676 107.93H74.6729L76.3107 125.73H82.1298L83.7676 107.93Z" fill="#263238" stroke="#263238" stroke-linecap="round" stroke-linejoin="round"/>
<path d="M100.829 125.53H69.8438V189.142H100.829V125.53Z" fill="white" stroke="#263238" stroke-linecap="round" stroke-linejoin="round"/>
<path d="M102.522 125.53H85.333V189.142H102.522V125.53Z" fill="white" stroke="#263238" stroke-linecap="round" stroke-linejoin="round"/>
<path d="M100.588 125.53H85.333V189.142H100.588V125.53Z" fill="#263238" stroke="#263238" stroke-linecap="round" stroke-linejoin="round"/>
<path d="M98.8717 174.35H85.333V187.376H98.8717V174.35Z" fill="#17586E" stroke="#263238" stroke-linecap="round" stroke-linejoin="round"/>
<path d="M98.8717 175.054H85.333V176.723H98.8717V175.054Z" fill="white" stroke="#263238" stroke-linecap="round" stroke-linejoin="round"/>
<path d="M98.8717 184.645H85.333V186.314H98.8717V184.645Z" fill="white" stroke="#263238" stroke-linecap="round" stroke-linejoin="round"/>
<path d="M87.8989 174.621V191.093" stroke="#263238" stroke-linecap="round" stroke-linejoin="round"/>
<path d="M92.6226 174.621V191.093" stroke="#263238" stroke-linecap="round" stroke-linejoin="round"/>
<path d="M96.7703 174.621V191.093" stroke="#263238" stroke-linecap="round" stroke-linejoin="round"/>
<path d="M98.8717 127.892H85.333V147.046H98.8717V127.892Z" fill="#17586E" stroke="#263238" stroke-linecap="round" stroke-linejoin="round"/>
<path d="M98.8717 128.694H85.333V130.59H98.8717V128.694Z" fill="white" stroke="#263238" stroke-linecap="round" stroke-linejoin="round"/>
<path d="M98.8717 140.972H85.333V142.869H98.8717V140.972Z" fill="white" stroke="#263238" stroke-linecap="round" stroke-linejoin="round"/>
<path d="M87.8989 128.195V146.916" stroke="#263238" stroke-linecap="round" stroke-linejoin="round"/>
<path d="M92.6226 128.195V146.916" stroke="#263238" stroke-linecap="round" stroke-linejoin="round"/>
<path d="M96.7703 128.195V146.916" stroke="#263238" stroke-linecap="round" stroke-linejoin="round"/>
<path d="M98.8717 150.975H85.333V170.129H98.8717V150.975Z" fill="#17586E" stroke="#263238" stroke-linecap="round" stroke-linejoin="round"/>
<path d="M98.8717 151.777H85.333V153.673H98.8717V151.777Z" fill="white" stroke="#263238" stroke-linecap="round" stroke-linejoin="round"/>
<path d="M98.8717 164.055H85.333V165.951H98.8717V164.055Z" fill="white" stroke="#263238" stroke-linecap="round" stroke-linejoin="round"/>
<path d="M87.8989 151.284V169.999" stroke="#263238" stroke-linecap="round" stroke-linejoin="round"/>
<path d="M92.6226 151.284V169.999" stroke="#263238" stroke-linecap="round" stroke-linejoin="round"/>
<path d="M96.7703 151.284V169.999" stroke="#263238" stroke-linecap="round" stroke-linejoin="round"/>
<path d="M100.823 146.781H85.333V148.959H100.823V146.781Z" fill="white" stroke="#263238" stroke-linecap="round" stroke-linejoin="round"/>
<path d="M100.823 170.01H85.333V172.188H100.823V170.01Z" fill="white" stroke="#263238" stroke-linecap="round" stroke-linejoin="round"/>
<path d="M100.823 125.53V189.137" stroke="#263238" stroke-linecap="round" stroke-linejoin="round"/>
<path d="M83.1475 125.53V189.137H85.3331V127.892H100.554V125.502L83.1475 125.53Z" fill="white" stroke="#263238" stroke-linecap="round" stroke-linejoin="round"/>
<path d="M85.333 127.892V125.53" stroke="#263238" stroke-linecap="round" stroke-linejoin="round"/>
<path d="M100.705 96.3078C99.0787 93.2681 98.3967 91.0899 98.3967 90.5859C98.3967 89.5889 100.633 88.9929 100.633 88.9929C104.121 87.2048 120.527 89.7894 127.911 90.9815C132.045 91.68 136.227 92.0785 140.422 92.1735C140.422 92.1735 141.445 91.3824 142.658 90.3855C143.871 89.3885 149.628 82.8321 151.886 82.2578C154.145 81.6834 156.191 83.0543 156.191 83.0543C156.191 83.0543 159.886 85.2217 159.265 85.6389C158.645 86.0561 149.628 93.5878 147.37 94.9803C145.112 96.3729 140.399 95.7768 136.296 96.5733C132.763 97.2561 118.453 98.1013 115.172 98.3614C112.708 98.928 110.121 98.7192 107.788 97.7654" fill="white"/>
<mask id="mask0_33_605" style="mask-type:luminance" maskUnits="userSpaceOnUse" x="98" y="82" width="62" height="17">
<path d="M100.705 96.3078C99.0787 93.2681 98.3967 91.0899 98.3967 90.5859C98.3967 89.5889 100.633 88.9929 100.633 88.9929C104.121 87.2048 120.527 89.7894 127.911 90.9815C132.045 91.68 136.227 92.0785 140.422 92.1735C140.422 92.1735 141.445 91.3824 142.658 90.3855C143.871 89.3885 149.628 82.8321 151.886 82.2578C154.145 81.6834 156.191 83.0543 156.191 83.0543C156.191 83.0543 159.886 85.2217 159.265 85.6389C158.645 86.0561 149.628 93.5878 147.37 94.9803C145.112 96.3729 140.399 95.7768 136.296 96.5733C132.763 97.2561 118.453 98.1013 115.172 98.3614C112.708 98.928 110.121 98.7192 107.788 97.7654" fill="white"/>
</mask>
<g mask="url(#mask0_33_605)">
<path d="M156.23 83.0327C156.23 83.0327 154.178 81.6402 151.926 82.2362C149.673 82.8322 143.926 89.394 142.697 90.3639C141.467 91.3338 140.461 92.152 140.461 92.152C136.266 92.0569 132.084 91.6585 127.95 90.9599C120.566 89.7679 104.16 87.167 100.672 88.9713C100.672 88.9713 98.4358 89.5674 98.4358 90.5644C98.5135 91.1218 98.6618 91.6677 98.8774 92.1899L99.1848 92.2983C99.1848 92.2983 103.282 91.8811 112.125 92.087C120.969 92.2929 141.422 93.4687 142.736 93.9292C143.295 94.1351 147.258 93.2682 151.652 91.7619C155.006 89.1122 158.946 85.8015 159.343 85.5686C159.925 85.2164 156.23 83.0327 156.23 83.0327Z" fill="#17586E"/>
<path opacity="0.5" d="M156.23 83.0327C156.23 83.0327 154.178 81.6402 151.926 82.2362C149.673 82.8322 143.926 89.394 142.697 90.3639C141.467 91.3338 140.461 92.152 140.461 92.152C136.266 92.0569 132.084 91.6585 127.95 90.9599C120.566 89.7679 104.16 87.167 100.672 88.9713C100.672 88.9713 98.4358 89.5674 98.4358 90.5644C98.5135 91.1218 98.6618 91.6677 98.8774 92.1899L99.1848 92.2983C99.1848 92.2983 103.282 91.8811 112.125 92.087C120.969 92.2929 141.422 93.4687 142.736 93.9292C143.295 94.1351 147.258 93.2682 151.652 91.7619C155.006 89.1122 158.946 85.8015 159.343 85.5686C159.925 85.2164 156.23 83.0327 156.23 83.0327Z" fill="white"/>
</g>
<path d="M100.705 96.3078C99.0787 93.2681 98.3967 91.0899 98.3967 90.5859C98.3967 89.5889 100.633 88.9929 100.633 88.9929C104.121 87.2048 120.527 89.7894 127.911 90.9815C132.045 91.68 136.227 92.0785 140.422 92.1735C140.422 92.1735 141.445 91.3824 142.658 90.3855C143.871 89.3885 149.628 82.8321 151.886 82.2578C154.145 81.6834 156.191 83.0543 156.191 83.0543C156.191 83.0543 159.886 85.2217 159.265 85.6389C158.645 86.0561 149.628 93.5878 147.37 94.9803C145.112 96.3729 140.399 95.7768 136.296 96.5733C132.763 97.2561 118.453 98.1013 115.172 98.3614C112.708 98.928 110.121 98.7192 107.788 97.7654" stroke="#263238" stroke-linecap="round" stroke-linejoin="round"/>
<path d="M181.708 113.983C182.079 113.3 182.636 112.729 183.318 112.331C184 111.932 184.781 111.722 185.577 111.723H222.861C222.861 111.723 225.556 111.723 224.751 116.687C223.946 121.65 212.889 151.955 210.217 161.118C207.545 170.281 206.98 189.592 206.98 189.592H162.261C162.261 189.592 165.805 143.41 181.708 113.983Z" fill="white"/>
<mask id="mask1_33_605" style="mask-type:luminance" maskUnits="userSpaceOnUse" x="162" y="111" width="63" height="79">
<path d="M181.708 113.983C182.079 113.3 182.636 112.729 183.318 112.331C184 111.932 184.781 111.722 185.577 111.723H222.861C222.861 111.723 225.556 111.723 224.751 116.687C223.946 121.65 212.889 151.955 210.217 161.118C207.545 170.281 206.98 189.592 206.98 189.592H162.261C162.261 189.592 165.805 143.41 181.708 113.983Z" fill="white"/>
</mask>
<g mask="url(#mask1_33_605)">
<path opacity="0.16" d="M198.5 111.723H185.576C184.78 111.722 183.999 111.932 183.317 112.331C182.636 112.729 182.079 113.3 181.708 113.983C165.805 143.41 162.222 189.576 162.222 189.576H182.278L187.225 171.364L207.852 175.488C207.997 173.96 208.165 172.405 208.361 170.871L207.908 165.995C207.908 165.995 203.682 161.687 202.352 160.609C201.021 159.53 201.904 157.585 201.681 149.181C201.457 140.777 193.676 134.736 190.78 129.561C187.885 124.386 192.34 121.151 196.342 115.977C197.768 114.107 198.349 112.731 198.5 111.723Z" fill="black"/>
</g>
<path d="M181.708 113.983C182.079 113.3 182.636 112.729 183.318 112.331C184 111.932 184.781 111.722 185.577 111.723H222.861C222.861 111.723 225.556 111.723 224.751 116.687C223.946 121.65 212.889 151.955 210.217 161.118C207.545 170.281 206.98 189.592 206.98 189.592H162.261C162.261 189.592 165.805 143.41 181.708 113.983Z" stroke="#263238" stroke-linecap="round" stroke-linejoin="round"/>
<path d="M216.394 120.344C212.626 128.867 204.655 162.608 203.358 189.576H206.958C206.958 189.576 207.517 170.243 210.195 161.102C212.872 151.961 223.94 121.65 224.729 116.67C225.517 111.691 222.839 111.707 222.839 111.707C222.839 111.707 219.418 113.511 216.394 120.344Z" fill="#263238" stroke="#263238" stroke-linecap="round" stroke-linejoin="round"/>
<path d="M150.897 103.308C150.897 103.308 144.95 99.9273 142.697 93.967C140.444 88.0067 160.333 78.4594 168.97 77.8633C177.606 77.2673 180.043 79.4509 185.18 88.0013C190.317 96.5516 193.794 108.277 191.128 114.042C188.462 119.808 183.951 121.2 187.215 125.963C190.48 130.726 199.725 144.25 199.11 150.612C198.495 156.973 192.14 162.532 182.9 163.139C173.66 163.746 161.362 158.365 151.11 149.593C140.858 140.82 143.519 127.919 147.197 123.747C150.875 119.575 156.426 117.982 156.834 113.809C157.242 109.637 150.897 103.308 150.897 103.308Z" fill="#263238" stroke="#263238" stroke-linecap="round" stroke-linejoin="round"/>
<path d="M176.248 93.8749C179.406 99.5752 183.358 107.21 184.593 111.821C186.751 119.894 175.649 124.977 178.729 128.862" stroke="white" stroke-linecap="round" stroke-linejoin="round"/>
<path d="M171.943 86.4083C171.943 86.4083 173.173 88.4402 174.872 91.4312" stroke="white" stroke-linecap="round" stroke-linejoin="round"/>
<path d="M188.511 100.751C188.876 101.819 189.112 102.925 189.216 104.045" stroke="white" stroke-linecap="round" stroke-linejoin="round"/>
<path d="M174.078 83.4444C174.078 83.4444 183.793 90.4017 187.673 98.7299" stroke="white" stroke-linecap="round" stroke-linejoin="round"/>
<path d="M160.596 88.6624C153.659 90.548 143.681 93.6094 144.491 95.3759" stroke="white" stroke-linecap="round" stroke-linejoin="round"/>
<path d="M167.007 87.0043C167.007 87.0043 165.526 87.3619 163.318 87.9363" stroke="white" stroke-linecap="round" stroke-linejoin="round"/>
<path d="M158.427 83.4931C162.401 82.2792 166.562 81.7475 170.725 81.9218" stroke="white" stroke-linecap="round" stroke-linejoin="round"/>
<path d="M155.598 84.6148C156.227 84.2975 156.877 84.0223 157.544 83.7912" stroke="white" stroke-linecap="round" stroke-linejoin="round"/>
<path d="M100.706 96.3078C99.7641 94.6367 99.0143 92.8706 98.4696 91.0411C99.0117 92.8714 99.7616 94.6378 100.706 96.3078ZM98.4081 90.7322C98.4081 90.7647 98.4081 90.8027 98.4081 90.8514C98.4193 90.8027 98.4137 90.7647 98.4081 90.7322ZM100.706 96.3024C102.796 100.141 105.397 103.697 108.442 106.879C115.826 114.633 137.157 134.914 139.186 136.307C141.216 137.699 140.623 141.671 139.186 145.648C137.75 149.626 132.417 155.402 132.624 161.752C132.831 168.102 134.86 177.856 134.675 179.844C134.491 181.833 129.359 188.595 129.359 188.595H182.273C182.273 188.595 175.677 180.467 175.677 177.688C175.677 174.908 184.733 139.292 185.141 136.708C185.549 134.123 183.911 132.335 180.63 132.135C177.349 131.934 164.838 129.35 164.224 127.361C163.609 125.372 167.505 117.819 167.505 117.819L155.207 118.415C155.207 118.415 154.592 123.584 153.77 124.581C152.949 125.578 151.719 123.584 148.846 122.197C145.973 120.81 140.461 119.613 138.387 118.02C136.313 116.427 116.648 98.5132 116.648 98.5132" fill="white"/>
<mask id="mask2_33_605" style="mask-type:luminance" maskUnits="userSpaceOnUse" x="98" y="90" width="88" height="99">
<path d="M100.706 96.3078C99.7641 94.6367 99.0143 92.8706 98.4696 91.0411C99.0117 92.8714 99.7616 94.6378 100.706 96.3078ZM98.4081 90.7322C98.4081 90.7647 98.4081 90.8027 98.4081 90.8514C98.4193 90.8027 98.4137 90.7647 98.4081 90.7322ZM100.706 96.3024C102.796 100.141 105.397 103.697 108.442 106.879C115.826 114.633 137.157 134.914 139.186 136.307C141.216 137.699 140.623 141.671 139.186 145.648C137.75 149.626 132.417 155.402 132.624 161.752C132.831 168.102 134.86 177.856 134.675 179.844C134.491 181.833 129.359 188.595 129.359 188.595H182.273C182.273 188.595 175.677 180.467 175.677 177.688C175.677 174.908 184.733 139.292 185.141 136.708C185.549 134.123 183.911 132.335 180.63 132.135C177.349 131.934 164.838 129.35 164.224 127.361C163.609 125.372 167.505 117.819 167.505 117.819L155.207 118.415C155.207 118.415 154.592 123.584 153.77 124.581C152.949 125.578 151.719 123.584 148.846 122.197C145.973 120.81 140.461 119.613 138.387 118.02C136.313 116.427 116.648 98.5132 116.648 98.5132" fill="white"/>
</mask>
<g mask="url(#mask2_33_605)">
<path d="M141.528 119.553C142.551 121.287 143.574 122.853 143.574 122.853C143.574 122.853 147.023 124.733 147.884 124.733C148.745 124.733 153.921 127.442 153.921 127.442C153.921 127.442 158.237 126.397 156.716 122.842C156.236 121.932 155.631 121.09 154.916 120.339C154.659 121.916 154.245 123.98 153.759 124.571C152.937 125.562 151.708 123.574 148.834 122.187C146.973 121.287 143.96 120.463 141.528 119.553Z" fill="#17586E"/>
<path d="M130.997 111.507C124.664 105.823 116.648 98.5349 116.648 98.5349L111.986 97.8847L111.427 98.1881C111.427 98.1881 124.586 109.475 127.386 110.732C128.519 111.237 129.75 111.501 130.997 111.507Z" fill="#17586E"/>
<path d="M137.632 117.391L137.129 116.958C137.387 117.37 137.532 117.63 137.532 117.63L137.632 117.391Z" fill="#17586E"/>
<g opacity="0.5">
<path d="M141.528 119.553C142.551 121.287 143.574 122.853 143.574 122.853C143.574 122.853 147.023 124.733 147.884 124.733C148.745 124.733 153.921 127.442 153.921 127.442C153.921 127.442 158.237 126.397 156.716 122.842C156.236 121.932 155.631 121.09 154.916 120.339C154.659 121.916 154.245 123.98 153.759 124.571C152.937 125.562 151.708 123.574 148.834 122.187C146.973 121.287 143.96 120.463 141.528 119.553Z" fill="white"/>
<path d="M130.997 111.507C124.664 105.823 116.648 98.5349 116.648 98.5349L111.986 97.8847L111.427 98.1881C111.427 98.1881 124.586 109.475 127.386 110.732C128.519 111.237 129.75 111.501 130.997 111.507Z" fill="white"/>
<path d="M137.632 117.391L137.129 116.958C137.387 117.37 137.532 117.63 137.532 117.63L137.632 117.391Z" fill="white"/>
</g>
</g>
<path d="M98.3969 90.5859C98.3944 90.6238 98.3944 90.6618 98.3969 90.6997M98.4696 91.0411C99.0143 92.8706 99.7641 94.6367 100.706 96.3078C99.7616 94.6378 99.0117 92.8714 98.4696 91.0411ZM98.4696 91.0411C98.4542 90.9897 98.4429 90.9371 98.436 90.884M100.706 96.3024C102.796 100.141 105.397 103.697 108.442 106.879C115.826 114.633 137.157 134.914 139.186 136.307C141.216 137.699 140.623 141.671 139.186 145.648C137.75 149.626 132.417 155.402 132.624 161.752C132.831 168.102 134.86 177.856 134.675 179.844C134.491 181.833 129.359 188.595 129.359 188.595H182.273C182.273 188.595 175.677 180.467 175.677 177.688C175.677 174.908 184.733 139.292 185.141 136.708C185.549 134.123 183.911 132.335 180.63 132.135C177.349 131.934 164.838 129.35 164.224 127.361C163.609 125.372 167.505 117.819 167.505 117.819L155.207 118.415C155.207 118.415 154.592 123.584 153.77 124.581C152.949 125.578 151.719 123.584 148.846 122.197C145.973 120.81 140.461 119.613 138.387 118.02C136.313 116.427 116.648 98.5132 116.648 98.5132M98.4081 90.7322C98.4081 90.7647 98.4081 90.8027 98.4081 90.8514C98.4193 90.8027 98.4137 90.7647 98.4081 90.7322Z" stroke="#263238" stroke-linecap="round" stroke-linejoin="round"/>
<path d="M116.648 98.5348C116.648 98.5348 110.096 98.654 106.44 95.7335" stroke="#263238" stroke-linecap="round" stroke-linejoin="round"/>
<path d="M164.229 127.361C163.614 125.378 167.51 117.819 167.51 117.819L155.212 118.415C155.212 118.415 154.597 123.584 153.776 124.581C152.954 125.578 151.724 123.584 148.851 122.197C148.633 122.089 148.392 121.986 148.147 121.883L147.403 133.213C147.403 133.213 148.482 144.185 161.417 142.099C166.655 141.254 172.245 136.724 177.069 131.631C172.105 130.748 164.698 128.884 164.229 127.361Z" fill="white"/>
<mask id="mask3_33_605" style="mask-type:luminance" maskUnits="userSpaceOnUse" x="147" y="117" width="31" height="26">
<path d="M164.229 127.361C163.614 125.378 167.51 117.819 167.51 117.819L155.212 118.415C155.212 118.415 154.597 123.584 153.776 124.581C152.954 125.578 151.724 123.584 148.851 122.197C148.633 122.089 148.392 121.986 148.147 121.883L147.403 133.213C147.403 133.213 148.482 144.185 161.417 142.099C166.655 141.254 172.245 136.724 177.069 131.631C172.105 130.748 164.698 128.884 164.229 127.361Z" fill="white"/>
</mask>
<g mask="url(#mask3_33_605)">
<path d="M163.883 119.32C163.883 119.32 163.139 123.362 162.541 127.832C161.943 132.303 161.501 135.629 161.501 135.629L164.229 127.361L167.304 118.599C167.304 118.599 164.33 118.599 163.883 119.32Z" fill="#17586E"/>
<path opacity="0.5" d="M163.883 119.32C163.883 119.32 163.139 123.362 162.541 127.832C161.943 132.303 161.501 135.629 161.501 135.629L164.229 127.361L167.304 118.599C167.304 118.599 164.33 118.599 163.883 119.32Z" fill="white"/>
</g>
<path d="M164.229 127.361C163.614 125.378 167.51 117.819 167.51 117.819L155.212 118.415C155.212 118.415 154.597 123.584 153.776 124.581C152.954 125.578 151.724 123.584 148.851 122.197C148.633 122.089 148.392 121.986 148.147 121.883L147.403 133.213C147.403 133.213 148.482 144.185 161.417 142.099C166.655 141.254 172.245 136.724 177.069 131.631C172.105 130.748 164.698 128.884 164.229 127.361Z" stroke="#263238" stroke-linecap="round" stroke-linejoin="round"/>
<path d="M153.77 124.581C152.949 125.573 151.719 123.584 148.846 122.197C147.034 121.314 144.15 120.512 141.763 119.645C141.087 118.09 140.192 116.064 139.617 114.839C138.594 112.672 136.95 114.042 136.95 114.042C136.093 113.097 135.4 112.023 134.899 110.862C133.876 108.694 132.232 108.873 129.98 108.478C127.727 108.082 123.003 103.904 123.003 103.904C123.003 103.904 120.795 102.279 119.884 101.472C118.822 103.498 116.279 107.063 110.778 109.29C119.549 118.171 137.342 135.044 139.209 136.312C141.26 137.699 140.645 141.677 139.209 145.654C137.772 149.631 132.439 155.407 132.646 161.757C132.853 168.108 134.882 177.861 134.698 179.85C134.513 181.621 130.421 187.175 129.532 188.367L131.617 188.595H142.473C142.412 183.263 142.417 161.503 146.179 152.833C150.489 142.869 153.77 124.581 153.77 124.581Z" fill="#17586E"/>
<mask id="mask4_33_605" style="mask-type:luminance" maskUnits="userSpaceOnUse" x="110" y="101" width="44" height="88">
<path d="M153.77 124.581C152.949 125.573 151.719 123.584 148.846 122.197C147.034 121.314 144.15 120.512 141.763 119.645C141.087 118.09 140.192 116.064 139.617 114.839C138.594 112.672 136.95 114.042 136.95 114.042C136.093 113.097 135.4 112.023 134.899 110.862C133.876 108.694 132.232 108.873 129.98 108.478C127.727 108.082 123.003 103.904 123.003 103.904C123.003 103.904 120.795 102.279 119.884 101.472C118.822 103.498 116.279 107.063 110.778 109.29C119.549 118.171 137.342 135.044 139.209 136.312C141.26 137.699 140.645 141.677 139.209 145.654C137.772 149.631 132.439 155.407 132.646 161.757C132.853 168.108 134.882 177.861 134.698 179.85C134.513 181.621 130.421 187.175 129.532 188.367L131.617 188.595H142.473C142.412 183.263 142.417 161.503 146.179 152.833C150.489 142.869 153.77 124.581 153.77 124.581Z" fill="white"/>
</mask>
<g mask="url(#mask4_33_605)">
<path opacity="0.16" d="M148.846 122.197C147.035 121.314 144.15 120.512 141.763 119.645C141.087 118.09 140.193 116.064 139.617 114.839C138.594 112.672 136.95 114.042 136.95 114.042C136.093 113.097 135.4 112.023 134.899 110.862C133.876 108.694 132.233 108.873 129.98 108.478C127.727 108.082 123.004 103.904 123.004 103.904C123.004 103.904 120.796 102.279 119.885 101.472C119.43 102.332 118.889 103.147 118.269 103.904C121.936 106.912 125.983 110.098 127.397 110.732C130.192 111.983 130.846 110.938 132.987 112.195C135.128 113.452 137.515 117.613 137.515 117.613C137.515 117.613 138.812 114.265 139.891 116.567C140.97 118.87 143.558 122.837 143.558 122.837C143.558 122.837 147.007 124.717 147.868 124.717C148.544 124.717 151.859 126.386 153.267 127.106C153.58 125.519 153.754 124.565 153.754 124.565C152.949 125.573 151.719 123.584 148.846 122.197Z" fill="black"/>
</g>
<path d="M153.77 124.581C152.949 125.573 151.719 123.584 148.846 122.197C147.034 121.314 144.15 120.512 141.763 119.645C141.087 118.09 140.192 116.064 139.617 114.839C138.594 112.672 136.95 114.042 136.95 114.042C136.093 113.097 135.4 112.023 134.899 110.862C133.876 108.694 132.232 108.873 129.98 108.478C127.727 108.082 123.003 103.904 123.003 103.904C123.003 103.904 120.795 102.279 119.884 101.472C118.822 103.498 116.279 107.063 110.778 109.29C119.549 118.171 137.342 135.044 139.209 136.312C141.26 137.699 140.645 141.677 139.209 145.654C137.772 149.631 132.439 155.407 132.646 161.757C132.853 168.108 134.882 177.861 134.698 179.85C134.513 181.621 130.421 187.175 129.532 188.367L131.617 188.595H142.473C142.412 183.263 142.417 161.503 146.179 152.833C150.489 142.869 153.77 124.581 153.77 124.581Z" stroke="#263238" stroke-linecap="round" stroke-linejoin="round"/>
<path d="M153.916 123.888C153.916 123.888 151.367 123.129 149.796 124.462C148.225 125.795 145.883 132.633 144.502 140.051C143.651 144.369 144.239 148.838 146.179 152.812C146.179 152.812 149.405 144.613 150.383 140.62C151.361 136.627 153.916 123.888 153.916 123.888Z" fill="#17586E"/>
<mask id="mask5_33_605" style="mask-type:luminance" maskUnits="userSpaceOnUse" x="144" y="123" width="10" height="30">
<path d="M153.916 123.888C153.916 123.888 151.367 123.129 149.796 124.462C148.225 125.795 145.883 132.633 144.502 140.051C143.651 144.369 144.239 148.838 146.179 152.812C146.179 152.812 149.405 144.613 150.383 140.62C151.361 136.627 153.916 123.888 153.916 123.888Z" fill="white"/>
</mask>
<g mask="url(#mask5_33_605)">
<path opacity="0.16" d="M149.024 125.096C149.024 125.096 150.869 124.663 151.629 124.912C152.269 125.178 152.868 125.53 153.407 125.958L153.915 123.888C153.152 123.51 152.287 123.372 151.439 123.492C150.17 123.742 149.024 125.096 149.024 125.096Z" fill="black"/>
</g>
<path d="M153.916 123.888C153.916 123.888 151.367 123.129 149.796 124.462C148.225 125.795 145.883 132.633 144.502 140.051C143.651 144.369 144.239 148.838 146.179 152.812C146.179 152.812 149.405 144.613 150.383 140.62C151.361 136.627 153.916 123.888 153.916 123.888Z" stroke="#263238" stroke-linecap="round" stroke-linejoin="round"/>
<path d="M136.749 124.538L140.03 137.461L132.646 121.157" stroke="#263238" stroke-linecap="round" stroke-linejoin="round"/>
<path d="M158.365 188.595H182.279C182.279 188.595 175.683 180.467 175.683 177.688C175.683 174.908 184.739 139.292 185.147 136.708C185.555 134.123 183.917 132.335 180.636 132.135C177.354 131.934 164.844 129.35 164.229 127.361C164.229 127.361 159.511 143.465 157.873 154.399C156.465 163.779 157.924 183.242 158.365 188.595Z" fill="#17586E"/>
<mask id="mask6_33_605" style="mask-type:luminance" maskUnits="userSpaceOnUse" x="157" y="127" width="29" height="62">
<path d="M158.365 188.595H182.279C182.279 188.595 175.683 180.467 175.683 177.688C175.683 174.908 184.739 139.292 185.147 136.708C185.555 134.123 183.917 132.335 180.636 132.135C177.354 131.934 164.844 129.35 164.229 127.361C164.229 127.361 159.511 143.465 157.873 154.399C156.465 163.779 157.924 183.242 158.365 188.595Z" fill="white"/>
</mask>
<g mask="url(#mask6_33_605)">
<path opacity="0.16" d="M180.635 132.135C177.947 131.972 169.064 130.206 165.604 128.483L166.862 131.3C169.141 132.472 171.591 133.298 174.129 133.75C178.293 134.47 182.167 134.329 184.699 137.938L184.822 138.117C184.979 137.423 185.085 136.936 185.118 136.708C185.56 134.123 183.917 132.335 180.635 132.135Z" fill="black"/>
</g>
<path d="M158.365 188.595H182.279C182.279 188.595 175.683 180.467 175.683 177.688C175.683 174.908 184.739 139.292 185.147 136.708C185.555 134.123 183.917 132.335 180.636 132.135C177.354 131.934 164.844 129.35 164.229 127.361C164.229 127.361 159.511 143.465 157.873 154.399C156.465 163.779 157.924 183.242 158.365 188.595Z" stroke="#263238" stroke-linecap="round" stroke-linejoin="round"/>
<path d="M164.229 127.361C164.229 127.361 157.902 146.867 157.874 154.399C157.874 154.399 166.862 143.849 168.036 136.437C169.21 129.024 164.229 127.361 164.229 127.361Z" fill="#17586E"/>
<mask id="mask7_33_605" style="mask-type:luminance" maskUnits="userSpaceOnUse" x="157" y="127" width="12" height="28">
<path d="M164.229 127.361C164.229 127.361 157.902 146.867 157.874 154.399C157.874 154.399 166.862 143.849 168.036 136.437C169.21 129.024 164.229 127.361 164.229 127.361Z" fill="white"/>
</mask>
<g mask="url(#mask7_33_605)">
<path opacity="0.16" d="M163.139 129.854C164.09 129.823 165.034 130.017 165.891 130.419C166.747 130.821 167.489 131.419 168.053 132.162C168.053 132.162 166.812 128.624 164.229 127.361L163.139 129.854Z" fill="black"/>
</g>
<path d="M164.229 127.361C164.229 127.361 157.902 146.867 157.874 154.399C157.874 154.399 166.862 143.849 168.036 136.437C169.21 129.024 164.229 127.361 164.229 127.361Z" stroke="#263238" stroke-linecap="round" stroke-linejoin="round"/>
<path d="M231.783 184.927C231.783 184.927 236.417 185.111 239.452 185.534C241.477 185.8 243.514 185.957 245.556 186.005C245.556 186.005 243.88 182.721 242.091 181.795C240.302 180.868 237.06 179.21 234.343 179.579C231.626 179.947 227.741 182.602 228.066 183.448C228.39 184.293 229.838 184.672 231.783 184.927Z" fill="white"/>
<mask id="mask8_33_605" style="mask-type:luminance" maskUnits="userSpaceOnUse" x="228" y="179" width="18" height="8">
<path d="M231.783 184.927C231.783 184.927 236.417 185.111 239.452 185.534C241.477 185.8 243.514 185.957 245.556 186.005C245.556 186.005 243.88 182.721 242.091 181.795C240.302 180.868 237.06 179.21 234.343 179.579C231.626 179.947 227.741 182.602 228.066 183.448C228.39 184.293 229.838 184.672 231.783 184.927Z" fill="white"/>
</mask>
<g mask="url(#mask8_33_605)">
<path d="M231.783 184.927C231.783 184.927 236.417 185.111 239.452 185.534C241.477 185.8 243.514 185.957 245.556 186.005C245.556 186.005 243.88 182.721 242.091 181.795C240.302 180.868 237.06 179.21 234.343 179.579C231.626 179.947 227.741 182.602 228.066 183.448C228.39 184.293 229.838 184.672 231.783 184.927Z" fill="#17586E"/>
<path opacity="0.5" d="M231.783 184.927C231.783 184.927 236.417 185.111 239.452 185.534C241.477 185.8 243.514 185.957 245.556 186.005C245.556 186.005 243.88 182.721 242.091 181.795C240.302 180.868 237.06 179.21 234.343 179.579C231.626 179.947 227.741 182.602 228.066 183.448C228.39 184.293 229.838 184.672 231.783 184.927Z" fill="white"/>
</g>
<path d="M231.783 184.927C231.783 184.927 236.417 185.111 239.452 185.534C241.477 185.8 243.514 185.957 245.556 186.005C245.556 186.005 243.88 182.721 242.091 181.795C240.302 180.868 237.06 179.21 234.343 179.579C231.626 179.947 227.741 182.602 228.066 183.448C228.39 184.293 229.838 184.672 231.783 184.927Z" stroke="#263238" stroke-linecap="round" stroke-linejoin="round"/>
<path d="M239.48 183.583C239.48 183.583 243.153 181.735 244.07 181.762C244.987 181.79 251.08 185.783 250.778 186.422C250.573 186.719 250.277 186.945 249.932 187.07C249.587 187.194 249.21 187.21 248.855 187.116C248.178 186.807 244.075 185.116 244.075 185.116L241.392 185.729L239.48 183.583Z" fill="white"/>
<mask id="mask9_33_605" style="mask-type:luminance" maskUnits="userSpaceOnUse" x="239" y="181" width="12" height="7">
<path d="M239.48 183.583C239.48 183.583 243.153 181.735 244.07 181.762C244.987 181.79 251.08 185.783 250.778 186.422C250.573 186.719 250.277 186.945 249.932 187.07C249.587 187.194 249.21 187.21 248.855 187.116C248.178 186.807 244.075 185.116 244.075 185.116L241.392 185.729L239.48 183.583Z" fill="white"/>
</mask>
<g mask="url(#mask9_33_605)">
<path d="M239.48 183.583C239.48 183.583 243.153 181.735 244.07 181.762C244.987 181.79 251.08 185.783 250.778 186.422C250.476 187.062 249.034 187.582 248.855 187.116C248.676 186.65 244.075 185.116 244.075 185.116L241.392 185.729L239.48 183.583Z" fill="#17586E"/>
<path opacity="0.5" d="M239.48 183.583C239.48 183.583 243.153 181.735 244.07 181.762C244.987 181.79 251.08 185.783 250.778 186.422C250.476 187.062 249.034 187.582 248.855 187.116C248.676 186.65 244.075 185.116 244.075 185.116L241.392 185.729L239.48 183.583Z" fill="white"/>
</g>
<path d="M239.48 183.583C239.48 183.583 243.153 181.735 244.07 181.762C244.987 181.79 251.08 185.783 250.778 186.422C250.573 186.719 250.277 186.945 249.932 187.07C249.587 187.194 249.21 187.21 248.855 187.116C248.178 186.807 244.075 185.116 244.075 185.116L241.392 185.729L239.48 183.583Z" stroke="#263238" stroke-linecap="round" stroke-linejoin="round"/>
<path d="M236.859 180.543C236.859 180.543 241.755 180.392 242.728 180.868C243.701 181.345 248.094 188.649 247.435 189.18C246.775 189.711 244.953 189.554 245.009 188.964C245.065 188.373 240.962 184.461 240.962 184.461L237.77 183.783L236.859 180.543Z" fill="white"/>
<mask id="mask10_33_605" style="mask-type:luminance" maskUnits="userSpaceOnUse" x="236" y="180" width="12" height="10">
<path d="M236.859 180.543C236.859 180.543 241.755 180.392 242.728 180.868C243.701 181.345 248.094 188.649 247.435 189.18C246.775 189.711 244.953 189.554 245.009 188.964C245.065 188.373 240.962 184.461 240.962 184.461L237.77 183.783L236.859 180.543Z" fill="white"/>
</mask>
<g mask="url(#mask10_33_605)">
<path d="M236.859 180.543C236.859 180.543 241.755 180.392 242.728 180.868C243.701 181.345 248.094 188.649 247.435 189.18C246.775 189.711 244.953 189.554 245.009 188.964C245.065 188.373 240.962 184.461 240.962 184.461L237.77 183.783L236.859 180.543Z" fill="#17586E"/>
<path opacity="0.5" d="M236.859 180.543C236.859 180.543 241.755 180.392 242.728 180.868C243.701 181.345 248.094 188.649 247.435 189.18C246.775 189.711 244.953 189.554 245.009 188.964C245.065 188.373 240.962 184.461 240.962 184.461L237.77 183.783L236.859 180.543Z" fill="white"/>
</g>
<path d="M236.859 180.543C236.859 180.543 241.755 180.392 242.728 180.868C243.701 181.345 248.094 188.649 247.435 189.18C246.775 189.711 244.953 189.554 245.009 188.964C245.065 188.373 240.962 184.461 240.962 184.461L237.77 183.783L236.859 180.543Z" stroke="#263238" stroke-linecap="round" stroke-linejoin="round"/>
<path d="M233.958 179.563C233.958 179.563 238.916 179.405 239.9 179.893C240.883 180.381 245.333 187.766 244.662 188.308C243.991 188.85 242.158 188.682 242.214 188.086C242.27 187.49 238.116 183.529 238.116 183.529L234.885 182.841L233.958 179.563Z" fill="white"/>
<mask id="mask11_33_605" style="mask-type:luminance" maskUnits="userSpaceOnUse" x="233" y="179" width="12" height="10">
<path d="M233.958 179.563C233.958 179.563 238.916 179.405 239.9 179.893C240.883 180.381 245.333 187.766 244.662 188.308C243.991 188.85 242.158 188.682 242.214 188.086C242.27 187.49 238.116 183.529 238.116 183.529L234.885 182.841L233.958 179.563Z" fill="white"/>
</mask>
<g mask="url(#mask11_33_605)">
<path d="M233.958 179.563C233.958 179.563 238.916 179.405 239.9 179.893C240.883 180.381 245.333 187.766 244.662 188.308C243.991 188.85 242.158 188.682 242.214 188.086C242.27 187.49 238.116 183.529 238.116 183.529L234.885 182.841L233.958 179.563Z" fill="#17586E"/>
<path opacity="0.5" d="M233.958 179.563C233.958 179.563 238.916 179.405 239.9 179.893C240.883 180.381 245.333 187.766 244.662 188.308C243.991 188.85 242.158 188.682 242.214 188.086C242.27 187.49 238.116 183.529 238.116 183.529L234.885 182.841L233.958 179.563Z" fill="white"/>
</g>
<path d="M233.958 179.563C233.958 179.563 238.916 179.405 239.9 179.893C240.883 180.381 245.333 187.766 244.662 188.308C243.991 188.85 242.158 188.682 242.214 188.086C242.27 187.49 238.116 183.529 238.116 183.529L234.885 182.841L233.958 179.563Z" stroke="#263238" stroke-linecap="round" stroke-linejoin="round"/>
<path d="M177.584 152.026C181.172 157.385 188.378 170.963 190.48 172.491C193.761 174.876 215.696 180.662 217.809 182.245C219.922 183.827 219.776 185.414 221.777 185.994C223.779 186.574 231.28 188.237 234.142 188.498C237.004 188.758 235.724 187.04 235.724 187.04L230.844 183.789L235.098 182.77C235.098 182.77 239.363 187.744 240.163 188.015C240.962 188.286 242.371 188.015 242.281 187.403C242.125 186.422 237.574 178.398 235.959 178.056C234.343 177.715 224.539 179.032 224.539 179.032C224.539 179.032 203.974 165.588 203.605 165.111C203.605 165.111 202.375 161.73 201.369 160.338C200.362 158.945 199.725 159.346 199.725 159.346C199.725 159.346 200.139 157.553 199.524 156.957L196.243 153.776L196.125 153.928C195.566 152.844 195.007 151.609 194.392 150.2C192.676 146.282 186.6 135.288 185.577 133.701C184.811 132.514 178.394 131.663 175.141 131.306" fill="#17586E"/>
<mask id="mask12_33_605" style="mask-type:luminance" maskUnits="userSpaceOnUse" x="175" y="131" width="68" height="58">
<path d="M177.584 152.026C181.172 157.385 188.378 170.963 190.48 172.491C193.761 174.876 215.696 180.662 217.809 182.245C219.922 183.827 219.776 185.414 221.777 185.994C223.779 186.574 231.28 188.237 234.142 188.498C237.004 188.758 235.724 187.04 235.724 187.04L230.844 183.789L235.098 182.77C235.098 182.77 239.363 187.744 240.163 188.015C240.962 188.286 242.371 188.015 242.281 187.403C242.125 186.422 237.574 178.398 235.959 178.056C234.343 177.715 224.539 179.032 224.539 179.032C224.539 179.032 203.974 165.588 203.605 165.111C203.605 165.111 202.375 161.73 201.369 160.338C200.362 158.945 199.725 159.346 199.725 159.346C199.725 159.346 200.139 157.553 199.524 156.957L196.243 153.776L196.125 153.928C195.566 152.844 195.007 151.609 194.392 150.2C192.676 146.282 186.6 135.288 185.577 133.701C184.811 132.514 178.394 131.663 175.141 131.306" fill="white"/>
</mask>
<g mask="url(#mask12_33_605)">
<path opacity="0.16" d="M191.872 152.367C194.555 154.675 193.66 154.675 193.062 156.702C192.464 158.728 193.509 155.981 196.042 156.127C198.574 156.274 197.83 159.444 197.529 160.023C197.227 160.603 200.659 161.324 200.061 162.619C199.463 163.914 196.042 165.794 194.108 167.674C192.173 169.554 199.166 164.64 201.548 164.499C202.274 164.45 202.873 164.542 203.376 164.531C202.848 163.082 202.17 161.687 201.352 160.37C200.324 158.978 199.709 159.379 199.709 159.379C199.709 159.379 200.122 157.585 199.507 156.989L196.226 153.808L196.109 153.96C195.55 152.876 194.991 151.641 194.376 150.232C192.66 146.315 186.584 135.321 185.561 133.733C184.795 132.546 178.378 131.696 175.124 131.338L175.421 133.847L175.493 133.901C175.493 133.901 179.512 134.622 180.854 134.768C182.195 134.914 183.833 136.063 183.682 136.935C183.531 137.808 179.663 141.698 180.854 141.991C182.045 142.283 183.386 139.103 184.728 139.536C186.069 139.97 189.172 150.059 191.872 152.367Z" fill="black"/>
</g>
<path d="M177.584 152.026C181.172 157.385 188.378 170.963 190.48 172.491C193.761 174.876 215.696 180.662 217.809 182.245C219.922 183.827 219.776 185.414 221.777 185.994C223.779 186.574 231.28 188.237 234.142 188.498C237.004 188.758 235.724 187.04 235.724 187.04L230.844 183.789L235.098 182.77C235.098 182.77 239.363 187.744 240.163 188.015C240.962 188.286 242.371 188.015 242.281 187.403C242.125 186.422 237.574 178.398 235.959 178.056C234.343 177.715 224.539 179.032 224.539 179.032C224.539 179.032 203.974 165.588 203.605 165.111C203.605 165.111 202.375 161.73 201.369 160.338C200.362 158.945 199.725 159.346 199.725 159.346C199.725 159.346 200.139 157.553 199.524 156.957L196.243 153.776L196.125 153.928C195.566 152.844 195.007 151.609 194.392 150.2C192.676 146.282 186.6 135.288 185.577 133.701C184.811 132.514 178.394 131.663 175.141 131.306" stroke="#263238" stroke-linecap="round" stroke-linejoin="round"/>
<path d="M177.639 144.673C177.488 145.161 177.359 145.648 177.259 146.147" stroke="#263238" stroke-linecap="round" stroke-linejoin="round"/>
<path d="M183.073 135.705C181.316 137.646 179.835 139.806 178.668 142.126" stroke="#263238" stroke-linecap="round" stroke-linejoin="round"/>
<path d="M191.284 166.471C192.793 164.304 195.197 161.557 197.846 160.771" stroke="#263238" stroke-linecap="round" stroke-linejoin="round"/>
<path d="M189.613 169.137C189.613 169.137 189.881 168.628 190.362 167.859" stroke="#263238" stroke-linecap="round" stroke-linejoin="round"/>
<path d="M189.613 165.713C189.613 165.713 192.358 159.059 195.102 157.347C197.847 155.635 196.276 159.059 196.276 159.059" stroke="#263238" stroke-linecap="round" stroke-linejoin="round"/>
<path d="M217.808 182.25C219.927 183.838 219.776 185.42 221.777 186C223.778 186.579 231.28 188.243 234.142 188.503C237.004 188.763 235.724 187.045 235.724 187.045L230.844 183.794L235.098 182.776C235.098 182.776 239.363 187.75 240.162 188.021C240.962 188.292 242.482 188.389 242.281 187.408C241.89 185.512 237.574 178.403 235.959 178.062C234.343 177.72 224.538 179.037 224.538 179.037C224.538 179.037 205.807 166.574 203.755 165.225C195.801 165.968 192.016 170.004 190.423 172.426L190.479 172.47C193.761 174.875 215.695 180.662 217.808 182.25Z" fill="white"/>
<mask id="mask13_33_605" style="mask-type:luminance" maskUnits="userSpaceOnUse" x="190" y="165" width="53" height="24">
<path d="M217.808 182.25C219.927 183.838 219.776 185.42 221.777 186C223.778 186.579 231.28 188.243 234.142 188.503C237.004 188.763 235.724 187.045 235.724 187.045L230.844 183.794L235.098 182.776C235.098 182.776 239.363 187.75 240.162 188.021C240.962 188.292 242.482 188.389 242.281 187.408C241.89 185.512 237.574 178.403 235.959 178.062C234.343 177.72 224.538 179.037 224.538 179.037C224.538 179.037 205.807 166.574 203.755 165.225C195.801 165.968 192.016 170.004 190.423 172.426L190.479 172.47C193.761 174.875 215.695 180.662 217.808 182.25Z" fill="white"/>
</mask>
<g mask="url(#mask13_33_605)">
<path d="M242.275 187.43C241.258 185.019 237.569 178.424 235.953 178.083C234.338 177.742 224.533 179.058 224.533 179.058C224.533 179.058 205.801 166.596 203.75 165.247C201.662 165.423 199.613 165.903 197.674 166.672C200.631 168.297 220.341 179.134 222.828 179.616C225.467 180.158 234.271 178.755 235.819 179.763C236.803 180.402 239.732 184.905 241.711 188.102C242.275 188.021 242.482 187.918 242.275 187.43Z" fill="#17586E"/>
<path opacity="0.5" d="M242.275 187.43C240.688 183.978 237.569 178.424 235.953 178.083C234.338 177.742 224.533 179.058 224.533 179.058C224.533 179.058 205.801 166.596 203.75 165.247C201.662 165.423 199.613 165.903 197.674 166.672C200.631 168.297 220.341 179.134 222.828 179.616C225.467 180.158 234.271 178.755 235.819 179.763C236.803 180.402 239.732 184.905 241.711 188.102C242.275 188.021 242.499 187.912 242.275 187.43Z" fill="white"/>
</g>
<path d="M217.808 182.25C219.927 183.838 219.776 185.42 221.777 186C223.778 186.579 231.28 188.243 234.142 188.503C237.004 188.763 235.724 187.045 235.724 187.045L230.844 183.794L235.098 182.776C235.098 182.776 239.363 187.75 240.162 188.021C240.962 188.292 242.482 188.389 242.281 187.408C241.89 185.512 237.574 178.403 235.959 178.062C234.343 177.72 224.538 179.037 224.538 179.037C224.538 179.037 205.807 166.574 203.755 165.225C195.801 165.968 192.016 170.004 190.423 172.426L190.479 172.47C193.761 174.875 215.695 180.662 217.808 182.25Z" stroke="#263238" stroke-linecap="round" stroke-linejoin="round"/>
<path d="M168.405 87.6328L151.568 94.4439C151.364 97.3121 150.631 100.122 149.405 102.74C147.415 106.82 148.577 114.541 150.489 118.708C152.401 122.875 160.825 121.244 163.905 120.723C165.994 120.338 168.04 119.759 170.015 118.995C170.914 119.331 171.887 119.439 172.841 119.311C173.795 119.182 174.7 118.819 175.47 118.258C175.47 118.258 166.46 93.7394 168.405 87.6328Z" fill="white"/>
<mask id="mask14_33_605" style="mask-type:luminance" maskUnits="userSpaceOnUse" x="148" y="87" width="28" height="35">
<path d="M168.405 87.6328L151.568 94.4439C151.364 97.3121 150.631 100.122 149.405 102.74C147.415 106.82 148.577 114.541 150.489 118.708C152.401 122.875 160.825 121.244 163.905 120.723C165.994 120.338 168.04 119.759 170.015 118.995C170.914 119.331 171.887 119.439 172.841 119.311C173.795 119.182 174.7 118.819 175.47 118.258C175.47 118.258 166.46 93.7394 168.405 87.6328Z" fill="white"/>
</mask>
<g mask="url(#mask14_33_605)">
<path d="M168.405 87.6328L151.568 94.4439C151.364 97.3121 150.631 100.122 149.405 102.74C147.415 106.82 148.577 114.541 150.489 118.708C150.809 119.378 151.324 119.943 151.971 120.333V120.019C151.971 120.019 148.846 112.514 149.438 108.185C150.031 103.856 152.569 101.683 152.865 98.9466C153.161 96.2103 153.01 94.9098 158.673 92.8887C164.335 90.8677 166.711 88.9929 167.304 91.0085C167.896 93.0242 170.283 106.31 171.921 109.485C173.559 112.661 173.408 115.988 170.881 117.424C168.328 118.909 165.591 120.078 162.737 120.902L163.927 120.702C166.016 120.317 168.062 119.738 170.037 118.973C170.936 119.309 171.909 119.418 172.863 119.289C173.818 119.16 174.723 118.798 175.493 118.236C175.493 118.236 166.46 93.7394 168.405 87.6328Z" fill="#17586E"/>
<path opacity="0.5" d="M168.405 87.6328L151.568 94.4439C151.364 97.3121 150.631 100.122 149.405 102.74C147.415 106.82 148.577 114.541 150.489 118.708C150.809 119.378 151.324 119.943 151.971 120.333V120.019C151.971 120.019 148.846 112.514 149.438 108.185C150.031 103.856 152.569 101.683 152.865 98.9466C153.161 96.2103 153.01 94.9098 158.673 92.8887C164.335 90.8677 166.711 88.9929 167.304 91.0085C167.896 93.0242 170.283 106.31 171.921 109.485C173.559 112.661 173.408 115.988 170.881 117.424C168.328 118.909 165.591 120.078 162.737 120.902L163.927 120.702C166.016 120.317 168.062 119.738 170.037 118.973C170.936 119.309 171.909 119.418 172.863 119.289C173.818 119.16 174.723 118.798 175.493 118.236C175.493 118.236 166.46 93.7394 168.405 87.6328Z" fill="white"/>
</g>
<path d="M168.405 87.6328L151.568 94.4439C151.364 97.3121 150.631 100.122 149.405 102.74C147.415 106.82 148.577 114.541 150.489 118.708C152.401 122.875 160.825 121.244 163.905 120.723C165.994 120.338 168.04 119.759 170.015 118.995C170.914 119.331 171.887 119.439 172.841 119.311C173.795 119.182 174.7 118.819 175.47 118.258C175.47 118.258 166.46 93.7394 168.405 87.6328Z" stroke="#263238" stroke-linecap="round" stroke-linejoin="round"/>
<path d="M159.897 98.3127C159.943 99.2722 159.82 100.232 159.534 101.152C159.086 102.236 154.866 106.495 154.995 106.955C155.123 107.416 155.503 108.895 156.252 109.036" stroke="#263238" stroke-linecap="round" stroke-linejoin="round"/>
<path d="M164.576 102.122C165.163 100.984 167.091 102.095 167.063 104.658" stroke="#263238" stroke-linecap="round" stroke-linejoin="round"/>
<path d="M155.017 98.7732C155.017 98.7732 156.66 98.0742 158.13 100.653" stroke="#263238" stroke-linecap="round" stroke-linejoin="round"/>
<path d="M162.239 105.877C164.138 105.969 165.943 106.704 167.342 107.952" stroke="#263238" stroke-width="0.5" stroke-linecap="round" stroke-linejoin="round"/>
<path d="M153.032 102.49C154.014 102.617 154.973 102.874 155.883 103.254" stroke="#263238" stroke-width="0.5" stroke-linecap="round" stroke-linejoin="round"/>
<path d="M159.712 95.9069C159.278 95.6844 158.797 95.5628 158.306 95.5515C157.815 95.5402 157.328 95.6396 156.884 95.8419C155.38 96.5409 154.458 97.3103 154.559 96.4162C154.659 95.5222 156.426 94.536 156.957 94.406C157.488 94.2759 159.863 93.9183 159.712 95.9069Z" fill="#263238"/>
<path d="M163.927 93.8857C165.494 95.1147 166.739 96.6855 167.56 98.4698C168.678 101.179 169.562 98.2205 168.678 96.4487C167.795 94.6768 165.241 92.7912 163.927 93.8857Z" fill="#263238"/>
<path d="M175.716 122.891C175.716 124.153 174.978 125.177 174.073 125.177C173.167 125.177 172.435 124.153 172.435 122.891C172.435 121.628 173.167 118.415 174.073 118.415C174.978 118.415 175.716 121.628 175.716 122.891Z" fill="#17586E" stroke="#263238" stroke-linecap="round" stroke-linejoin="round"/>
<path d="M164.721 101.629C164.657 101.794 164.606 101.965 164.57 102.138C164.408 102.94 164.246 104.614 164.57 104.685C164.894 104.755 165.688 103.189 165.828 102.387C165.859 102.23 165.878 102.071 165.884 101.911C165.502 101.795 165.114 101.7 164.721 101.629Z" fill="#263238"/>
<path d="M155.185 98.6161C155.135 98.7577 155.096 98.9025 155.067 99.0495C154.9 99.8515 154.905 101.612 155.257 101.677C155.61 101.743 156.185 100.095 156.348 99.2934C156.388 99.0988 156.41 98.9012 156.415 98.7028C156.014 98.5961 155.597 98.5666 155.185 98.6161Z" fill="#263238"/>
<path d="M164.576 102.149L165.135 101.141C166.021 101.308 166.824 101.759 167.415 102.42" stroke="#263238" stroke-width="0.75" stroke-linecap="round" stroke-linejoin="round"/>
<path d="M155.185 98.6161L155.744 97.9821C155.744 97.9821 155.984 97.8683 157.303 98.4481" stroke="#263238" stroke-width="0.75" stroke-linecap="round" stroke-linejoin="round"/>
<path d="M153.066 113.311C153.066 113.311 154.005 111.637 155.263 111.637C156.521 111.637 157.46 114.373 157.46 114.373" stroke="#263238" stroke-linecap="round" stroke-linejoin="round"/>
<path d="M112.589 185.517C111.374 185.459 110.18 185.183 109.068 184.704C108.913 184.649 108.771 184.563 108.651 184.453C108.531 184.342 108.436 184.209 108.37 184.062C108.305 183.915 108.272 183.756 108.272 183.596C108.272 183.436 108.306 183.277 108.371 183.13C108.436 182.983 108.532 182.85 108.652 182.739C108.772 182.629 108.914 182.544 109.069 182.488C109.224 182.433 109.389 182.408 109.554 182.417C109.719 182.425 109.881 182.466 110.029 182.537C111.147 182.998 112.595 183.285 112.981 183.122C113.691 182.353 114.781 177.704 113.372 175.46C113.053 174.962 112.757 174.87 112.561 174.848C111.762 174.74 110.577 175.536 110.158 175.932C110.041 176.039 109.904 176.122 109.754 176.177C109.604 176.233 109.444 176.259 109.284 176.254C109.123 176.25 108.965 176.215 108.819 176.151C108.673 176.087 108.541 175.996 108.431 175.883C108.32 175.77 108.234 175.637 108.177 175.492C108.12 175.346 108.093 175.191 108.098 175.036C108.103 174.88 108.139 174.727 108.205 174.585C108.27 174.444 108.364 174.316 108.481 174.209C108.699 174.003 110.717 172.242 112.869 172.524C113.403 172.599 113.911 172.793 114.355 173.09C114.799 173.387 115.167 173.779 115.429 174.236C117.503 177.514 116.083 183.751 114.49 184.986C113.936 185.366 113.267 185.553 112.589 185.517Z" fill="white"/>
<mask id="mask15_33_605" style="mask-type:luminance" maskUnits="userSpaceOnUse" x="108" y="172" width="9" height="14">
<path d="M112.589 185.517C111.374 185.459 110.18 185.183 109.068 184.704C108.913 184.649 108.771 184.563 108.651 184.453C108.531 184.342 108.436 184.209 108.37 184.062C108.305 183.915 108.272 183.756 108.272 183.596C108.272 183.436 108.306 183.277 108.371 183.13C108.436 182.983 108.532 182.85 108.652 182.739C108.772 182.629 108.914 182.544 109.069 182.488C109.224 182.433 109.389 182.408 109.554 182.417C109.719 182.425 109.881 182.466 110.029 182.537C111.147 182.998 112.595 183.285 112.981 183.122C113.691 182.353 114.781 177.704 113.372 175.46C113.053 174.962 112.757 174.87 112.561 174.848C111.762 174.74 110.577 175.536 110.158 175.932C110.041 176.039 109.904 176.122 109.754 176.177C109.604 176.233 109.444 176.259 109.284 176.254C109.123 176.25 108.965 176.215 108.819 176.151C108.673 176.087 108.541 175.996 108.431 175.883C108.32 175.77 108.234 175.637 108.177 175.492C108.12 175.346 108.093 175.191 108.098 175.036C108.103 174.88 108.139 174.727 108.205 174.585C108.27 174.444 108.364 174.316 108.481 174.209C108.699 174.003 110.717 172.242 112.869 172.524C113.403 172.599 113.911 172.793 114.355 173.09C114.799 173.387 115.167 173.779 115.429 174.236C117.503 177.514 116.083 183.751 114.49 184.986C113.936 185.366 113.267 185.553 112.589 185.517Z" fill="white"/>
</mask>
<g mask="url(#mask15_33_605)">
<path d="M114.227 175.103C114.081 174.766 113.851 174.47 113.559 174.239C113.266 174.009 112.92 173.851 112.55 173.781C111.153 173.564 109.839 174.924 109.694 175.076C109.56 175.232 109.478 175.423 109.457 175.625C109.436 175.826 109.477 176.029 109.576 176.208C109.796 176.165 109.999 176.064 110.163 175.916C110.583 175.536 111.768 174.74 112.567 174.832C112.763 174.832 113.059 174.946 113.378 175.444C114.786 177.666 113.696 182.336 112.986 183.106C112.601 183.268 111.158 182.981 110.035 182.521C109.896 182.464 109.749 182.433 109.599 182.429C109.609 182.577 109.657 182.721 109.739 182.847C109.821 182.972 109.934 183.076 110.068 183.149C110.775 183.515 111.555 183.729 112.355 183.778C112.811 183.799 113.258 183.647 113.601 183.355C114.652 182.418 115.58 177.622 114.227 175.103Z" fill="#17586E"/>
<path opacity="0.5" d="M114.227 175.103C114.081 174.766 113.851 174.47 113.559 174.239C113.266 174.009 112.92 173.851 112.55 173.781C111.153 173.564 109.839 174.924 109.694 175.076C109.56 175.232 109.478 175.423 109.457 175.625C109.436 175.826 109.477 176.029 109.576 176.208C109.796 176.165 109.999 176.064 110.163 175.916C110.583 175.536 111.768 174.74 112.567 174.832C112.763 174.832 113.059 174.946 113.378 175.444C114.786 177.666 113.696 182.336 112.986 183.106C112.601 183.268 111.158 182.981 110.035 182.521C109.896 182.464 109.749 182.433 109.599 182.429C109.609 182.577 109.657 182.721 109.739 182.847C109.821 182.972 109.934 183.076 110.068 183.149C110.775 183.515 111.555 183.729 112.355 183.778C112.811 183.799 113.258 183.647 113.601 183.355C114.652 182.418 115.58 177.622 114.227 175.103Z" fill="white"/>
</g>
<path d="M112.589 185.517C111.374 185.459 110.18 185.183 109.068 184.704C108.913 184.649 108.771 184.563 108.651 184.453C108.531 184.342 108.436 184.209 108.37 184.062C108.305 183.915 108.272 183.756 108.272 183.596C108.272 183.436 108.306 183.277 108.371 183.13C108.436 182.983 108.532 182.85 108.652 182.739C108.772 182.629 108.914 182.544 109.069 182.488C109.224 182.433 109.389 182.408 109.554 182.417C109.719 182.425 109.881 182.466 110.029 182.537C111.147 182.998 112.595 183.285 112.981 183.122C113.691 182.353 114.781 177.704 113.372 175.46C113.053 174.962 112.757 174.87 112.561 174.848C111.762 174.74 110.577 175.536 110.158 175.932C110.041 176.039 109.904 176.122 109.754 176.177C109.604 176.233 109.444 176.259 109.284 176.254C109.123 176.25 108.965 176.215 108.819 176.151C108.673 176.087 108.541 175.996 108.431 175.883C108.32 175.77 108.234 175.637 108.177 175.492C108.12 175.346 108.093 175.191 108.098 175.036C108.103 174.88 108.139 174.727 108.205 174.585C108.27 174.444 108.364 174.316 108.481 174.209C108.699 174.003 110.717 172.242 112.869 172.524C113.403 172.599 113.911 172.793 114.355 173.09C114.799 173.387 115.167 173.779 115.429 174.236C117.503 177.514 116.083 183.751 114.49 184.986C113.936 185.366 113.267 185.553 112.589 185.517Z" stroke="#263238" stroke-linecap="round" stroke-linejoin="round"/>
<path d="M110.454 171.538H97.0105V188.833H110.454V171.538Z" fill="white"/>
<mask id="mask16_33_605" style="mask-type:luminance" maskUnits="userSpaceOnUse" x="97" y="171" width="14" height="18">
<path d="M110.454 171.538H97.0105V188.833H110.454V171.538Z" fill="white"/>
</mask>
<g mask="url(#mask16_33_605)">
<path d="M102.517 171.538H97.0105V188.833H102.517V171.538Z" fill="#17586E"/>
<path opacity="0.5" d="M102.517 171.538H97.0105V188.833H102.517V171.538Z" fill="white"/>
</g>
<path d="M110.454 171.538H97.0105V188.833H110.454V171.538Z" stroke="#263238" stroke-linecap="round" stroke-linejoin="round"/>
<path d="M184.33 188.595H126.899L125.027 157.991C124.975 157.695 124.99 157.391 125.072 157.1C125.153 156.81 125.298 156.54 125.497 156.309C125.697 156.078 125.945 155.892 126.226 155.764C126.507 155.635 126.813 155.567 127.123 155.564H184.084C184.396 155.564 184.705 155.63 184.989 155.757C185.272 155.884 185.523 156.07 185.725 156.301C185.927 156.532 186.074 156.803 186.156 157.095C186.239 157.387 186.255 157.693 186.203 157.991L184.33 188.595Z" fill="#263238" stroke="#263238" stroke-linecap="round" stroke-linejoin="round"/>
<path d="M129.728 156.295H183.671C183.975 156.292 184.277 156.354 184.555 156.476C184.832 156.598 185.079 156.777 185.278 157.001C185.476 157.225 185.622 157.488 185.704 157.773C185.787 158.057 185.805 158.355 185.756 158.647" stroke="white" stroke-linecap="round" stroke-linejoin="round"/>
<path d="M125.446 158.165C125.491 157.653 125.734 157.176 126.125 156.829C126.517 156.483 127.029 156.292 127.559 156.295" stroke="white" stroke-linecap="round" stroke-linejoin="round"/>
<path d="M184.571 185.615H126.659V188.595H184.571V185.615Z" fill="white" stroke="#263238" stroke-linecap="round" stroke-linejoin="round"/>
<path d="M155.408 174.583C157.674 174.583 159.511 173.515 159.511 172.199C159.511 170.882 157.674 169.814 155.408 169.814C153.142 169.814 151.305 170.882 151.305 172.199C151.305 173.515 153.142 174.583 155.408 174.583Z" fill="white" stroke="#263238" stroke-linecap="round" stroke-linejoin="round"/>
<path d="M271.918 188.243H56.2263V193.32H271.918V188.243Z" fill="#263238"/>
<path d="M215.991 0H112.226C108.728 0 105.893 2.74858 105.893 6.13912V63.8511C105.893 67.2417 108.728 69.9902 112.226 69.9902H215.991C219.489 69.9902 222.325 67.2417 222.325 63.8511V6.13912C222.325 2.74858 219.489 0 215.991 0Z" fill="#17586E"/>
<path d="M166.847 40.2214C176.26 38.7551 182.664 30.17 181.151 21.0461C179.639 11.9223 170.782 5.7146 161.369 7.18091C151.957 8.64721 145.553 17.2322 147.065 26.3561C148.578 35.48 157.435 41.6877 166.847 40.2214Z" fill="#263238"/>
<path d="M163.977 26.7943L158.225 33.9521C158.03 34.2501 157.761 34.4962 157.442 34.6684C157.124 34.8405 156.767 34.9333 156.403 34.9383C155.903 34.9449 155.421 34.7599 155.061 34.4235C154.878 34.2609 154.734 34.0621 154.637 33.8405C154.541 33.6189 154.495 33.3798 154.502 33.1393C154.52 32.6009 154.716 32.0824 155.061 31.6601L161.618 23.7979L155.469 15.9303C155.184 15.5611 155.027 15.1131 155.022 14.6515C155.021 14.3763 155.078 14.1037 155.191 13.851C155.303 13.5983 155.468 13.3709 155.676 13.1831C155.871 12.9858 156.105 12.8288 156.365 12.7217C156.624 12.6146 156.903 12.5596 157.185 12.56C157.546 12.5657 157.9 12.6589 158.215 12.8312C158.529 13.0034 158.794 13.2492 158.985 13.5462L164.542 20.6389L170.132 13.6654C170.331 13.34 170.611 13.0675 170.945 12.8719C171.28 12.6762 171.659 12.5635 172.049 12.5438C172.291 12.5432 172.531 12.591 172.753 12.6842C172.975 12.7775 173.175 12.9141 173.34 13.0856C173.516 13.2464 173.657 13.4403 173.753 13.6556C173.849 13.8708 173.899 14.1028 173.899 14.3373C173.893 14.757 173.744 15.1629 173.474 15.4914L166.895 23.6516L173.251 31.7793C173.551 32.1426 173.718 32.5925 173.726 33.0581C173.728 33.3273 173.669 33.5937 173.554 33.8388C173.439 34.0839 173.271 34.3019 173.061 34.4777C172.651 34.86 172.104 35.0736 171.535 35.0737C171.172 35.0694 170.816 34.9768 170.499 34.8045C170.183 34.6322 169.916 34.3857 169.724 34.0876L163.977 26.7943Z" fill="white"/>
<path d="M196.997 57.8691H131.198C129.864 57.8691 128.584 57.3553 127.641 56.4408C126.698 55.5263 126.167 54.2859 126.167 52.9925C126.167 51.6992 126.698 50.4588 127.641 49.5442C128.584 48.6297 129.864 48.1159 131.198 48.1159H196.997C198.331 48.1159 199.611 48.6297 200.554 49.5442C201.498 50.4588 202.028 51.6992 202.028 52.9925C202.028 54.2859 201.498 55.5263 200.554 56.4408C199.611 57.3553 198.331 57.8691 196.997 57.8691Z" fill="white"/>
<path d="M140.215 54.5639C140.171 54.5639 140.127 54.5553 140.087 54.5385C140.047 54.5217 140.01 54.4972 139.98 54.4664C139.947 54.4345 139.921 54.3965 139.903 54.3546C139.886 54.3126 139.878 54.2677 139.879 54.2225C139.879 54.1462 139.9 54.0713 139.941 54.0058L140.444 53.2472H139.415C139.368 53.2496 139.32 53.2421 139.276 53.2253C139.232 53.2085 139.191 53.1827 139.158 53.1497C139.101 53.0848 139.069 53.0022 139.069 52.9167C139.069 52.8312 139.101 52.7485 139.158 52.6837C139.191 52.6507 139.232 52.6249 139.276 52.6081C139.32 52.5913 139.368 52.5838 139.415 52.5862L140.427 52.6133L139.98 51.9089C139.935 51.8367 139.91 51.7546 139.907 51.6704C139.906 51.6253 139.914 51.5804 139.931 51.5384C139.949 51.4965 139.975 51.4584 140.008 51.4266C140.039 51.3956 140.077 51.371 140.118 51.3543C140.159 51.3375 140.203 51.329 140.248 51.3291C140.311 51.3282 140.372 51.3452 140.425 51.3779C140.478 51.4107 140.519 51.4578 140.544 51.5133L141.036 52.364L141.506 51.5512C141.535 51.488 141.582 51.4338 141.642 51.3947C141.701 51.3555 141.77 51.3328 141.841 51.3291C141.885 51.3291 141.929 51.3377 141.969 51.3545C142.009 51.3713 142.046 51.3958 142.076 51.4266C142.109 51.4564 142.135 51.4925 142.152 51.5327C142.169 51.5728 142.178 51.6161 142.177 51.6596C142.176 51.7365 142.153 51.8117 142.11 51.8763L141.618 52.6403L142.641 52.6133C142.688 52.6105 142.736 52.6178 142.78 52.6347C142.825 52.6515 142.865 52.6775 142.898 52.7108C142.955 52.7756 142.987 52.8583 142.987 52.9438C142.987 53.0293 142.955 53.1119 142.898 53.1768C142.865 53.2101 142.825 53.236 142.78 53.2529C142.736 53.2697 142.688 53.277 142.641 53.2743H141.607L142.065 53.9679C142.117 54.0516 142.145 54.1467 142.149 54.2442C142.15 54.2881 142.143 54.3319 142.126 54.3728C142.11 54.4138 142.085 54.4512 142.054 54.4826C142.024 54.513 141.989 54.5374 141.949 54.5541C141.91 54.5709 141.868 54.5797 141.825 54.5802C141.755 54.5785 141.688 54.5578 141.631 54.5203C141.573 54.4829 141.528 54.4303 141.5 54.3688L141.036 53.5723L140.572 54.3688C140.539 54.4316 140.487 54.4834 140.424 54.5181C140.36 54.5528 140.287 54.5687 140.215 54.5639Z" fill="black"/>
<path d="M145.346 54.5639C145.303 54.5639 145.259 54.5553 145.219 54.5385C145.178 54.5217 145.142 54.4972 145.112 54.4664C145.079 54.4346 145.053 54.3965 145.035 54.3546C145.018 54.3126 145.01 54.2677 145.011 54.2226C145.011 54.1463 145.032 54.0714 145.073 54.0058L145.576 53.2472H144.547C144.5 53.2496 144.452 53.2421 144.408 53.2253C144.363 53.2085 144.323 53.1827 144.29 53.1497C144.233 53.0849 144.201 53.0022 144.201 52.9167C144.201 52.8312 144.233 52.7486 144.29 52.6837C144.323 52.6507 144.363 52.6249 144.408 52.6081C144.452 52.5913 144.5 52.5838 144.547 52.5862L145.559 52.6133L145.084 51.8818C145.039 51.8096 145.014 51.7276 145.011 51.6434C145.01 51.5982 145.018 51.5533 145.035 51.5114C145.053 51.4694 145.079 51.4314 145.112 51.3995C145.143 51.3686 145.18 51.344 145.222 51.3272C145.263 51.3105 145.307 51.3019 145.352 51.302C145.415 51.3011 145.476 51.3181 145.529 51.3509C145.581 51.3836 145.623 51.4307 145.648 51.4862L146.14 52.3369L146.61 51.5242C146.639 51.4609 146.686 51.4068 146.745 51.3676C146.805 51.3284 146.874 51.3057 146.945 51.302C146.989 51.302 147.033 51.3107 147.073 51.3274C147.113 51.3442 147.15 51.3687 147.18 51.3995C147.213 51.4293 147.239 51.4655 147.256 51.5056C147.273 51.5458 147.282 51.589 147.281 51.6325C147.28 51.7095 147.257 51.7846 147.213 51.8493L146.722 52.6133L147.745 52.5862C147.792 52.5835 147.84 52.5908 147.884 52.6076C147.929 52.6244 147.969 52.6504 148.002 52.6837C148.059 52.7486 148.091 52.8312 148.091 52.9167C148.091 53.0022 148.059 53.0849 148.002 53.1497C147.969 53.183 147.929 53.209 147.884 53.2258C147.84 53.2426 147.792 53.25 147.745 53.2472H146.71L147.169 53.9408C147.22 54.0245 147.249 54.1196 147.253 54.2171C147.254 54.261 147.247 54.3048 147.23 54.3458C147.214 54.3868 147.189 54.4241 147.158 54.4556C147.128 54.486 147.093 54.5103 147.053 54.527C147.014 54.5438 146.971 54.5527 146.928 54.5531C146.859 54.5521 146.791 54.5316 146.734 54.4941C146.676 54.4566 146.631 54.4037 146.604 54.3418L146.14 53.5453L145.676 54.3418C145.649 54.4053 145.603 54.46 145.545 54.4993C145.486 54.5387 145.418 54.5611 145.346 54.5639Z" fill="black"/>
<path d="M150.478 54.5639C150.434 54.5639 150.39 54.5553 150.35 54.5385C150.31 54.5217 150.273 54.4972 150.243 54.4664C150.21 54.4346 150.184 54.3965 150.167 54.3546C150.149 54.3126 150.141 54.2677 150.142 54.2226C150.142 54.1463 150.164 54.0714 150.204 54.0058L150.707 53.2472H149.678C149.631 53.2496 149.583 53.2421 149.539 53.2253C149.495 53.2085 149.455 53.1827 149.421 53.1497C149.364 53.0849 149.332 53.0022 149.332 52.9167C149.332 52.8312 149.364 52.7486 149.421 52.6837C149.455 52.6507 149.495 52.6249 149.539 52.6081C149.583 52.5913 149.631 52.5838 149.678 52.5862L150.69 52.6133L150.215 51.8818C150.17 51.8096 150.145 51.7276 150.142 51.6434C150.141 51.5982 150.149 51.5533 150.167 51.5114C150.184 51.4694 150.21 51.4314 150.243 51.3995C150.274 51.3686 150.312 51.344 150.353 51.3272C150.394 51.3105 150.439 51.3019 150.483 51.302C150.546 51.3011 150.607 51.3181 150.66 51.3509C150.713 51.3836 150.754 51.4307 150.78 51.4862L151.272 52.3369L151.741 51.5242C151.771 51.4609 151.818 51.4068 151.877 51.3676C151.936 51.3284 152.005 51.3057 152.077 51.302C152.12 51.302 152.164 51.3107 152.204 51.3274C152.245 51.3442 152.281 51.3687 152.311 51.3995C152.344 51.4293 152.37 51.4655 152.387 51.5056C152.405 51.5458 152.413 51.589 152.412 51.6325C152.411 51.7095 152.388 51.7846 152.345 51.8493L151.853 52.6133L152.876 52.5862C152.923 52.5835 152.971 52.5908 153.015 52.6076C153.06 52.6244 153.1 52.6504 153.133 52.6837C153.19 52.7486 153.222 52.8312 153.222 52.9167C153.222 53.0022 153.19 53.0849 153.133 53.1497C153.1 53.183 153.06 53.209 153.015 53.2258C152.971 53.2426 152.923 53.25 152.876 53.2472H151.842L152.3 53.9408C152.352 54.0245 152.381 54.1196 152.384 54.2171C152.386 54.261 152.378 54.3048 152.362 54.3458C152.345 54.3868 152.321 54.4241 152.289 54.4556C152.26 54.486 152.224 54.5103 152.185 54.527C152.145 54.5438 152.103 54.5527 152.06 54.5531C151.99 54.5521 151.923 54.5316 151.865 54.4941C151.808 54.4566 151.763 54.4037 151.736 54.3418L151.272 53.5453L150.808 54.3418C150.78 54.4053 150.734 54.46 150.676 54.4993C150.618 54.5387 150.549 54.5611 150.478 54.5639Z" fill="black"/>
<path d="M155.632 54.5639C155.588 54.5639 155.545 54.5553 155.504 54.5385C155.464 54.5217 155.427 54.4972 155.397 54.4664C155.364 54.4346 155.338 54.3965 155.321 54.3546C155.303 54.3126 155.295 54.2677 155.296 54.2226C155.296 54.1463 155.318 54.0714 155.358 54.0058L155.861 53.2472H154.833C154.785 53.2496 154.737 53.2421 154.693 53.2253C154.649 53.2085 154.609 53.1827 154.575 53.1497C154.518 53.0849 154.486 53.0022 154.486 52.9167C154.486 52.8312 154.518 52.7486 154.575 52.6837C154.609 52.6507 154.649 52.6249 154.693 52.6081C154.737 52.5913 154.785 52.5838 154.833 52.5862L155.844 52.6133L155.369 51.8818C155.324 51.8096 155.299 51.7276 155.296 51.6434C155.295 51.5982 155.303 51.5533 155.321 51.5114C155.338 51.4694 155.364 51.4314 155.397 51.3995C155.428 51.3686 155.466 51.344 155.507 51.3272C155.548 51.3105 155.593 51.3019 155.637 51.302C155.7 51.3011 155.762 51.3181 155.814 51.3509C155.867 51.3836 155.908 51.4307 155.934 51.4862L156.426 52.3369L156.895 51.5242C156.925 51.4609 156.972 51.4068 157.031 51.3676C157.09 51.3284 157.159 51.3057 157.231 51.302C157.274 51.302 157.318 51.3107 157.358 51.3274C157.399 51.3442 157.435 51.3687 157.465 51.3995C157.498 51.4293 157.524 51.4655 157.541 51.5056C157.559 51.5458 157.567 51.589 157.566 51.6325C157.565 51.7095 157.542 51.7846 157.499 51.8493L157.007 52.6133L158.03 52.5862C158.078 52.5835 158.125 52.5908 158.17 52.6076C158.214 52.6244 158.254 52.6504 158.287 52.6837C158.345 52.7486 158.376 52.8312 158.376 52.9167C158.376 53.0022 158.345 53.0849 158.287 53.1497C158.254 53.183 158.214 53.209 158.17 53.2258C158.125 53.2426 158.078 53.25 158.03 53.2472H156.996L157.454 53.9408C157.506 54.0245 157.535 54.1196 157.538 54.2171C157.54 54.261 157.532 54.3048 157.516 54.3458C157.499 54.3868 157.475 54.4241 157.443 54.4556C157.414 54.486 157.378 54.5103 157.339 54.527C157.299 54.5438 157.257 54.5527 157.214 54.5531C157.145 54.5514 157.077 54.5307 157.02 54.4933C156.962 54.4558 156.917 54.4033 156.89 54.3418L156.426 53.5453L155.962 54.3418C155.934 54.4053 155.888 54.46 155.83 54.4993C155.772 54.5387 155.703 54.5611 155.632 54.5639Z" fill="black"/>
<path d="M160.741 54.5639C160.697 54.5639 160.654 54.5553 160.613 54.5385C160.573 54.5218 160.537 54.4972 160.506 54.4664C160.473 54.4346 160.447 54.3965 160.43 54.3546C160.413 54.3126 160.404 54.2677 160.406 54.2226C160.408 54.1466 160.429 54.0724 160.467 54.0058L160.97 53.2472H159.942C159.894 53.2496 159.847 53.2421 159.802 53.2253C159.758 53.2085 159.718 53.1827 159.685 53.1497C159.627 53.0849 159.595 53.0022 159.595 52.9167C159.595 52.8312 159.627 52.7486 159.685 52.6837C159.718 52.6507 159.758 52.6249 159.802 52.6081C159.847 52.5913 159.894 52.5838 159.942 52.5862L160.953 52.6133L160.478 51.8818C160.433 51.8096 160.408 51.7276 160.406 51.6434C160.404 51.5982 160.413 51.5533 160.43 51.5114C160.447 51.4694 160.473 51.4314 160.506 51.3995C160.538 51.3686 160.575 51.344 160.616 51.3272C160.658 51.3105 160.702 51.3019 160.747 51.302C160.809 51.3011 160.871 51.3181 160.923 51.3509C160.976 51.3836 161.018 51.4307 161.043 51.4862L161.535 52.3369L162.004 51.5242C162.034 51.4609 162.081 51.4068 162.14 51.3676C162.199 51.3284 162.268 51.3057 162.34 51.302C162.384 51.3014 162.427 51.3097 162.468 51.3265C162.508 51.3433 162.545 51.3682 162.574 51.3995C162.607 51.4293 162.633 51.4655 162.65 51.5056C162.668 51.5458 162.676 51.589 162.675 51.6325C162.674 51.7095 162.651 51.7846 162.608 51.8493L162.116 52.6133L163.139 52.5862C163.187 52.5835 163.234 52.5908 163.279 52.6076C163.323 52.6244 163.363 52.6504 163.396 52.6837C163.454 52.7486 163.485 52.8312 163.485 52.9167C163.485 53.0022 163.454 53.0849 163.396 53.1497C163.363 53.183 163.323 53.209 163.279 53.2258C163.234 53.2426 163.187 53.25 163.139 53.2472H162.105L162.563 53.9408C162.615 54.0245 162.644 54.1196 162.647 54.2171C162.649 54.261 162.641 54.3048 162.625 54.3458C162.608 54.3868 162.584 54.4241 162.552 54.4556C162.523 54.486 162.487 54.5103 162.448 54.527C162.408 54.5438 162.366 54.5527 162.323 54.5531C162.254 54.5515 162.186 54.5307 162.129 54.4933C162.072 54.4558 162.026 54.4033 161.999 54.3418L161.535 53.5453L161.071 54.3418C161.043 54.4053 160.998 54.46 160.939 54.4993C160.881 54.5387 160.812 54.5611 160.741 54.5639Z" fill="black"/>
<path d="M165.872 54.5639C165.828 54.5639 165.785 54.5553 165.745 54.5385C165.704 54.5218 165.668 54.4972 165.638 54.4664C165.604 54.4346 165.579 54.3965 165.561 54.3546C165.544 54.3126 165.536 54.2677 165.537 54.2226C165.54 54.1466 165.561 54.0724 165.598 54.0058L166.102 53.2472H165.079C165.03 53.25 164.982 53.2428 164.936 53.226C164.891 53.2091 164.85 53.1831 164.816 53.1497C164.758 53.0849 164.727 53.0022 164.727 52.9167C164.727 52.8312 164.758 52.7486 164.816 52.6837C164.85 52.6503 164.891 52.6243 164.936 52.6075C164.982 52.5906 165.03 52.5834 165.079 52.5862L166.085 52.6133L165.61 51.8818C165.565 51.8096 165.54 51.7276 165.537 51.6434C165.536 51.5982 165.544 51.5533 165.561 51.5114C165.579 51.4694 165.604 51.4314 165.638 51.3995C165.669 51.3686 165.706 51.344 165.748 51.3272C165.789 51.3105 165.833 51.3019 165.878 51.302C165.941 51.3011 166.002 51.3181 166.055 51.3509C166.107 51.3836 166.149 51.4307 166.174 51.4862L166.666 52.3369L167.136 51.5242C167.165 51.4609 167.212 51.4068 167.271 51.3676C167.33 51.3284 167.4 51.3057 167.471 51.302C167.515 51.3014 167.559 51.3097 167.599 51.3265C167.64 51.3433 167.676 51.3682 167.706 51.3995C167.739 51.4293 167.764 51.4655 167.782 51.5056C167.799 51.5458 167.808 51.589 167.806 51.6325C167.806 51.7095 167.782 51.7846 167.739 51.8493L167.247 52.6133L168.27 52.5862C168.318 52.5835 168.366 52.5908 168.41 52.6076C168.454 52.6244 168.495 52.6504 168.528 52.6837C168.585 52.7486 168.617 52.8312 168.617 52.9167C168.617 53.0022 168.585 53.0849 168.528 53.1497C168.495 53.183 168.454 53.209 168.41 53.2258C168.366 53.2426 168.318 53.25 168.27 53.2472H167.236L167.695 53.9408C167.746 54.0245 167.775 54.1196 167.779 54.2171C167.78 54.261 167.773 54.3048 167.756 54.3458C167.74 54.3868 167.715 54.4241 167.683 54.4556C167.654 54.486 167.619 54.5103 167.579 54.527C167.54 54.5438 167.497 54.5527 167.454 54.5531C167.385 54.5515 167.318 54.5307 167.26 54.4933C167.203 54.4558 167.158 54.4033 167.13 54.3418L166.666 53.5453L166.202 54.3418C166.175 54.4053 166.129 54.46 166.071 54.4993C166.012 54.5387 165.943 54.5611 165.872 54.5639Z" fill="black"/>
<path d="M171.004 54.5639C170.96 54.5639 170.917 54.5553 170.876 54.5385C170.836 54.5217 170.799 54.4972 170.769 54.4664C170.736 54.4345 170.71 54.3965 170.693 54.3546C170.675 54.3126 170.667 54.2677 170.669 54.2225C170.668 54.1462 170.69 54.0713 170.73 54.0058L171.233 53.2472H170.205C170.157 53.2496 170.11 53.2421 170.065 53.2253C170.021 53.2085 169.981 53.1827 169.947 53.1497C169.89 53.0848 169.858 53.0022 169.858 52.9167C169.858 52.8312 169.89 52.7485 169.947 52.6837C169.981 52.6507 170.021 52.6249 170.065 52.6081C170.11 52.5913 170.157 52.5838 170.205 52.5862L171.216 52.6133L170.724 51.9089C170.68 51.8367 170.655 51.7546 170.652 51.6704C170.65 51.6253 170.659 51.5804 170.676 51.5384C170.693 51.4965 170.719 51.4584 170.752 51.4266C170.784 51.3956 170.821 51.371 170.862 51.3543C170.904 51.3375 170.948 51.329 170.993 51.3291C171.055 51.3282 171.117 51.3452 171.17 51.3779C171.222 51.4107 171.264 51.4578 171.289 51.5133L171.781 52.364L172.25 51.5512C172.28 51.488 172.327 51.4338 172.386 51.3947C172.445 51.3555 172.514 51.3328 172.586 51.3291C172.63 51.3284 172.674 51.3368 172.714 51.3536C172.754 51.3704 172.791 51.3953 172.821 51.4266C172.853 51.4564 172.879 51.4925 172.897 51.5327C172.914 51.5728 172.922 51.6161 172.921 51.6596C172.921 51.7365 172.897 51.8117 172.854 51.8763L172.362 52.6403L173.385 52.6133C173.433 52.6105 173.48 52.6178 173.525 52.6347C173.569 52.6515 173.609 52.6775 173.642 52.7108C173.7 52.7756 173.731 52.8583 173.731 52.9438C173.731 53.0293 173.7 53.1119 173.642 53.1768C173.609 53.2101 173.569 53.236 173.525 53.2529C173.48 53.2697 173.433 53.277 173.385 53.2743H172.351L172.809 53.9679C172.861 54.0516 172.89 54.1467 172.893 54.2442C172.895 54.2881 172.887 54.3319 172.871 54.3729C172.855 54.4138 172.83 54.4512 172.798 54.4826C172.769 54.513 172.733 54.5374 172.694 54.5541C172.655 54.5709 172.612 54.5797 172.569 54.5802C172.5 54.5785 172.433 54.5578 172.375 54.5203C172.318 54.4829 172.273 54.4303 172.245 54.3688L171.781 53.5723L171.317 54.3688C171.287 54.425 171.242 54.4725 171.187 54.5067C171.132 54.5409 171.069 54.5606 171.004 54.5639Z" fill="black"/>
<path d="M176.135 54.5639C176.092 54.5639 176.048 54.5552 176.008 54.5385C175.967 54.5217 175.931 54.4972 175.901 54.4664C175.868 54.4345 175.842 54.3965 175.824 54.3545C175.807 54.3126 175.799 54.2677 175.8 54.2225C175.803 54.1466 175.824 54.0723 175.862 54.0058L176.365 53.2472H175.342C175.294 53.2507 175.246 53.2437 175.202 53.2268C175.157 53.21 175.117 53.1836 175.085 53.1497C175.024 53.0864 174.99 53.0032 174.99 52.9167C174.99 52.8302 175.024 52.7469 175.085 52.6837C175.117 52.6498 175.157 52.6234 175.202 52.6065C175.246 52.5896 175.294 52.5827 175.342 52.5861L176.348 52.6132L175.873 51.8817C175.828 51.8096 175.803 51.7275 175.8 51.6433C175.799 51.599 175.806 51.5549 175.823 51.5135C175.839 51.4722 175.864 51.4344 175.896 51.4026C175.928 51.3707 175.966 51.3454 176.008 51.3281C176.05 51.3108 176.095 51.3019 176.141 51.302C176.204 51.3011 176.265 51.3181 176.318 51.3508C176.37 51.3836 176.412 51.4307 176.437 51.4862L176.929 52.3369L177.399 51.5241C177.428 51.4609 177.475 51.4067 177.534 51.3676C177.594 51.3284 177.663 51.3057 177.734 51.302C177.778 51.3006 177.822 51.3086 177.863 51.3255C177.903 51.3423 177.94 51.3676 177.969 51.3995C178.002 51.4293 178.028 51.4654 178.045 51.5056C178.062 51.5457 178.071 51.589 178.07 51.6325C178.069 51.7094 178.046 51.7846 178.002 51.8492L177.511 52.6132L178.534 52.5861C178.581 52.5834 178.629 52.5907 178.673 52.6076C178.718 52.6244 178.758 52.6504 178.791 52.6837C178.848 52.7485 178.88 52.8312 178.88 52.9167C178.88 53.0022 178.848 53.0848 178.791 53.1497C178.758 53.183 178.718 53.2089 178.673 53.2258C178.629 53.2426 178.581 53.2499 178.534 53.2472H177.499L177.958 53.9408C178.009 54.0245 178.038 54.1196 178.042 54.2171C178.043 54.2598 178.036 54.3024 178.02 54.3424C178.005 54.3824 177.981 54.419 177.951 54.4502C177.921 54.4814 177.885 54.5066 177.845 54.5242C177.805 54.5418 177.761 54.5516 177.717 54.553C177.648 54.5514 177.581 54.5307 177.523 54.4932C177.466 54.4558 177.421 54.4032 177.393 54.3417L176.929 53.5452L176.465 54.3417C176.438 54.4053 176.392 54.4599 176.334 54.4993C176.275 54.5386 176.206 54.561 176.135 54.5639Z" fill="black"/>
<path d="M181.267 54.5639C181.223 54.5639 181.179 54.5552 181.139 54.5385C181.099 54.5217 181.062 54.4972 181.032 54.4664C180.999 54.4345 180.973 54.3965 180.956 54.3545C180.938 54.3126 180.93 54.2677 180.931 54.2225C180.934 54.1466 180.955 54.0723 180.993 54.0058L181.496 53.2472H180.467C180.421 53.2499 180.374 53.2425 180.33 53.2256C180.287 53.2088 180.248 53.1828 180.216 53.1497C180.155 53.0864 180.121 53.0032 180.121 52.9167C180.121 52.8302 180.155 52.7469 180.216 52.6837C180.248 52.6505 180.287 52.6246 180.33 52.6077C180.374 52.5908 180.421 52.5835 180.467 52.5861L181.479 52.6132L181.004 51.8817C180.959 51.8096 180.934 51.7275 180.931 51.6433C180.93 51.599 180.938 51.5549 180.954 51.5135C180.971 51.4722 180.995 51.4344 181.027 51.4026C181.059 51.3707 181.097 51.3454 181.139 51.3281C181.181 51.3108 181.227 51.3019 181.272 51.302C181.335 51.3011 181.396 51.3181 181.449 51.3508C181.502 51.3836 181.543 51.4307 181.569 51.4862L182.061 52.3369L182.53 51.5241C182.56 51.4609 182.607 51.4067 182.666 51.3676C182.725 51.3284 182.794 51.3057 182.865 51.302C182.91 51.3006 182.953 51.3086 182.994 51.3255C183.035 51.3423 183.071 51.3676 183.1 51.3995C183.133 51.4293 183.159 51.4654 183.176 51.5056C183.194 51.5457 183.202 51.589 183.201 51.6325C183.2 51.7094 183.177 51.7846 183.134 51.8492L182.642 52.6132L183.665 52.5861C183.712 52.5834 183.76 52.5907 183.804 52.6076C183.849 52.6244 183.889 52.6504 183.922 52.6837C183.979 52.7485 184.011 52.8312 184.011 52.9167C184.011 53.0022 183.979 53.0848 183.922 53.1497C183.889 53.183 183.849 53.2089 183.804 53.2258C183.76 53.2426 183.712 53.2499 183.665 53.2472H182.631L183.089 53.9408C183.141 54.0245 183.17 54.1196 183.173 54.2171C183.174 54.2598 183.167 54.3024 183.152 54.3424C183.136 54.3824 183.113 54.419 183.083 54.4502C183.053 54.4814 183.016 54.5066 182.976 54.5242C182.936 54.5418 182.893 54.5516 182.849 54.553C182.78 54.5514 182.712 54.5307 182.655 54.4932C182.597 54.4558 182.552 54.4032 182.525 54.3417L182.061 53.5452L181.597 54.3417C181.569 54.4053 181.523 54.4599 181.465 54.4993C181.407 54.5386 181.338 54.561 181.267 54.5639Z" fill="black"/>
<path d="M186.377 54.5639C186.333 54.5639 186.289 54.5552 186.249 54.5385C186.209 54.5217 186.172 54.4972 186.142 54.4664C186.109 54.4345 186.083 54.3965 186.066 54.3545C186.048 54.3126 186.04 54.2677 186.041 54.2225C186.044 54.1466 186.065 54.0723 186.103 54.0058L186.606 53.2472H185.577C185.531 53.2499 185.484 53.2425 185.44 53.2256C185.397 53.2088 185.358 53.1828 185.326 53.1497C185.265 53.0864 185.231 53.0032 185.231 52.9167C185.231 52.8302 185.265 52.7469 185.326 52.6837C185.358 52.6505 185.397 52.6246 185.44 52.6077C185.484 52.5908 185.531 52.5835 185.577 52.5861L186.589 52.6132L186.114 51.8817C186.069 51.8096 186.044 51.7275 186.041 51.6433C186.04 51.5982 186.048 51.5533 186.066 51.5113C186.083 51.4694 186.109 51.4313 186.142 51.3995C186.173 51.3685 186.211 51.3439 186.252 51.3272C186.293 51.3104 186.337 51.3019 186.382 51.302C186.445 51.3011 186.506 51.3181 186.559 51.3508C186.612 51.3836 186.653 51.4307 186.678 51.4862L187.17 52.3369L187.64 51.5241C187.67 51.4609 187.716 51.4067 187.776 51.3676C187.835 51.3284 187.904 51.3057 187.975 51.302C188.019 51.3006 188.063 51.3086 188.104 51.3255C188.144 51.3423 188.181 51.3676 188.21 51.3995C188.243 51.4293 188.269 51.4654 188.286 51.5056C188.303 51.5457 188.312 51.589 188.311 51.6325C188.31 51.7094 188.287 51.7846 188.244 51.8492L187.752 52.6132L188.775 52.5861C188.822 52.5834 188.87 52.5907 188.914 52.6076C188.959 52.6244 188.999 52.6504 189.032 52.6837C189.089 52.7485 189.121 52.8312 189.121 52.9167C189.121 53.0022 189.089 53.0848 189.032 53.1497C188.999 53.183 188.959 53.2089 188.914 53.2258C188.87 53.2426 188.822 53.2499 188.775 53.2472H187.741L188.199 53.9408C188.251 54.0245 188.28 54.1196 188.283 54.2171C188.284 54.261 188.277 54.3048 188.26 54.3457C188.244 54.3867 188.219 54.4241 188.188 54.4555C188.158 54.4859 188.123 54.5102 188.083 54.527C188.044 54.5438 188.002 54.5526 187.959 54.553C187.889 54.5514 187.822 54.5307 187.765 54.4932C187.707 54.4558 187.662 54.4032 187.634 54.3417L187.17 53.5452L186.706 54.3417C186.679 54.4053 186.633 54.4599 186.575 54.4993C186.516 54.5386 186.448 54.561 186.377 54.5639Z" fill="black"/>
<path d="M203.962 66.5495H210.799" stroke="white" stroke-width="3" stroke-linecap="round" stroke-linejoin="round"/>
<path d="M109.14 17.7563V61.7705C109.14 63.0452 109.663 64.2676 110.592 65.169C111.522 66.0703 112.783 66.5767 114.098 66.5767H197.472" stroke="white" stroke-width="3" stroke-linecap="round" stroke-linejoin="round"/>
<path d="M109.14 6.08493V12.6846" stroke="white" stroke-width="3" stroke-linecap="round" stroke-linejoin="round"/>
</svg>
