<svg width="23" height="24" viewBox="0 0 23 24" fill="none" xmlns="http://www.w3.org/2000/svg">
<g filter="url(#filter0_i_501_187)">
<path d="M20 11.6367C20.4688 11.957 20.8867 12.3203 21.2539 12.7266C21.6211 13.1328 21.9375 13.5781 22.2031 14.0625C22.4687 14.5469 22.6641 15.0586 22.7891 15.5977C22.9141 16.1367 22.9844 16.6875 23 17.25C23 18.1797 22.8242 19.0547 22.4727 19.875C22.1211 20.6953 21.6367 21.4102 21.0195 22.0195C20.4023 22.6289 19.6875 23.1094 18.875 23.4609C18.0625 23.8125 17.1875 23.9922 16.25 24C15.5391 24 14.8516 23.8945 14.1875 23.6836C13.5234 23.4727 12.9141 23.168 12.3594 22.7695C11.8047 22.3711 11.3125 21.8945 10.8828 21.3398C10.4531 20.7852 10.1211 20.1719 9.88672 19.5H0.5V1.5H3.5V0H5V1.5H15.5V0H17V1.5H20V11.6367ZM2 3V6H18.5V3H17V4.5H15.5V3H5V4.5H3.5V3H2ZM9.53516 18C9.51172 17.7578 9.5 17.5078 9.5 17.25C9.5 16.5781 9.59375 15.9258 9.78125 15.293C9.96875 14.6602 10.2539 14.0625 10.6367 13.5H9.5V12H11V13.0078C11.3203 12.6094 11.6758 12.2578 12.0664 11.9531C12.457 11.6484 12.8789 11.3867 13.332 11.168C13.7852 10.9492 14.2578 10.7852 14.75 10.6758C15.2422 10.5664 15.7422 10.5078 16.25 10.5C17.0312 10.5 17.7813 10.6289 18.5 10.8867V7.5H2V18H9.53516ZM16.25 22.5C16.9766 22.5 17.6562 22.3633 18.2891 22.0898C18.9219 21.8164 19.4766 21.4414 19.9531 20.9648C20.4297 20.4883 20.8047 19.9336 21.0781 19.3008C21.3516 18.668 21.4922 17.9844 21.5 17.25C21.5 16.5234 21.3633 15.8438 21.0898 15.2109C20.8164 14.5781 20.4414 14.0234 19.9648 13.5469C19.4883 13.0703 18.9336 12.6953 18.3008 12.4219C17.668 12.1484 16.9844 12.0078 16.25 12C15.5234 12 14.8438 12.1367 14.2109 12.4102C13.5781 12.6836 13.0234 13.0586 12.5469 13.5352C12.0703 14.0117 11.6953 14.5664 11.4219 15.1992C11.1484 15.832 11.0078 16.5156 11 17.25C11 17.9766 11.1367 18.6562 11.4102 19.2891C11.6836 19.9219 12.0586 20.4766 12.5352 20.9531C13.0117 21.4297 13.5664 21.8047 14.1992 22.0781C14.832 22.3516 15.5156 22.4922 16.25 22.5ZM17 16.5H19.25V18H15.5V13.5H17V16.5ZM3.5 12H5V13.5H3.5V12ZM6.5 12H8V13.5H6.5V12ZM6.5 9H8V10.5H6.5V9ZM3.5 15H5V16.5H3.5V15ZM6.5 15H8V16.5H6.5V15ZM11 10.5H9.5V9H11V10.5ZM14 10.5H12.5V9H14V10.5ZM17 10.5H15.5V9H17V10.5Z" fill="#17586E"/>
</g>
<defs>
<filter id="filter0_i_501_187" x="0.5" y="0" width="22.5" height="28" filterUnits="userSpaceOnUse" color-interpolation-filters="sRGB">
<feFlood flood-opacity="0" result="BackgroundImageFix"/>
<feBlend mode="normal" in="SourceGraphic" in2="BackgroundImageFix" result="shape"/>
<feColorMatrix in="SourceAlpha" type="matrix" values="0 0 0 0 0 0 0 0 0 0 0 0 0 0 0 0 0 0 127 0" result="hardAlpha"/>
<feOffset dy="4"/>
<feGaussianBlur stdDeviation="2"/>
<feComposite in2="hardAlpha" operator="arithmetic" k2="-1" k3="1"/>
<feColorMatrix type="matrix" values="0 0 0 0 0 0 0 0 0 0 0 0 0 0 0 0 0 0 0.25 0"/>
<feBlend mode="normal" in2="shape" result="effect1_innerShadow_501_187"/>
</filter>
</defs>
</svg>
