<svg width="193" height="147" viewBox="0 0 193 147" fill="none" xmlns="http://www.w3.org/2000/svg">
<g clip-path="url(#clip0_496_183)">
<path d="M192.5 146.627H0.5C2.60381 140.05 6.48899 134.471 11.9658 132.816C19.9777 130.398 28.4563 137.046 36.4503 134.547C40.9919 133.128 44.5674 128.993 48.3245 125.561C62.4988 112.607 81.923 108.778 98.6954 115.635C107.463 119.217 115.452 125.481 124.433 128.145C136.046 131.59 148.191 128.733 160.134 128.263C171.765 127.803 188.431 133.613 192.5 146.627Z" fill="#C1AF92"/>
<path d="M114.666 108.102H90.3926V141.783H114.666V108.102Z" fill="#17586E"/>
<path d="M161.607 0.5H43.451C40.8636 0.5 38.7661 3.07108 38.7661 6.24266V118.833C38.7661 122.005 40.8636 124.576 43.451 124.576H161.607C164.195 124.576 166.292 122.005 166.292 118.833V6.24266C166.292 3.07108 164.195 0.5 161.607 0.5Z" fill="#17586E"/>
<path d="M161.316 4.4165H43.7417C42.5978 4.4165 41.6704 5.55322 41.6704 6.95543V105.449C41.6704 106.852 42.5978 107.988 43.7417 107.988H161.316C162.46 107.988 163.387 106.852 163.387 105.449V6.95543C163.387 5.55322 162.46 4.4165 161.316 4.4165Z" fill="white"/>
<path d="M122.33 138.764H82.7282C80.9855 138.764 79.5728 140.496 79.5728 142.632C79.5728 144.768 80.9855 146.5 82.7282 146.5H122.33C124.073 146.5 125.486 144.768 125.486 142.632C125.486 140.496 124.073 138.764 122.33 138.764Z" fill="#17586E"/>
<path d="M127.764 24.7754H77.2949V71.3927H127.764V24.7754Z" fill="#EEE8D8"/>
<path d="M113.41 81.2104H91.6484V87.9438H113.41V81.2104Z" fill="#EEE8D8"/>
<path d="M103.234 37.5452H101.825V58.6229H103.234V37.5452Z" fill="white"/>
<path d="M111.127 47.2209H93.9316V48.9475H111.127V47.2209Z" fill="white"/>
<path d="M19.2305 60.1071C19.2305 60.1071 20.6003 59.3859 20.6003 54.9747L23.3538 54.6309C23.3538 54.6309 22.7862 58.5286 24.0748 59.9133L19.2305 60.1071Z" fill="#E98862"/>
<path d="M19.1751 53.1209C19.2741 54.4693 19.7817 55.7876 20.7097 56.3131C21.7185 56.9253 22.8342 57.2256 23.9595 57.1878C26.9486 57.1878 26.9148 48.8531 25.6126 47.103C24.3104 45.3529 20.1053 45.9561 19.4223 48.594C19.069 49.9593 19.0811 51.8376 19.1751 53.1209Z" fill="#E98862"/>
<path d="M19.6675 58.9082C19.6675 58.9082 20.9845 58.0521 20.6905 53.6556L23.4118 53.0371C23.4118 53.0371 23.1052 56.9787 24.4827 58.2302L19.6675 58.9082Z" fill="#E98862"/>
<path d="M19.1462 51.9508C19.3346 53.2847 19.9284 54.5477 20.8883 54.9783C22.0278 55.4898 22.8718 55.5243 24.1856 55.5243C25.9784 55.5243 25.9191 53.2325 25.9695 50.9229C26.0206 48.604 25.8695 46.1169 25.161 45.3088C23.7472 43.6959 19.5956 44.7173 19.0907 47.4149C18.8296 48.8105 18.9669 50.6813 19.1462 51.9508Z" fill="#E98862"/>
<path d="M26.9304 46.6497C26.9304 46.6497 27.6646 46.4488 27.4636 45.5512C27.3304 44.9561 26.7083 45.0883 26.7083 45.0883C26.7083 45.0883 27.2973 44.9561 27.2973 44.3258C27.2973 43.9291 27.0483 43.2557 26.2973 43.6403C25.416 44.0915 24.4108 44.0337 23.6467 43.8761C23.2143 43.7601 22.7754 43.6842 22.3337 43.6489H22.3315C21.8238 43.638 21.3177 43.721 20.8302 43.8951C19.4641 44.3962 17.3647 45.9039 17.8362 49.3013C18.3455 52.9732 20.1698 54.587 20.4209 54.8102C20.8927 55.2307 23.7935 55.3159 24.0809 54.9636C24.5111 54.4362 24.7452 52.3159 24.658 48.6219C25.8467 48.3923 26.6637 48.2929 26.6637 48.2929C26.6637 48.2929 27.6516 48.3382 27.6516 47.4531C27.6516 46.568 26.9304 46.6497 26.9304 46.6497Z" fill="#0F1011"/>
<path d="M25.5253 51.3621C25.5461 51.6999 25.457 52.0341 25.2775 52.2917C25.098 52.5493 24.8426 52.7094 24.5671 52.7369C24.2916 52.7645 24.0184 52.6574 23.8072 52.4389C23.5959 52.2204 23.4638 51.9084 23.4396 51.5709C23.426 51.4025 23.4401 51.2324 23.4813 51.0708C23.5224 50.9093 23.5896 50.7595 23.6789 50.6305C23.7682 50.5014 23.8778 50.3957 24.0012 50.3197C24.1245 50.2436 24.2591 50.1988 24.3969 50.1878C25.1426 50.1578 25.478 50.6551 25.5253 51.3621Z" fill="#E98862"/>
<path d="M25.4467 53.5064C25.4432 53.8437 25.3314 54.1658 25.1356 54.4028C24.9398 54.6398 24.6756 54.7727 24.4004 54.7727C24.1252 54.7727 23.8611 54.6398 23.6653 54.4028C23.4694 54.1658 23.3577 53.8437 23.3542 53.5064C23.3518 53.3372 23.3773 53.1692 23.429 53.0123C23.4807 52.8553 23.5577 52.7128 23.6553 52.5931C23.7529 52.4735 23.8692 52.3791 23.9972 52.3156C24.1252 52.2522 24.2623 52.221 24.4004 52.2238C25.1456 52.2687 25.4467 52.798 25.4467 53.5064Z" fill="#E98862"/>
<path d="M30.8708 144.241L27.3188 143.723C27.4786 142.075 27.6595 140.095 27.6718 139.771C27.6718 139.792 27.6718 139.809 27.6718 139.822H31.2488C31.2475 139.953 31.2475 140.354 30.8708 144.241Z" fill="#E98862"/>
<path d="M16.6176 144.765L13.0405 144.751C13.0405 144.751 13.0525 140.223 13.0525 139.823H16.6295C16.6295 140.225 16.6176 144.765 16.6176 144.765Z" fill="#E98862"/>
<path d="M32.1898 142.725C31.8937 133.536 31.8758 123.885 31.7832 114.672C30.553 104.735 29.9063 93.8358 28.3877 83.969L28.3422 83.9855L28.209 82.8726L15.2509 81.8923C15.2509 81.8923 14.913 89.6755 14.7951 92.2694C14.1635 106.173 12.8816 128.519 12.1187 142.607L18.3987 143.258C19.5202 129.402 21.0086 107.329 22.0221 93.6733C23.1342 100.632 24.5238 108.468 25.5114 115.509C25.7276 124.503 25.9083 133.876 25.8887 142.856L32.1898 142.725Z" fill="#262626"/>
<path d="M20.9655 146.461C21.0617 146.46 21.1568 146.435 21.2448 146.388C21.3328 146.34 21.4118 146.271 21.4769 146.184C21.5421 146.097 21.592 145.995 21.6234 145.884C21.6549 145.772 21.6673 145.654 21.6598 145.537C21.6495 145.374 21.6013 145.218 21.5211 145.087C21.4408 144.957 21.3318 144.857 21.2069 144.8L17.0435 143.09C16.9629 143.058 16.8774 143.047 16.793 143.058C16.7086 143.07 16.6272 143.103 16.5543 143.157C15.982 143.644 15.2973 143.893 14.6009 143.867C14.0586 143.82 13.5379 143.586 13.0984 143.194C13.0598 143.155 13.013 143.131 12.9634 143.123C12.9138 143.116 12.8635 143.126 12.8183 143.152C12.7732 143.178 12.7351 143.22 12.7085 143.272C12.6819 143.323 12.6678 143.383 12.668 143.445V145.94C12.6679 146.014 12.6798 146.087 12.7028 146.155C12.7259 146.223 12.7596 146.284 12.8022 146.336C12.8447 146.388 12.8953 146.43 12.9508 146.457C13.0064 146.485 13.0659 146.5 13.126 146.499L20.9655 146.461Z" fill="#C1D8ED"/>
<path d="M35.2282 146.461C35.3244 146.46 35.4195 146.435 35.5075 146.388C35.5955 146.34 35.6745 146.271 35.7397 146.184C35.8049 146.097 35.8547 145.995 35.8862 145.884C35.9177 145.772 35.9301 145.654 35.9227 145.537C35.9123 145.374 35.8641 145.218 35.7839 145.087C35.7036 144.957 35.5947 144.857 35.4697 144.8L31.3062 143.09C31.2256 143.058 31.1401 143.047 31.0557 143.058C30.9713 143.07 30.8899 143.103 30.817 143.157C30.2447 143.644 29.56 143.893 28.8636 143.867C28.3213 143.82 27.8008 143.586 27.3613 143.194C27.3226 143.155 27.2758 143.131 27.2262 143.123C27.1766 143.116 27.1263 143.126 27.0812 143.152C27.036 143.178 26.9979 143.22 26.9713 143.272C26.9446 143.323 26.9305 143.383 26.9307 143.445V145.94C26.9306 146.014 26.9425 146.087 26.9655 146.155C26.9886 146.223 27.0223 146.284 27.0649 146.336C27.1074 146.388 27.158 146.429 27.2135 146.457C27.2691 146.485 27.3286 146.5 27.3887 146.499L35.2282 146.461Z" fill="#C1D8ED"/>
<path d="M34.5604 67.2219L34.6396 67.2637L33.6489 67.4597L34.6215 69.7356C34.6215 69.7356 38.228 70.7701 39.9154 68.4429C39.9583 68.3836 39.9857 68.3098 39.9938 68.2312C40.002 68.1525 39.9906 68.0727 39.9612 68.0021C39.9317 67.9315 39.8856 67.8734 39.8288 67.8355C39.772 67.7975 39.7072 67.7815 39.6429 67.7894C38.6704 67.9103 36.9361 68.0544 36.1551 67.6767C36.4985 67.4699 36.9541 67.1534 36.8826 66.9642C36.6942 66.4671 35.0612 67.1227 34.5604 67.2219Z" fill="#E98862"/>
<path d="M31.2529 68.4954L31.5732 68.7397H31.2529V68.4954Z" fill="#FD5D76"/>
<path d="M74.8434 28.4739V68.7397H33.004L31.2529 65.9565V28.4739H74.8434Z" fill="#17586E"/>
<path d="M36.5366 56.6049L44.2232 48.406L52.9333 56.6049H36.5366Z" fill="white"/>
<path d="M45.5874 56.6049L59.2626 44.5669L69.5595 56.6049H45.5874Z" fill="white"/>
<path d="M50.0434 44.7751C50.982 44.7751 51.743 43.8423 51.743 42.6917C51.743 41.5411 50.982 40.6084 50.0434 40.6084C49.1047 40.6084 48.3438 41.5411 48.3438 42.6917C48.3438 43.8423 49.1047 44.7751 50.0434 44.7751Z" fill="white"/>
<path d="M45.249 67.2219L45.3282 67.2637L44.3374 67.4597L45.31 69.7356C45.31 69.7356 48.9165 70.7701 50.604 68.4429C50.647 68.3836 50.6743 68.3098 50.6825 68.2312C50.6906 68.1525 50.6793 68.0727 50.6498 68.0021C50.6204 67.9315 50.5742 67.8734 50.5175 67.8355C50.4607 67.7975 50.3959 67.7815 50.3315 67.7894C49.3589 67.9103 47.6247 68.0544 46.8437 67.6767C47.1871 67.4699 47.6428 67.1534 47.5712 66.9642C47.3828 66.4671 45.7502 67.1227 45.249 67.2219Z" fill="#E98862"/>
<path d="M44.7335 66.7044L35.7134 70.2846L35.0803 68.7395H33.0046L28.4907 61.5675C27.9797 60.3506 27.0139 59.561 25.2993 59.471C24.6156 59.435 21.2784 59.4292 18.8352 59.4292C17.1937 59.4292 15.8462 60.0464 15.0681 61.0004C12.3852 64.2891 15.6782 69.8931 15.6782 74.2796C15.6782 78.6662 14.0601 80.6307 14.1793 82.8819C14.3667 86.42 28.39 85.5839 29.1046 83.5743C29.7614 81.7242 28.6428 80.505 28.4415 75.4428L31.3891 73.6276L32.1824 74.8858C32.4161 75.2573 32.7378 75.5311 33.1034 75.6699C33.4689 75.8087 33.8606 75.8056 34.2247 75.661L45.8773 71.0356L44.7335 66.7044ZM28.6094 70.2422C28.6373 69.9443 28.6661 69.6459 28.6958 69.3469L29.0775 69.9537L28.6094 70.2422Z" fill="#17586E"/>
<path d="M19.5868 49.4107C19.4867 49.4108 19.3899 49.3677 19.3132 49.289C19.2364 49.2102 19.1848 49.1009 19.1672 48.9802C19.1497 48.8595 19.1674 48.735 19.2172 48.6287C19.2671 48.5223 19.3459 48.4409 19.4398 48.3987C19.5789 48.3508 19.7089 48.2694 19.822 48.1592C19.9352 48.049 20.0292 47.9122 20.0987 47.7568C20.1847 47.488 20.1899 47.1904 20.1133 46.9173C20.0731 46.789 20.0758 46.6465 20.1207 46.5206C20.1657 46.3948 20.2493 46.2957 20.3535 46.2449C20.4576 46.1942 20.5739 46.1958 20.6771 46.2495C20.7803 46.3031 20.8621 46.4045 20.9047 46.5316C21.0665 47.0625 21.0578 47.6489 20.8802 48.1721C20.7671 48.4591 20.6069 48.7143 20.4097 48.9218C20.2124 49.1294 19.9823 49.2848 19.7338 49.3783C19.6867 49.3997 19.637 49.4106 19.5868 49.4107Z" fill="#262626"/>
<path d="M171.405 145.753C174.856 144.83 178.234 143.504 181.533 139.147C182.209 138.254 182.868 137.088 182.614 135.908C182.423 135.019 181.734 134.391 181.005 134.172C180.733 134.094 180.455 134.055 180.176 134.056C180.174 134.056 180.173 134.056 180.173 134.056C179.743 134.065 179.315 134.122 178.893 134.226L178.773 134.255C176.764 134.732 174.823 135.569 173.014 136.741C172.85 136.846 172.662 136.88 172.48 136.838C172.298 136.795 172.133 136.679 172.012 136.507C171.892 136.335 171.822 136.118 171.815 135.891C171.807 135.664 171.863 135.441 171.972 135.258C172.171 134.927 172.398 134.62 172.648 134.345C173.016 133.947 173.414 133.593 173.836 133.286C174.398 132.869 174.991 132.507 175.573 132.133C177.736 130.748 179.806 129.152 181.761 127.362C183.158 126.083 184.535 124.645 185.291 122.719C185.638 121.834 185.841 120.792 185.565 119.869C185.11 118.354 183.56 117.78 182.247 117.946C179.948 118.239 177.998 120.082 176.254 121.939C174.806 123.483 173.188 125.19 171.271 125.092C170.943 125.095 170.621 124.98 170.346 124.762C169.829 124.3 169.755 123.348 170.001 122.625C170.247 121.901 170.738 121.354 171.212 120.829C173.964 117.781 176.686 114.593 178.607 110.704C180.528 106.816 181.588 102.097 180.753 97.6654C180.508 96.3709 180.093 95.0906 179.376 94.0925C178.658 93.0945 177.602 92.4049 176.517 92.4673C175.039 92.5496 173.832 93.9462 172.982 95.429C170.061 100.519 169.757 107.099 168.61 113.161C168.289 114.858 167.874 116.589 166.941 117.915C166.855 118.043 166.747 118.147 166.625 118.219C165.904 118.635 165.356 117.587 165.156 116.725C164.369 113.317 164.379 109.515 162.747 106.591C162.125 105.477 161.201 104.504 160.103 104.398C158.763 104.269 157.519 105.52 157.018 107.05C156.517 108.58 156.632 110.311 156.941 111.915C157.516 114.889 158.728 117.634 160.21 120.092C160.992 121.389 161.885 122.711 162.035 124.312C162.077 124.855 162.005 125.402 161.827 125.902C161.648 126.401 161.368 126.836 161.013 127.166C160.848 127.314 160.66 127.42 160.46 127.477C160.261 127.535 160.054 127.542 159.852 127.5C159.416 127.404 159.037 127.088 158.672 126.78C158.519 126.651 158.366 126.52 158.211 126.391C157.602 125.877 156.993 125.362 156.384 124.846C154.835 123.536 152.95 122.165 151.185 122.967C150.284 123.377 149.649 124.303 149.303 125.406C148.993 126.407 148.917 127.495 149.083 128.546C149.439 130.735 152.207 137.011 153.414 138.681C154.819 140.632 159.598 148.912 171.405 145.753Z" fill="#EEE8D8"/>
</g>
<defs>
<clipPath id="clip0_496_183">
<rect width="192" height="146" fill="white" transform="translate(0.5 0.5)"/>
</clipPath>
</defs>
</svg>
