<svg width="193" height="147" viewBox="0 0 193 147" fill="none" xmlns="http://www.w3.org/2000/svg">
<path d="M177.193 146.5C179.261 146.5 181.306 146.077 183.207 145.257C185.108 144.437 186.825 143.236 188.254 141.728C189.683 140.22 190.794 138.435 191.522 136.481C192.249 134.527 192.576 132.444 192.485 130.359C191.981 118.857 184.743 102.373 165.013 87.4859C137.636 66.8298 154.159 18.4671 118.223 13.5419C59.1552 5.44661 64.4121 59.5866 27.9393 78.8889C4.72269 91.1752 0.501517 115.215 0.5 131.067C0.503734 135.163 2.11829 139.09 4.9886 141.984C7.85892 144.878 11.75 146.502 15.8061 146.5H177.193Z" fill="#17586E"/>
<path d="M57.1693 108.459L139.788 108.459V0.500046L57.1693 0.500046L57.1693 108.459Z" fill="white"/>
<path d="M139.288 107.959L57.6693 107.959L57.6693 1.00005L139.288 1.00005V107.959Z" stroke="black" stroke-opacity="0.5"/>
<path d="M83.1402 16.7917C83.1402 18.6202 82.6019 20.4077 81.5934 21.928C80.5849 23.4483 79.1515 24.6333 77.4745 25.333C75.7974 26.0328 73.952 26.2159 72.1717 25.8591C70.3913 25.5024 68.7559 24.6219 67.4724 23.329C66.1888 22.036 65.3147 20.3887 64.9605 18.5953C64.6064 16.802 64.7882 14.9431 65.4828 13.2538C66.1775 11.5645 67.3538 10.1206 68.8632 9.10474C70.3725 8.08889 72.147 7.54667 73.9622 7.54667C75.1685 7.54298 76.3636 7.7796 77.4788 8.2429C78.594 8.7062 79.6072 9.38704 80.4602 10.2463C81.3132 11.1055 81.9891 12.1261 82.449 13.2494C82.909 14.3728 83.1439 15.5766 83.1402 16.7917Z" fill="#C1D8ED"/>
<path d="M73.9621 17.7444C75.9688 17.7444 77.5956 16.1057 77.5956 14.0844C77.5956 12.063 75.9688 10.4243 73.9621 10.4243C71.9554 10.4243 70.3286 12.063 70.3286 14.0844C70.3286 16.1057 71.9554 17.7444 73.9621 17.7444Z" fill="#17586E"/>
<path d="M80.5762 23.2023C79.7198 24.0987 78.6926 24.8117 77.5562 25.2987C76.4197 25.7858 75.1974 26.0368 73.9624 26.0368C72.7274 26.0368 71.5051 25.7858 70.3687 25.2987C69.2322 24.8117 68.205 24.0987 67.3486 23.2023C68.5862 20.4165 71.0844 18.5125 73.9623 18.5125C76.8402 18.5125 79.3387 20.4165 80.5762 23.2023Z" fill="#17586E"/>
<path d="M105.409 7.60425H86.8799V13.2447H105.409V7.60425Z" fill="#17586E"/>
<path d="M132.172 16.7336H86.8799V18.7859H132.172V16.7336Z" fill="#C1AF92"/>
<path d="M132.172 22.2747H86.8799V24.3269H132.172V22.2747Z" fill="#C1AF92"/>
<path d="M80.406 31.8293H64.7847V34.2531H80.406V31.8293Z" fill="#C1AF92"/>
<path d="M132.173 36.9482H64.7847V43.2512H132.173V36.9482Z" fill="#EEE8D8"/>
<path d="M80.406 47.8909H64.7847V50.3146H80.406V47.8909Z" fill="#C1AF92"/>
<path d="M132.173 53.0098H64.7847V59.3127H132.173V53.0098Z" fill="#EEE8D8"/>
<path d="M80.406 63.9524H64.7847V66.3761H80.406V63.9524Z" fill="#C1AF92"/>
<path d="M132.173 69.0715H64.7847V75.3745H132.173V69.0715Z" fill="#EEE8D8"/>
<path d="M80.406 80.0137H64.7847V82.4374H80.406V80.0137Z" fill="#C1AF92"/>
<path d="M132.173 85.1331H64.7847V91.436H132.173V85.1331Z" fill="#EEE8D8"/>
<path d="M106.025 96.7747H90.9316V101.387H106.025V96.7747Z" fill="#17586E"/>
<path d="M91.4316 97.2747H105.525V100.887H91.4316V97.2747Z" stroke="black" stroke-opacity="0.5"/>
<path d="M44.0903 49.1221C44.0903 49.1221 45.7658 48.2271 45.3918 43.6311L48.8537 42.9844C48.8537 42.9844 48.4647 47.1052 50.2162 48.4135L44.0903 49.1221Z" fill="#E98862"/>
<path d="M43.4279 41.849C43.6675 43.2433 44.4229 44.5639 45.644 45.014C47.0936 45.5488 48.1673 45.585 49.8387 45.585C52.1194 45.585 52.044 43.189 52.1081 40.7746C52.1731 38.3505 51.9809 35.7502 51.0795 34.9054C49.2809 33.2195 43.9995 34.2873 43.3572 37.1074C43.025 38.5672 43.1997 40.5217 43.4279 41.849Z" fill="#E98862"/>
<path d="M53.3305 36.3072C53.3305 36.3072 54.2645 36.097 54.0088 35.1588C53.8393 34.5365 53.048 34.6747 53.048 34.6747C53.048 34.6747 53.7973 34.5365 53.7973 33.8776C53.7973 33.4628 53.4805 32.7591 52.5251 33.1612C51.4039 33.6329 50.1254 33.5722 49.1531 33.4076C48.6032 33.2863 48.0449 33.2069 47.4831 33.1701H47.48C46.8342 33.1588 46.1903 33.2455 45.5701 33.4275C43.8322 33.9513 41.1617 35.5275 41.7613 39.0793C42.4094 42.9179 44.73 44.6047 45.0494 44.8383C45.6496 45.2779 49.3399 45.3669 49.7057 44.9987C50.2531 44.4473 50.5508 42.2305 50.4396 38.3688C51.9521 38.1276 52.9912 38.0248 52.9912 38.0248C52.9912 38.0248 54.248 38.0724 54.248 37.1469C54.248 36.2214 53.3305 36.3072 53.3305 36.3072Z" fill="#0F1011"/>
<path d="M51.5436 41.2327C51.57 41.5859 51.4567 41.9353 51.2283 42.2046C50.9999 42.4738 50.675 42.6412 50.3245 42.67C49.9741 42.6988 49.6266 42.5868 49.3578 42.3584C49.0891 42.13 48.921 41.8038 48.8902 41.451C48.8728 41.2749 48.8909 41.0971 48.9432 40.9282C48.9955 40.7592 49.0811 40.6027 49.1947 40.4677C49.3084 40.3328 49.4478 40.2223 49.6047 40.1428C49.7617 40.0633 49.9329 40.0164 50.1082 40.0049C51.0569 39.9748 51.4833 40.4945 51.5436 41.2327Z" fill="#E98862"/>
<path d="M59.6169 143.943L54.7212 143.357C54.9416 141.49 55.1901 139.248 55.2075 138.88C55.2075 138.904 55.2075 138.924 55.2075 138.938H60.1376C60.1366 139.087 60.1366 139.54 59.6169 143.943Z" fill="#E98862"/>
<path d="M39.9727 144.536L35.0425 144.52C35.0425 144.52 35.0589 139.392 35.0589 138.938H39.9891C39.9891 139.394 39.9727 144.536 39.9727 144.536Z" fill="#E98862"/>
<path d="M61.436 142.226C61.0277 131.953 61.0258 120.748 60.876 110.457C59.2075 99.1969 58.279 86.8571 56.1955 75.6779L56.1329 75.6965L55.9493 74.4359L38.0887 74.0891L33.7715 142.093L42.427 142.829L47.8597 86.5029C49.5857 94.8071 50.7435 103.418 52.2707 111.639C52.2707 111.639 52.7847 132.25 52.7503 142.375L61.436 142.226Z" fill="#262626"/>
<path d="M45.9655 146.457C46.0921 146.457 46.2174 146.431 46.3342 146.382C46.451 146.332 46.557 146.26 46.6462 146.17C46.7353 146.079 46.8059 145.972 46.8539 145.854C46.9018 145.736 46.9262 145.609 46.9256 145.482C46.9256 145.458 46.9245 145.433 46.9226 145.409C46.9083 145.225 46.842 145.048 46.7314 144.9C46.6208 144.752 46.4705 144.64 46.2983 144.575L40.5601 142.639C40.4489 142.602 40.3311 142.589 40.2147 142.602C40.0983 142.615 39.9861 142.654 39.8857 142.714C39.0969 143.266 38.1531 143.548 37.1933 143.519C36.4458 143.465 35.7283 143.201 35.1226 142.757C35.0694 142.713 35.0048 142.685 34.9365 142.677C34.8682 142.668 34.7989 142.68 34.7367 142.709C34.6745 142.739 34.622 142.786 34.5853 142.845C34.5486 142.903 34.5292 142.971 34.5293 143.041V145.867C34.5293 146.035 34.5955 146.196 34.7134 146.315C34.8312 146.433 34.991 146.5 35.1577 146.5H35.1605L45.9655 146.457Z" fill="#C1D8ED"/>
<path d="M65.6237 146.457C65.7503 146.457 65.8756 146.431 65.9924 146.382C66.1092 146.332 66.2152 146.26 66.3044 146.17C66.3935 146.079 66.4641 145.972 66.5121 145.854C66.56 145.736 66.5844 145.609 66.5838 145.482C66.5838 145.458 66.5838 145.433 66.5808 145.409C66.5665 145.225 66.5002 145.048 66.3896 144.9C66.279 144.752 66.1287 144.64 65.9565 144.575L60.2183 142.639C60.1071 142.602 59.9893 142.589 59.8729 142.602C59.7565 142.615 59.6443 142.654 59.5439 142.714C58.7551 143.266 57.8113 143.548 56.8515 143.519C56.104 143.465 55.3865 143.201 54.7808 142.757C54.7276 142.713 54.663 142.685 54.5947 142.677C54.5264 142.668 54.4571 142.68 54.3949 142.709C54.3327 142.739 54.2802 142.786 54.2435 142.845C54.2068 142.903 54.1874 142.971 54.1875 143.041V145.867C54.1875 146.035 54.2537 146.196 54.3716 146.315C54.4894 146.433 54.6492 146.5 54.8159 146.5H54.8187L65.6237 146.457Z" fill="#C1D8ED"/>
<path d="M32.8323 81.8464C32.8323 82.5512 33.2007 84.9073 32.6076 85.0756C32.2514 85.1764 31.8306 83.4206 31.8306 83.4206" fill="#E98862"/>
<path d="M30.027 81.4764C30.027 81.4764 28.0869 86.233 30.2998 88.9659C30.3562 89.0354 30.4322 89.0862 30.5177 89.1116C30.6033 89.137 30.6944 89.1358 30.7793 89.1082C30.8641 89.0805 30.9388 89.0277 30.9934 88.9567C31.048 88.8857 31.08 88.7997 31.0853 88.71C31.1937 86.8676 31.562 83.0831 32.7677 83.5251V80.554" fill="#E98862"/>
<path d="M73.7747 56.1339C73.7747 56.1339 76.4833 53.966 76.676 53.1872C76.8686 52.4083 74.9593 50.8769 74.9593 50.8769C74.9593 50.8769 77.4968 48.3013 76.9908 47.9269C76.3936 47.486 73.4492 51.2334 73.4492 51.2334C73.4492 51.2334 73.8655 49.8851 73.3469 49.7967C73.1339 49.7604 72.9651 49.9713 72.6318 50.9252C72.252 52.0124 71.4927 53.6486 71.4927 53.6486L73.7747 56.1339Z" fill="#E98862"/>
<path d="M70.9219 53.2513L62.9073 62.3341L56.6306 51.0166C56.0343 49.2402 54.6854 48.048 51.9379 47.9306C50.9955 47.8898 46.396 47.8826 43.0286 47.8826C40.7661 47.8826 38.9089 48.581 37.8365 49.6622C37.2963 50.1984 36.8921 50.8577 36.6579 51.5843L36.6256 51.5723L31.2367 66.3318C31.176 66.4974 31.1324 66.6687 31.1066 66.8433L28.9321 81.6041L33.9956 82.3611L36.132 67.8633L38.308 61.9026C38.5345 62.8187 38.6581 63.7576 38.6764 64.7016C38.6764 69.6688 36.4468 71.895 36.61 74.4438C36.8685 78.4511 56.1966 77.5043 57.1815 75.2281C58.1954 72.8805 56.1374 71.4345 56.228 63.7562C56.2378 62.9209 56.3019 62.0467 56.3901 61.1568L60.1935 68.0147C60.3927 68.3739 60.6742 68.6798 61.0147 68.9069C61.3552 69.1341 61.7447 69.2758 62.1507 69.3204C62.5567 69.365 62.9674 69.311 63.3484 69.1631C63.7295 69.0152 64.0699 68.7776 64.3412 68.4701L74.8785 56.0537L70.9219 53.2513Z" fill="#17586E"/>
<path d="M28.4147 128.2C27.3312 127.843 26.2194 128.244 25.1554 129.059C26.5567 125.495 27.1351 122.275 24.7393 122.13C23.063 122.028 21.7789 123.324 20.8033 125.166C20.4603 121.927 19.5751 119.512 17.5924 120.313C15.4155 121.192 15.0842 124.205 15.4144 127.357C14.4556 125.747 13.4228 124.849 12.4852 125.794C9.68702 128.612 16.5553 136.555 16.5553 136.555H18.2611L19.2345 137.619C19.0375 138.039 18.9296 138.289 18.9296 138.289L20.166 140.823C20.166 140.823 32.9115 129.683 28.4147 128.2Z" fill="#EEE8D8"/>
<path d="M25.3564 146.5H15.7028L14.0869 135.148H26.9723L25.3564 146.5Z" fill="#C1D8ED"/>
<path d="M161.826 102.993C161.299 102.818 160.758 103.015 160.24 103.411C160.922 101.677 161.203 100.11 160.038 100.04C159.222 99.9906 158.597 100.621 158.123 101.517C157.956 99.9415 157.525 98.7665 156.561 99.1559C155.502 99.5837 155.34 101.049 155.501 102.583C155.034 101.8 154.532 101.363 154.076 101.822C152.715 103.193 156.056 107.058 156.056 107.058H156.886L157.36 107.575C157.264 107.78 157.211 107.901 157.211 107.901L157.813 109.134C157.813 109.134 164.014 103.714 161.826 102.993Z" fill="#EEE8D8"/>
<path d="M160.338 111.896H155.642L154.856 106.373H161.125L160.338 111.896Z" fill="#C1D8ED"/>
<path d="M151.376 143.72H148.872V146.5H151.376V143.72Z" fill="#C1D8ED"/>
<path d="M175.193 143.72H172.69V146.5H175.193V143.72Z" fill="#C1D8ED"/>
<path d="M177.348 112.025H166.845V144.042H177.348V112.025Z" fill="#C1D8ED"/>
<path d="M148.839 112.735H138.083V143.72H148.839V112.735Z" fill="#C1D8ED"/>
<path d="M167.552 144.042H137.376V112.025H167.552V144.042ZM138.791 142.617H166.138V113.451H138.791V142.617Z" fill="#DEE8F5"/>
<path d="M167.552 144.043H137.376V126.39H167.552V144.043ZM138.791 142.617H166.138V127.816H138.791V142.617Z" fill="#DEE8F5"/>
<path d="M151.056 115.99V118.029V126.379H163.875V118.029V115.99H151.056Z" fill="#C1D8ED"/>
<path d="M159.673 118.029H146.854V126.379H159.673V118.029Z" fill="#DEE8F5"/>
<path d="M159.673 118.029H146.854V118.655H159.673V118.029Z" fill="#C1D8ED"/>
<path d="M146.854 118.029H159.673V115.99H146.854V118.029Z" fill="#DEE8F5"/>
<path d="M154.684 119.706H151.843C151.68 119.706 151.547 119.839 151.547 120.004V120.662C151.547 120.827 151.68 120.96 151.843 120.96H154.684C154.847 120.96 154.979 120.827 154.979 120.662V120.004C154.979 119.839 154.847 119.706 154.684 119.706Z" fill="white"/>
<path d="M141.807 143.72H139.304V146.5H141.807V143.72Z" fill="#DEE8F5"/>
<path d="M165.625 143.72H163.122V146.5H165.625V143.72Z" fill="#DEE8F5"/>
<path d="M162.778 139.438H148.841V142.617H162.778V139.438Z" fill="#C1D8ED"/>
<path d="M163.016 133.088H149.08V136.267H163.016V133.088Z" fill="#C1D8ED"/>
<path d="M158.021 139.438H143.284V142.617H158.021V139.438Z" fill="#DEE8F5"/>
<g opacity="0.62">
<path d="M156.819 139.438H156.104V142.617H156.819V139.438Z" fill="#C1D8ED"/>
</g>
<g opacity="0.62">
<path d="M155.388 139.438H154.672V142.617H155.388V139.438Z" fill="#C1D8ED"/>
</g>
<path d="M144.974 142.053C145.536 142.053 145.991 141.594 145.991 141.028C145.991 140.462 145.536 140.003 144.974 140.003C144.412 140.003 143.956 140.462 143.956 141.028C143.956 141.594 144.412 142.053 144.974 142.053Z" fill="#F3F5FD"/>
<path d="M158.261 133.088H143.523V136.267H158.261V133.088Z" fill="#DEE8F5"/>
<path d="M154.757 133.804H144.472V135.551H154.757V133.804Z" fill="#F3F5FD"/>
<g opacity="0.62">
<path d="M157.058 133.088H155.704V136.267H157.058V133.088Z" fill="#C1D8ED"/>
</g>
<path d="M149.977 139.442H163.914V136.263H149.977V139.442Z" fill="#C1D8ED"/>
<path d="M144.421 139.442H159.158V136.263H144.421V139.442Z" fill="#F3F5FD"/>
<path d="M145.623 139.442H146.338V136.263H145.623V139.442Z" fill="#DEE8F5"/>
<path d="M147.054 139.442H147.77V136.263H147.054V139.442Z" fill="#DEE8F5"/>
<path d="M157.468 138.878C158.03 138.878 158.486 138.419 158.486 137.853C158.486 137.287 158.03 136.828 157.468 136.828C156.906 136.828 156.451 137.287 156.451 137.853C156.451 138.419 156.906 138.878 157.468 138.878Z" fill="#DEE8F5"/>
<path d="M155.377 137.073H148.872V138.632H155.377V137.073Z" fill="#DEE8F5"/>
</svg>
