<svg width="322" height="243" viewBox="0 0 322 243" fill="none" xmlns="http://www.w3.org/2000/svg">
<path d="M26.0217 221.193C26.0217 221.193 -3.76939 201.642 0.400129 158.212C5.01638 110.122 23.9632 104.867 38.3025 97.8066C54.5776 89.7917 68.5052 88.4077 87.1717 48.7972C111.812 -3.49696 156.153 0.0506343 172.936 0.0506343C229.925 0.0506343 229.242 56.5582 256.756 84.6849C282.657 111.156 339.261 168.54 275.151 219.371C241.768 245.833 79.402 254.251 26.0217 221.193Z" fill="#EEE8D8"/>
<path d="M264.334 116.377C290.675 116.377 312.029 95.0233 312.029 68.6818C312.029 42.3403 290.675 20.9863 264.334 20.9863C237.992 20.9863 216.638 42.3403 216.638 68.6818C216.638 95.0233 237.992 116.377 264.334 116.377Z" fill="#17586E"/>
<path d="M257.44 88.0564L239.422 73.6295C237.539 72.1141 236.943 69.4162 238.204 67.3577C239.729 64.8613 243.031 64.3445 245.238 66.1139L261.619 79.2269L282.703 53.3425C284.358 51.3103 287.354 51.0037 289.386 52.6593C291.418 54.3148 291.725 57.3106 290.069 59.3428L267.549 86.979C265.044 90.0536 260.532 90.5354 257.44 88.0564Z" fill="white"/>
<path d="M34.9464 48.0345C34.4909 46.2388 31.0571 45.4592 26.4497 45.8358C25.5474 45.9059 24.7065 45.4066 24.3474 44.5832C22.5079 40.3436 20.1866 37.6895 18.3909 38.1362C16.5952 38.5917 15.8156 42.0254 16.1923 46.6329C16.2624 47.5352 15.7631 48.3761 14.9397 48.7352C10.7001 50.5747 8.04597 52.896 8.4927 54.6917C8.94819 56.4874 12.3819 57.267 16.9894 56.8903C17.8916 56.8202 18.7325 57.3195 19.0917 58.1429C20.9312 62.3825 23.2524 65.0366 25.0481 64.5899C26.8438 64.1344 27.6234 60.7007 27.2468 56.0932C27.1767 55.191 27.676 54.3501 28.4994 53.9909C32.739 52.1427 35.4018 49.8302 34.9464 48.0345Z" fill="#17586E"/>
<path d="M321.979 161.961C322.276 160.139 319.43 158.046 315.059 156.565C314.209 156.276 313.631 155.479 313.631 154.577C313.622 149.961 312.562 146.597 310.731 146.29C308.909 145.992 306.816 148.839 305.336 153.21C305.046 154.06 304.249 154.638 303.347 154.638C298.731 154.647 295.367 155.707 295.061 157.537C294.763 159.359 297.61 161.453 301.981 162.933C302.83 163.222 303.408 164.019 303.408 164.922C303.417 169.538 304.477 172.902 306.308 173.208C308.13 173.506 310.223 170.659 311.704 166.288C311.993 165.439 312.79 164.86 313.692 164.86C318.317 164.852 321.681 163.792 321.979 161.961Z" fill="#C1AF92"/>
<path d="M15.2811 220.422C21.2835 220.422 26.1494 215.556 26.1494 209.554C26.1494 203.551 21.2835 198.685 15.2811 198.685C9.27873 198.685 4.41284 203.551 4.41284 209.554C4.41284 215.556 9.27873 220.422 15.2811 220.422Z" fill="#17586E"/>
<path d="M239.265 208.92H245.236" stroke="#263238" stroke-linecap="round" stroke-linejoin="round"/>
<path d="M35.0967 208.92H234.886" stroke="#263238" stroke-linecap="round" stroke-linejoin="round"/>
<g opacity="0.2">
<path d="M176.372 30.1552C177.709 31.5586 181.718 33.167 181.718 33.167C181.718 33.167 181.972 30.1953 181.963 30.0082C181.87 27.8072 180.391 23.6103 178.016 22.9598C177.618 22.8617 177.204 22.8485 176.8 22.9212C176.397 22.9938 176.013 23.1506 175.675 23.3813C175.336 23.6121 175.049 23.9117 174.834 24.2605C174.619 24.6093 174.479 24.9995 174.425 25.4058C174.135 27.1211 175.24 28.9567 176.372 30.1552Z" fill="black"/>
<path d="M216.276 48.1902C216.303 48.2258 218.129 45.8511 218.227 45.6908C219.359 43.8017 220.455 39.4889 218.82 37.6311C218.542 37.33 218.203 37.0908 217.827 36.9292C217.45 36.7675 217.044 36.687 216.634 36.6929C216.224 36.6988 215.82 36.7909 215.448 36.9633C215.076 37.1357 214.745 37.3845 214.476 37.6935C213.286 38.9632 213.197 41.1062 213.478 42.728C213.808 44.6304 216.276 48.1857 216.276 48.1902Z" fill="black"/>
<path d="M234.307 38.8251C232.151 37.6221 228.155 39.5691 226.542 41.0527C226.404 41.1819 224.457 43.4586 224.501 43.4764H224.546C223.913 43.7794 223.24 44.1135 222.51 44.4878C221.173 45.1962 219.649 46.0115 218.054 47.005C216.334 48.0582 214.677 49.2111 213.091 50.4579C211.313 51.8563 209.664 53.4115 208.164 55.1048L208.11 55.1672C208.404 54.5078 209.17 52.6365 209.211 52.494C209.808 50.3777 209.71 45.9313 207.656 44.568C207.309 44.3506 206.92 44.2089 206.514 44.1521C206.108 44.0953 205.695 44.1245 205.302 44.238C204.908 44.3515 204.543 44.5467 204.23 44.8108C203.917 45.075 203.664 45.4021 203.486 45.7709C202.675 47.3124 203.151 49.402 203.851 50.8901C204.635 52.5697 207.7 55.1761 207.945 55.3855C206.45 57.1321 205.075 58.9778 203.829 60.9101C203.093 62.0328 202.389 63.1823 201.699 64.3496C201.935 63.7704 202.144 63.2491 202.144 63.1734C202.741 61.0571 202.643 56.6107 200.59 55.2474C200.242 55.03 199.853 54.8883 199.448 54.8315C199.042 54.7747 198.629 54.8039 198.236 54.9174C197.842 55.0309 197.477 55.2261 197.164 55.4902C196.851 55.7544 196.597 56.0815 196.419 56.4503C195.609 57.9918 196.085 60.0814 196.785 61.5739C197.484 63.0664 200.059 65.3565 200.745 65.949C200.487 66.3946 200.22 66.8401 199.961 67.2856C198.718 69.4465 197.489 71.6073 196.219 73.6924C195.773 74.4275 195.306 75.1314 194.838 75.8443C195.047 75.3275 195.221 74.8953 195.239 74.824C195.836 72.7033 195.738 68.2569 193.684 66.8936C193.336 66.6771 192.947 66.5362 192.541 66.4801C192.136 66.4239 191.723 66.4537 191.33 66.5676C190.936 66.6815 190.571 66.8769 190.258 67.141C189.946 67.4052 189.692 67.7323 189.514 68.101C188.703 69.6425 189.179 71.732 189.879 73.2201C190.578 74.7082 192.904 76.7844 193.719 77.4928C193.22 78.2012 192.721 78.9185 192.205 79.5823C191.844 80.0278 191.527 80.4734 191.135 80.9189L190.022 82.2065C189.282 82.9995 188.52 83.8193 187.794 84.5723C187.282 85.1025 186.787 85.597 186.288 86.096C186.734 85.3698 187.598 83.9307 187.656 83.8015C188.391 82.009 188.655 80.0578 188.422 78.1343C188.511 77.9376 188.583 77.7333 188.636 77.524C188.749 77.1304 188.778 76.7174 188.721 76.3119C188.664 75.9064 188.522 75.5175 188.305 75.1704C188.087 74.8233 187.8 74.5258 187.46 74.2973C187.12 74.0687 186.736 73.9142 186.333 73.8439C183.891 73.4963 180.861 76.7487 179.895 78.7447C179.841 78.865 179.364 80.1971 179.075 81.0481C179.168 80.5224 179.266 80.0145 179.356 79.4754C179.538 78.4061 179.69 77.3368 179.855 76.1829C179.917 75.626 179.979 75.0602 180.042 74.4899C180.104 73.9196 180.122 73.3226 180.166 72.7345C180.238 71.3622 180.242 69.9722 180.215 68.5688C181.151 68.7247 184.479 69.2415 186.079 68.8272C187.678 68.4128 189.589 67.4549 190.258 65.8466C190.429 65.4743 190.52 65.0701 190.524 64.6604C190.529 64.2507 190.447 63.8446 190.283 63.4687C190.12 63.0928 189.88 62.7556 189.577 62.479C189.275 62.2024 188.918 61.9927 188.529 61.8635C186.154 61.1284 182.666 63.9085 181.432 65.6906C181.356 65.802 180.599 67.201 180.202 67.9807C180.18 67.1342 180.162 66.2966 180.113 65.4411C179.97 62.9818 179.748 60.5002 179.538 58.0186C179.471 57.2567 179.418 56.4993 179.36 55.7419C179.69 55.8043 183.637 56.4993 185.428 56.036C187.019 55.6261 188.934 54.6637 189.607 53.0553C189.777 52.6829 189.867 52.2789 189.87 51.8696C189.874 51.4603 189.792 51.0547 189.629 50.6793C189.466 50.3038 189.226 49.9667 188.924 49.6899C188.623 49.413 188.267 49.2026 187.879 49.0723C185.517 48.3594 182.029 51.1173 180.777 52.9261C180.679 53.0643 179.596 55.0781 179.347 55.5993C179.222 53.9286 179.11 52.2623 179.066 50.6183C178.995 48.3882 179.069 46.1558 179.289 43.9353C179.44 43.962 183.552 44.7061 185.388 44.2338C186.983 43.8239 188.899 42.8616 189.567 41.2532C189.738 40.881 189.829 40.4768 189.834 40.067C189.838 39.6573 189.756 39.2512 189.593 38.8754C189.43 38.4995 189.189 38.1622 188.887 37.8856C188.585 37.609 188.227 37.3993 187.838 37.2702C185.482 36.5528 181.993 39.3151 180.737 41.124C180.656 41.2443 179.846 42.7769 179.454 43.5165L179.32 43.4764C179.597 41.2549 180.074 39.0629 180.746 36.9271C181.098 35.7464 181.503 34.6371 181.922 33.5678C182.67 33.7861 186.119 34.7395 187.816 34.4945C189.514 34.2494 191.456 33.5143 192.298 31.9951C192.509 31.6435 192.643 31.2517 192.692 30.8449C192.741 30.4382 192.704 30.0257 192.583 29.6341C192.463 29.2426 192.261 28.8808 191.992 28.5722C191.723 28.2635 191.391 28.015 191.02 27.8427C188.752 26.8714 184.983 29.2328 183.535 30.8946C183.459 30.9837 182.759 31.9906 182.26 32.7302C182.456 32.249 182.652 31.75 182.848 31.2956C183.579 29.5803 184.359 28.0566 185.076 26.711C185.482 25.9492 185.86 25.272 186.221 24.6393C187.072 24.4656 190.485 23.7483 191.857 22.7503C193.229 21.7523 194.633 20.2063 194.677 18.4643C194.703 18.0554 194.642 17.6457 194.498 17.262C194.355 16.8783 194.132 16.5291 193.844 16.2374C193.557 15.9456 193.211 15.7177 192.829 15.5687C192.448 15.4196 192.039 15.3527 191.63 15.3723C189.171 15.5549 186.912 19.382 186.395 21.5251C186.35 21.7122 185.981 24.6839 186.03 24.675H186.079C185.718 25.2764 185.339 25.9269 184.938 26.6442C184.207 27.9808 183.392 29.4867 182.617 31.1931C181.768 33.0218 181.024 34.8976 180.389 36.8113C179.652 38.9598 179.106 41.1693 178.759 43.414C178.761 43.4407 178.761 43.4675 178.759 43.4942C178.638 42.7814 178.242 40.821 178.197 40.6517C177.524 38.5533 174.989 34.8955 172.526 34.8955C172.116 34.9055 171.713 35.0019 171.343 35.1782C170.973 35.3546 170.644 35.607 170.379 35.919C170.113 36.231 169.916 36.5955 169.801 36.9888C169.686 37.3821 169.654 37.7952 169.71 38.2013C169.884 39.9344 171.434 41.4136 172.828 42.269C174.415 43.2358 178.407 43.7215 178.723 43.7571C178.441 46.0404 178.313 48.3401 178.34 50.6406C178.34 51.9772 178.393 53.3138 178.46 54.6815C178.335 54.0667 178.224 53.5187 178.202 53.4474C177.529 51.349 174.994 47.6956 172.53 47.6911C172.121 47.7013 171.719 47.7975 171.35 47.9733C170.981 48.1491 170.652 48.4007 170.387 48.7117C170.121 49.0227 169.924 49.3861 169.808 49.7783C169.692 50.1705 169.66 50.5827 169.714 50.9881C169.888 52.7212 171.438 54.2004 172.833 55.0558C174.227 55.9112 177.654 56.3924 178.554 56.5216C178.585 57.0384 178.611 57.5597 178.643 58.0765C178.799 60.5626 178.963 63.0442 179.053 65.4857C179.088 66.3456 179.084 67.1921 179.088 68.0386C178.981 67.495 178.883 67.0406 178.861 66.9693C178.188 64.8753 175.658 61.2175 173.189 61.213C172.78 61.2236 172.377 61.3205 172.007 61.4974C171.637 61.6743 171.309 61.9273 171.044 62.2397C170.778 62.5521 170.582 62.917 170.467 63.3105C170.353 63.704 170.322 64.1173 170.378 64.5233C170.547 66.2565 172.102 67.7356 173.497 68.591C174.891 69.4465 177.988 69.892 179.057 70.0346C179.03 70.9034 179.008 71.7721 178.95 72.6142C178.892 73.1845 178.879 73.7414 178.794 74.3161C178.709 74.8909 178.643 75.4433 178.571 76.0047C178.389 77.0695 178.211 78.1744 178.01 79.2125C177.872 79.9343 177.729 80.6204 177.591 81.3154C177.569 80.4556 177.489 78.7848 177.466 78.6422C177.119 76.468 175.172 72.4716 172.735 72.0974C172.328 72.046 171.916 72.0808 171.524 72.1995C171.132 72.3182 170.769 72.5181 170.459 72.7862C170.149 73.0544 169.9 73.3847 169.726 73.7558C169.552 74.1268 169.459 74.5303 169.451 74.9399C169.362 76.6774 170.668 78.3749 171.929 79.4353C173.314 80.5981 177.03 81.6629 177.493 81.7877C177.257 82.9327 177.016 84.0421 176.771 85.0846C175.938 88.6712 175.11 91.634 174.495 93.7057L176.032 94.3606L176.072 94.2225C176.647 92.1062 177.409 89.0766 178.197 85.401C178.442 84.2426 178.683 82.9951 178.919 81.7164C180.161 81.742 181.403 81.6959 182.639 81.5783C183.267 83.3292 185.615 86.0693 185.918 86.4212C185.09 87.241 184.274 88.0341 183.495 88.7736C180.821 91.3043 178.496 93.3136 176.843 94.7081L178.527 95.4254C180.113 94.0175 182.18 92.1285 184.51 89.8206C185.357 88.9875 186.243 88.0831 187.143 87.1474C187.535 87.4192 190.708 89.6157 192.49 89.9409C194.107 90.2394 196.25 90.1637 197.533 88.9875C197.844 88.7207 198.096 88.3914 198.272 88.021C198.447 87.6505 198.543 87.2472 198.552 86.8374C198.561 86.4276 198.484 86.0204 198.325 85.6424C198.167 85.2644 197.93 84.9241 197.631 84.6436C195.791 83.0085 191.465 84.051 189.567 85.1693C189.456 85.2317 188.324 86.0603 187.616 86.6351C187.981 86.2475 188.342 85.8777 188.716 85.4767C189.456 84.6881 190.173 83.8772 190.944 83.0085L192.031 81.6986C192.405 81.2531 192.744 80.7674 193.105 80.2996C193.92 79.1947 194.695 78.0363 195.448 76.8557C196.139 77.5017 198.634 79.7694 200.193 80.3085C201.752 80.8476 203.878 81.0971 205.326 80.1259C205.673 79.9092 205.971 79.6217 206.201 79.2822C206.43 78.9427 206.585 78.5587 206.656 78.1552C206.727 77.7518 206.712 77.3379 206.613 76.9405C206.513 76.5431 206.331 76.1711 206.079 75.8488C204.506 73.9508 200.077 74.3295 198.032 75.1448C197.903 75.1938 196.5 75.9468 195.742 76.3745C196.188 75.6616 196.633 74.9488 197.079 74.2092C198.317 72.0796 199.502 69.8831 200.696 67.7C201.062 67.0317 201.43 66.3664 201.801 65.704C202.046 65.9357 204.951 68.6935 206.702 69.2994C208.253 69.8341 210.382 70.088 211.83 69.1168C212.178 68.9005 212.477 68.6133 212.707 68.2739C212.936 67.9346 213.092 67.5507 213.163 67.1472C213.235 66.7437 213.22 66.3297 213.121 65.9321C213.022 65.5346 212.84 65.1623 212.588 64.8397C211.011 62.9417 206.582 63.3204 204.537 64.1357C204.381 64.1981 202.367 65.2807 201.864 65.5837C202.679 64.1179 203.503 62.6699 204.377 61.271C205.546 59.3781 206.836 57.5625 208.239 55.8355C208.351 55.9468 211.358 58.8383 213.162 59.4576C214.717 59.9923 216.847 60.2462 218.291 59.275C218.639 59.0587 218.937 58.7715 219.167 58.4321C219.396 58.0928 219.552 57.7089 219.623 57.3054C219.695 56.9019 219.681 56.4879 219.581 56.0903C219.482 55.6928 219.3 55.3205 219.048 54.9979C217.475 53.0999 213.042 53.4786 210.997 54.2939C210.864 54.3474 209.326 55.185 208.605 55.5815L208.516 55.4701C209.975 53.7732 211.582 52.2092 213.318 50.7965C214.267 50.0079 215.216 49.304 216.152 48.6446C216.66 49.2371 219.008 51.9371 220.558 52.6544C222.109 53.3717 224.123 53.8439 225.677 53.0375C226.047 52.8605 226.374 52.6078 226.64 52.2959C226.905 51.9839 227.101 51.6196 227.216 51.2268C227.331 50.8339 227.363 50.4212 227.308 50.0154C227.253 49.6097 227.113 49.2201 226.898 48.8718C225.562 46.809 221.106 46.6976 218.977 47.2857C218.861 47.3169 217.72 47.7758 216.9 48.1144C217.346 47.8248 217.765 47.5129 218.179 47.2233C219.739 46.1986 221.227 45.3566 222.55 44.6214C223.307 44.2115 224.002 43.8507 224.653 43.5254C225.455 43.8507 228.707 45.1204 230.391 45.058C232.075 44.9957 234.111 44.4655 235.109 43.0398C235.35 42.7162 235.521 42.3461 235.611 41.9531C235.701 41.56 235.709 41.1525 235.634 40.7564C235.558 40.3602 235.401 39.984 235.173 39.6515C234.945 39.3191 234.65 39.0377 234.307 38.8251Z" fill="black"/>
</g>
<g opacity="0.2">
<path d="M105.216 31.0149C103.88 32.4228 99.8698 34.0267 99.8698 34.0312C99.8698 34.0356 99.6158 31.0595 99.6247 30.8679C99.7183 28.667 101.197 24.4745 103.577 23.8196C103.973 23.7257 104.384 23.7158 104.784 23.7905C105.185 23.8651 105.565 24.0227 105.901 24.2531C106.236 24.4834 106.52 24.7815 106.734 25.1281C106.947 25.4747 107.086 25.8621 107.141 26.2656C107.448 27.9809 106.343 29.8209 105.216 31.0149Z" fill="black"/>
<path d="M65.3108 49.05C65.3108 49.0901 63.4618 46.7154 63.3638 46.5506C62.2277 44.6615 61.1406 40.3487 62.7713 38.5132C63.0493 38.2128 63.3873 37.9742 63.7635 37.813C64.1397 37.6518 64.5457 37.5716 64.9549 37.5774C65.3641 37.5833 65.7676 37.6752 66.139 37.8472C66.5104 38.0191 66.8415 38.2673 67.1107 38.5755C68.3003 39.8498 68.3939 41.9883 68.1132 43.61C67.7835 45.4902 65.3152 49.05 65.3108 49.05Z" fill="black"/>
<path d="M47.2793 39.6849C49.4312 38.4819 53.4276 40.4289 55.0405 41.9125C55.1786 42.0417 57.1255 44.3184 57.0855 44.3362H57.0364C57.6691 44.6347 58.3463 44.9689 59.077 45.3476C60.4136 46.056 61.9328 46.8668 63.5323 47.8604C65.2524 48.9161 66.911 50.0689 68.5 51.3133C70.2784 52.7163 71.9302 54.2727 73.4365 55.9646L73.4855 56.0314C73.1914 55.372 72.4296 53.4964 72.385 53.3582C71.7924 51.2375 71.886 46.7911 73.9399 45.4278C74.2877 45.2105 74.6773 45.069 75.0834 45.0125C75.4895 44.9559 75.9029 44.9855 76.2968 45.0995C76.6907 45.2134 77.0561 45.409 77.3693 45.6736C77.6825 45.9382 77.9364 46.2659 78.1145 46.6352C78.9254 48.1723 78.4487 50.2663 77.7492 51.7543C76.9606 53.434 73.8954 56.0403 73.6503 56.2453C75.1456 57.9945 76.5224 59.8416 77.7715 61.7743C78.5022 62.8926 79.2061 64.0465 79.9011 65.2094C79.6605 64.6302 79.4556 64.1134 79.4556 64.0376C78.863 61.9169 78.9566 57.4705 81.0105 56.1072C81.3582 55.8899 81.7479 55.7484 82.1539 55.6919C82.56 55.6353 82.9735 55.6649 83.3674 55.7788C83.7612 55.8928 84.1267 56.0884 84.4399 56.353C84.7531 56.6176 85.007 56.9452 85.1851 57.3146C85.996 58.8561 85.5193 60.9456 84.8198 62.4337C84.1203 63.9218 81.5407 66.2207 80.8546 66.8133C81.1174 67.2588 81.3803 67.7044 81.6387 68.1499C82.8817 70.3107 84.1114 72.4715 85.3812 74.5522C85.8267 75.2873 86.2989 75.9957 86.7623 76.7041C86.5529 76.1917 86.3836 75.7551 86.3613 75.6883C85.7688 73.5676 85.8623 69.1212 87.9162 67.7578C88.264 67.5406 88.6536 67.3991 89.0597 67.3425C89.4658 67.2859 89.8792 67.3156 90.2731 67.4295C90.667 67.5434 91.0324 67.7391 91.3456 68.0037C91.6588 68.2683 91.9128 68.5959 92.0909 68.9652C92.9017 70.5023 92.425 72.5963 91.7255 74.0844C91.026 75.5724 88.6959 77.6486 87.885 78.3526C88.384 79.0654 88.883 79.7783 89.3954 80.4466C89.7607 80.8921 90.0771 81.3376 90.4647 81.7832L91.583 83.0663C92.3225 83.8593 93.0799 84.6791 93.8106 85.4365C94.323 85.9623 94.822 86.4568 95.321 86.9558C94.8754 86.2296 94.0066 84.7905 93.9487 84.6613C93.2123 82.869 92.9499 80.9173 93.1869 78.9941C93.0963 78.799 93.0233 78.5962 92.9686 78.3882C92.8563 77.9943 92.8283 77.5811 92.8863 77.1756C92.9442 76.7702 93.0869 76.3814 93.305 76.0347C93.5231 75.688 93.8118 75.3911 94.1522 75.1633C94.4926 74.9355 94.8772 74.7819 95.2809 74.7126C97.7224 74.3606 100.752 77.6174 101.719 79.6134C101.777 79.7293 102.253 81.0659 102.539 81.9124C102.445 81.3866 102.351 80.8832 102.262 80.3396C102.08 79.2748 101.928 78.2011 101.759 77.0516C101.701 76.4902 101.639 75.9289 101.576 75.3586C101.514 74.7883 101.496 74.1868 101.451 73.5765C101.38 72.2042 101.376 70.8142 101.398 69.4108C100.462 69.5711 97.1343 70.0835 95.5348 69.6736C93.9354 69.2637 92.0285 68.2969 91.3557 66.693C91.1852 66.3203 91.0949 65.916 91.0907 65.5061C91.0866 65.0963 91.1687 64.6902 91.3317 64.3141C91.4948 63.9381 91.735 63.6006 92.037 63.3234C92.3389 63.0463 92.6958 62.8358 93.0844 62.7055C95.4457 61.9926 98.9342 64.7505 100.186 66.5593C100.266 66.6752 101.019 68.0742 101.42 68.8494C101.443 68.0073 101.456 67.1653 101.509 66.3143C101.652 63.855 101.87 61.3689 102.084 58.8873C102.147 58.1299 102.2 57.3725 102.262 56.6106C101.928 56.673 97.9852 57.368 96.1942 56.9091C94.5992 56.4992 92.6834 55.5324 92.0151 53.9285C91.8439 53.5563 91.753 53.1521 91.7486 52.7423C91.7441 52.3326 91.8262 51.9266 91.9893 51.5507C92.1524 51.1748 92.393 50.8375 92.6953 50.5609C92.9977 50.2843 93.3549 50.0746 93.7438 49.9455C96.1006 49.2282 99.5892 51.986 100.846 53.7949C100.939 53.933 102.022 55.9468 102.271 56.4681C102.4 54.8018 102.512 53.1355 102.556 51.487C102.627 49.2643 102.552 47.0394 102.334 44.8263C102.178 44.853 98.0654 45.6015 96.2298 45.1293C94.6393 44.7194 92.7235 43.7526 92.0508 42.1487C91.8764 41.7749 91.7831 41.3685 91.777 40.9561C91.7709 40.5437 91.8522 40.1347 92.0155 39.7559C92.1788 39.3772 92.4204 39.0373 92.7244 38.7586C93.0284 38.4799 93.388 38.2687 93.7794 38.1389C96.1407 37.426 99.6293 40.1839 100.881 41.9927C100.966 42.113 101.772 43.6501 102.169 44.3852L102.302 44.3451C102.021 42.1239 101.542 39.9322 100.872 37.7958C100.52 36.6152 100.115 35.5058 99.7005 34.4365C98.9476 34.6548 95.4992 35.6083 93.8017 35.3677C92.1755 35.136 90.1662 34.3875 89.3197 32.8638C89.1095 32.5123 88.9757 32.1205 88.9269 31.7139C88.8781 31.3073 88.9154 30.895 89.0364 30.5037C89.1574 30.1125 89.3594 29.7511 89.6293 29.4431C89.8992 29.1351 90.2309 28.8873 90.6028 28.7159C92.8705 27.7446 96.6397 30.1015 98.0833 31.7633C98.1635 31.8524 98.8585 32.8593 99.3575 33.5989C99.1614 33.1222 98.9699 32.6232 98.7738 32.1643C98.0387 30.4535 97.259 28.9253 96.5462 27.5842C96.1452 26.8224 95.762 26.1407 95.4012 25.5081C94.5502 25.3343 91.1374 24.617 89.7696 23.6235C88.4019 22.6299 86.9806 21.1017 86.945 19.3553C86.9202 18.9464 86.9817 18.5368 87.1254 18.1532C87.2691 17.7696 87.4919 17.4205 87.7792 17.1285C88.0666 16.8365 88.4121 16.6082 88.7934 16.4584C89.1747 16.3086 89.5832 16.2406 89.9924 16.2588C92.4517 16.4415 94.7106 20.2686 95.2274 22.4161C95.272 22.5987 95.6417 25.5749 95.5972 25.566H95.5437C95.9046 26.1674 96.2878 26.8179 96.6887 27.5352C97.4194 28.8718 98.2303 30.3822 99.0055 32.0841C99.8591 33.9124 100.603 35.7899 101.233 37.7067C101.958 39.8468 102.488 42.0477 102.819 44.2828C102.819 44.3095 102.819 44.3362 102.819 44.363C102.935 43.6501 103.332 41.6675 103.381 41.5205C104.071 39.4042 106.584 35.7642 109.07 35.7597C109.48 35.7711 109.882 35.8685 110.252 36.0456C110.622 36.2226 110.95 36.4755 111.215 36.7876C111.481 37.0998 111.678 37.4643 111.793 37.8575C111.909 38.2508 111.94 38.6639 111.886 39.07C111.712 40.7987 110.157 42.2823 108.767 43.1377C107.185 44.1001 103.194 44.5857 102.873 44.6214C103.156 46.9046 103.286 49.2043 103.26 51.5048C103.26 52.8414 103.202 54.178 103.14 55.5458C103.26 54.9354 103.376 54.3874 103.398 54.3117C104.071 52.2132 106.602 48.5599 109.07 48.5554C109.48 48.5668 109.882 48.6641 110.252 48.8412C110.622 49.0183 110.95 49.2712 111.215 49.5833C111.481 49.8955 111.678 50.26 111.793 50.6532C111.909 51.0464 111.94 51.4595 111.886 51.8657C111.712 53.5944 110.157 55.078 108.767 55.9334C107.377 56.7888 103.946 57.27 103.046 57.3992C103.015 57.916 102.993 58.4328 102.957 58.9541C102.801 61.4402 102.637 63.9218 102.547 66.3589C102.516 67.2187 102.516 68.0652 102.512 68.9162C102.623 68.3727 102.717 67.9138 102.739 67.8469C103.412 65.7485 105.947 62.0907 108.411 62.0907C108.82 62.1007 109.223 62.1971 109.593 62.3734C109.963 62.5498 110.292 62.8022 110.557 63.1142C110.823 63.4262 111.02 63.7907 111.135 64.184C111.251 64.5773 111.282 64.9904 111.226 65.3965C111.053 67.1296 109.502 68.6088 108.108 69.4642C106.713 70.3196 103.617 70.7652 102.547 70.9077C102.547 71.7765 102.592 72.6453 102.654 73.4874C102.708 74.0621 102.721 74.6146 102.81 75.1893C102.899 75.764 102.957 76.3209 103.033 76.8779C103.211 77.9471 103.39 79.0476 103.594 80.0857C103.728 80.8119 103.871 81.498 104.013 82.1886C104.013 81.3332 104.111 79.658 104.134 79.5154C104.481 77.3412 106.433 73.3448 108.87 72.9661C109.276 72.9147 109.688 72.9495 110.08 73.0682C110.472 73.1869 110.834 73.3869 111.144 73.6551C111.453 73.9233 111.703 74.2537 111.876 74.6248C112.049 74.9958 112.142 75.3992 112.149 75.8086C112.242 77.5462 110.932 79.2436 109.676 80.304C108.29 81.4713 104.57 82.5317 104.107 82.6564C104.343 83.8014 104.588 84.9108 104.833 85.9533C105.666 89.5443 106.495 92.5027 107.11 94.5788L105.568 95.2338C105.568 95.1848 105.568 95.1402 105.533 95.0912C104.958 92.9794 104.174 89.9453 103.403 86.2697C103.158 85.1113 102.917 83.8638 102.686 82.5851C101.442 82.6132 100.199 82.567 98.961 82.447C98.3372 84.1979 95.9893 86.938 95.6818 87.2899C96.5105 88.1142 97.3259 88.9072 98.1055 89.6423C100.779 92.173 103.104 94.1868 104.762 95.5768L103.02 96.2986C101.438 94.8952 99.3708 93.0017 97.0363 90.6983C96.1942 89.8651 95.3031 88.9562 94.4032 88.0251C94.0156 88.2924 90.8389 90.4933 89.0568 90.8185C87.4351 91.1126 85.292 91.0369 84.0134 89.8607C83.7019 89.5946 83.4501 89.266 83.2742 88.896C83.0983 88.5261 83.0024 88.1233 82.9928 87.7138C82.9831 87.3043 83.0599 86.8974 83.2181 86.5196C83.3763 86.1418 83.6124 85.8016 83.9109 85.5212C85.7554 83.8816 90.0771 84.9242 91.975 86.0424C92.0864 86.1093 93.2225 86.9602 93.9264 87.5082C93.5611 87.1206 93.2002 86.7508 92.8304 86.3499C92.0864 85.5613 91.3691 84.7504 90.6028 83.8816L89.5157 82.5718C89.1414 82.1262 88.8028 81.6406 88.442 81.1728C87.6266 80.0723 86.8559 78.9139 86.1029 77.7288C85.4079 78.3793 82.9174 80.6426 81.3536 81.1817C79.7897 81.7208 77.669 81.9703 76.2255 80.999C75.8776 80.7832 75.5791 80.4964 75.3495 80.1574C75.1199 79.8185 74.9643 79.4349 74.8928 79.0318C74.8214 78.6287 74.8357 78.215 74.9348 77.8178C75.0339 77.4206 75.2156 77.0487 75.4681 76.7264C77.0408 74.824 81.4738 75.2027 83.5188 76.018C83.6436 76.0714 85.047 76.8244 85.8089 77.2521C85.3633 76.5348 84.9178 75.8219 84.4723 75.0868C83.2382 72.9572 82.0486 70.7607 80.859 68.5776C80.4937 67.9049 80.1194 67.241 79.7496 66.5772C79.5091 66.8133 76.5997 69.5667 74.8488 70.1726C73.2939 70.7117 71.1642 70.9612 69.7163 69.9944C69.3686 69.7777 69.0705 69.4903 68.8413 69.1507C68.612 68.8112 68.4569 68.4272 68.3858 68.0238C68.3148 67.6203 68.3295 67.2064 68.429 66.8091C68.5285 66.4117 68.7106 66.0397 68.9633 65.7173C70.536 63.8149 74.9691 64.1936 77.0096 65.0134C77.1656 65.0713 79.1794 66.1584 79.6828 66.4569C78.8675 64.9955 78.0433 63.5431 77.17 62.1486C76.0056 60.2534 74.7166 58.4376 73.3117 56.7131C73.1959 56.82 70.193 59.7115 68.4109 60.3308C66.856 60.8655 64.7263 61.1194 63.2783 60.1481C62.9315 59.9333 62.6336 59.6479 62.404 59.3106C62.1744 58.9733 62.0182 58.5915 61.9455 58.19C61.8729 57.7884 61.8853 57.3761 61.9822 56.9797C62.079 56.5833 62.258 56.2117 62.5076 55.8889C64.0803 53.9864 68.5089 54.3651 70.5539 55.1805C70.6875 55.2339 72.2246 56.0715 72.9464 56.4681L73.0355 56.3611C71.5772 54.6617 69.9698 53.0961 68.2326 51.683C67.2881 50.8945 66.3391 50.195 65.3991 49.5311C64.8912 50.1281 62.5432 52.8236 60.9928 53.5409C59.5091 54.2493 57.4285 54.7305 55.8781 53.9285C55.5079 53.752 55.1791 53.4995 54.9131 53.1873C54.647 52.8752 54.4498 52.5105 54.3342 52.117C54.2186 51.7236 54.1872 51.3101 54.2421 50.9037C54.297 50.4973 54.437 50.107 54.6528 49.7583C56.0117 47.7 60.4448 47.5886 62.5789 48.1767C62.6947 48.2079 63.8308 48.6623 64.655 49.0054C64.2095 48.7113 63.7907 48.4039 63.3764 48.1143C61.817 47.0896 60.3289 46.2476 59.0012 45.508C58.2438 45.1159 57.5755 44.7506 56.8983 44.4298C56.0964 44.755 52.844 46.0248 51.1599 45.9669C49.4758 45.909 47.4397 45.3743 46.4372 43.9486C46.1914 43.6207 46.0173 43.2447 45.9262 42.8451C45.835 42.4455 45.829 42.0312 45.9084 41.6292C45.9878 41.2271 46.1509 40.8462 46.3871 40.5112C46.6233 40.1763 46.9272 39.8947 47.2793 39.6849Z" fill="black"/>
</g>
<path d="M240.962 81.5647V83.5964C240.945 83.8362 240.838 84.0609 240.662 84.225C240.487 84.3891 240.255 84.4803 240.015 84.4803C239.774 84.4803 239.543 84.3891 239.367 84.225C239.191 84.0609 239.084 83.8362 239.068 83.5964V81.5647H233.53V83.5964C233.514 83.8362 233.407 84.0609 233.231 84.225C233.055 84.3891 232.824 84.4803 232.583 84.4803C232.343 84.4803 232.111 84.3891 231.936 84.225C231.76 84.0609 231.653 83.8362 231.637 83.5964V81.5647H226.103V83.5964C226.103 83.848 226.003 84.0894 225.825 84.2674C225.647 84.4453 225.406 84.5453 225.154 84.5453C224.902 84.5453 224.661 84.4453 224.483 84.2674C224.305 84.0894 224.205 83.848 224.205 83.5964V81.5647H218.672V83.5964C218.655 83.8362 218.548 84.0609 218.372 84.225C218.197 84.3891 217.965 84.4803 217.725 84.4803C217.484 84.4803 217.253 84.3891 217.077 84.225C216.901 84.0609 216.795 83.8362 216.778 83.5964V81.5647H211.24V83.5964C211.24 83.8469 211.141 84.0871 210.963 84.2642C210.786 84.4414 210.546 84.5409 210.296 84.5409C210.045 84.5409 209.805 84.4414 209.628 84.2642C209.451 84.0871 209.351 83.8469 209.351 83.5964V81.5647H206.829V107.851H243.528V81.5647H240.962ZM212.866 104.06H210.01V101.204H212.866V104.06ZM212.866 99.9162H210.01V97.0603H212.866V99.9162ZM212.866 95.7727H210.01V92.9169H212.866V95.7727ZM212.866 91.6293H210.01V88.7734H212.866V91.6293ZM217.442 104.06H214.582V101.204H217.442V104.06ZM217.442 99.9162H214.582V97.0603H217.442V99.9162ZM217.442 95.7727H214.582V92.9169H217.442V95.7727ZM217.442 91.6293H214.582V88.7734H217.442V91.6293ZM222.009 104.06H219.157V101.204H222.009V104.06ZM222.009 99.9162H219.157V97.0603H222.009V99.9162ZM222.009 95.7727H219.157V92.9169H222.009V95.7727ZM222.009 91.6293H219.157V88.7734H222.009V91.6293ZM226.584 104.06H223.724V101.204H226.584V104.06ZM226.584 99.9162H223.724V97.0603H226.584V99.9162ZM226.584 95.7727H223.724V92.9169H226.584V95.7727ZM226.584 91.6293H223.724V88.7734H226.584V91.6293ZM231.155 104.06H228.3V101.204H231.155V104.06ZM231.155 99.9162H228.3V97.0603H231.155V99.9162ZM231.155 95.7727H228.3V92.9169H231.155V95.7727ZM231.155 91.6293H228.3V88.7734H231.155V91.6293ZM235.731 104.06H232.871V101.204H235.731V104.06ZM235.731 99.9162H232.871V97.0603H235.731V99.9162ZM235.731 95.7727H232.871V92.9169H235.731V95.7727ZM235.731 91.6293H232.871V88.7734H235.731V91.6293ZM240.298 104.06H237.446V101.204H240.298V104.06ZM240.298 99.9162H237.446V97.0603H240.298V99.9162ZM240.298 95.7727H237.446V92.9169H240.298V95.7727ZM240.298 91.6293H237.446V88.7734H240.298V91.6293Z" stroke="#263238" stroke-linecap="round" stroke-linejoin="round"/>
<path d="M240.961 79.4306V83.5963C240.944 83.8362 240.837 84.0608 240.662 84.2249C240.486 84.389 240.254 84.4803 240.014 84.4803C239.773 84.4803 239.542 84.389 239.366 84.2249C239.191 84.0608 239.084 83.8362 239.067 83.5963V79.4306C239.084 79.1907 239.191 78.966 239.366 78.8019C239.542 78.6378 239.773 78.5466 240.014 78.5466C240.254 78.5466 240.486 78.6378 240.662 78.8019C240.837 78.966 240.944 79.1907 240.961 79.4306Z" stroke="#263238" stroke-linecap="round" stroke-linejoin="round"/>
<path d="M233.532 79.4308V83.5965C233.515 83.8364 233.408 84.0611 233.233 84.2251C233.057 84.3892 232.825 84.4805 232.585 84.4805C232.345 84.4805 232.113 84.3892 231.937 84.2251C231.762 84.0611 231.655 83.8364 231.638 83.5965V79.4308C231.655 79.1909 231.762 78.9662 231.937 78.8021C232.113 78.638 232.345 78.5468 232.585 78.5468C232.825 78.5468 233.057 78.638 233.233 78.8021C233.408 78.9662 233.515 79.1909 233.532 79.4308Z" stroke="#263238" stroke-linecap="round" stroke-linejoin="round"/>
<path d="M226.103 79.4307V83.5964C226.103 83.8481 226.003 84.0895 225.825 84.2675C225.647 84.4454 225.406 84.5454 225.154 84.5454C224.902 84.5454 224.661 84.4454 224.483 84.2675C224.305 84.0895 224.205 83.8481 224.205 83.5964V79.4307C224.205 79.3063 224.229 79.1831 224.277 79.0682C224.325 78.9533 224.395 78.849 224.483 78.7612C224.571 78.6735 224.676 78.604 224.791 78.5568C224.906 78.5096 225.029 78.4856 225.154 78.4862C225.278 78.4848 225.401 78.5086 225.516 78.556C225.631 78.6035 225.735 78.6737 225.822 78.7624C225.911 78.8495 225.982 78.9535 226.03 79.0683C226.078 79.183 226.103 79.3062 226.103 79.4307Z" stroke="#263238" stroke-linecap="round" stroke-linejoin="round"/>
<path d="M218.674 79.4307V83.5965C218.657 83.8363 218.55 84.061 218.374 84.2251C218.199 84.3892 217.967 84.4805 217.727 84.4805C217.486 84.4805 217.255 84.3892 217.079 84.2251C216.903 84.061 216.796 83.8363 216.78 83.5965V79.4307C216.78 79.3063 216.805 79.1831 216.852 79.0683C216.9 78.9534 216.97 78.849 217.058 78.7613C217.146 78.6735 217.251 78.604 217.366 78.5568C217.481 78.5096 217.605 78.4856 217.729 78.4862C217.98 78.4862 218.22 78.5857 218.397 78.7629C218.574 78.94 218.674 79.1802 218.674 79.4307Z" stroke="#263238" stroke-linecap="round" stroke-linejoin="round"/>
<path d="M211.239 79.4307V83.5964C211.239 83.8469 211.14 84.0872 210.962 84.2643C210.785 84.4414 210.545 84.5409 210.295 84.5409C210.044 84.5409 209.804 84.4414 209.627 84.2643C209.45 84.0872 209.35 83.8469 209.35 83.5964V79.4307C209.35 79.1802 209.45 78.94 209.627 78.7628C209.804 78.5857 210.044 78.4862 210.295 78.4862C210.545 78.4862 210.785 78.5857 210.962 78.7628C211.14 78.94 211.239 79.1802 211.239 79.4307Z" stroke="#263238" stroke-linecap="round" stroke-linejoin="round"/>
<path d="M61.2831 109.994C69.6123 109.994 76.3644 103.242 76.3644 94.913C76.3644 86.5839 69.6123 79.8318 61.2831 79.8318C52.954 79.8318 46.2019 86.5839 46.2019 94.913C46.2019 103.242 52.954 109.994 61.2831 109.994Z" stroke="#263238" stroke-linecap="round" stroke-linejoin="round"/>
<path d="M64.3238 107.902C71.498 106.227 75.9561 99.0536 74.2814 91.8794C72.6066 84.7053 65.4331 80.2471 58.259 81.9219C51.0848 83.5967 46.6267 90.7701 48.3015 97.9443C49.9762 105.118 57.1497 109.577 64.3238 107.902Z" stroke="#263238" stroke-linecap="round" stroke-linejoin="round"/>
<path d="M61.2823 96.1872C61.986 96.1872 62.5565 95.6167 62.5565 94.913C62.5565 94.2093 61.986 93.6388 61.2823 93.6388C60.5785 93.6388 60.0081 94.2093 60.0081 94.913C60.0081 95.6167 60.5785 96.1872 61.2823 96.1872Z" fill="#263238" stroke="#263238" stroke-linecap="round" stroke-linejoin="round"/>
<path d="M65.9243 97.1853L61.2818 94.9131L53.543 103.374" stroke="#263238" stroke-linecap="round" stroke-linejoin="round"/>
<path d="M196.966 38.0007H89.4017C87.9056 38.0007 86.6929 39.2135 86.6929 40.7095V202.585C86.6929 204.081 87.9056 205.293 89.4017 205.293H196.966C198.462 205.293 199.675 204.081 199.675 202.585V40.7095C199.675 39.2135 198.462 38.0007 196.966 38.0007Z" fill="#263238" stroke="#263238" stroke-linecap="round" stroke-linejoin="round"/>
<path d="M193.936 41.7744H92.4353V198.847H193.936V41.7744Z" fill="white" stroke="#263238" stroke-linecap="round" stroke-linejoin="round"/>
<path d="M157.358 82.523H165.24" stroke="#263238" stroke-miterlimit="10"/>
<path d="M102.695 82.5229H151.253" stroke="#263238" stroke-miterlimit="10"/>
<path d="M145.663 88.6266H165.239" stroke="#263238" stroke-miterlimit="10"/>
<path d="M115.658 88.6266H140.323" stroke="#263238" stroke-miterlimit="10"/>
<path d="M102.695 88.6266H111.084" stroke="#263238" stroke-miterlimit="10"/>
<path d="M127.103 94.726H165.24" stroke="#263238" stroke-miterlimit="10"/>
<path d="M102.695 94.726H118.711" stroke="#263238" stroke-miterlimit="10"/>
<path d="M182.594 94.5489C186.146 93.7045 188.342 90.1401 187.497 86.5875C186.653 83.035 183.089 80.8395 179.536 81.6839C175.983 82.5283 173.788 86.0927 174.632 89.6453C175.477 93.1979 179.041 95.3933 182.594 94.5489Z" stroke="#263238" stroke-miterlimit="10"/>
<path d="M110.576 109.727H102.695" stroke="#263238" stroke-miterlimit="10"/>
<path d="M165.237 109.727H116.679" stroke="#263238" stroke-miterlimit="10"/>
<path d="M122.271 115.831H102.695" stroke="#263238" stroke-miterlimit="10"/>
<path d="M152.273 115.831H127.608" stroke="#263238" stroke-miterlimit="10"/>
<path d="M165.237 115.831H156.848" stroke="#263238" stroke-miterlimit="10"/>
<path d="M140.832 121.93H102.695" stroke="#263238" stroke-miterlimit="10"/>
<path d="M165.238 121.93H149.221" stroke="#263238" stroke-miterlimit="10"/>
<path d="M182.592 121.747C186.145 120.902 188.34 117.338 187.496 113.785C186.651 110.233 183.087 108.037 179.534 108.882C175.982 109.726 173.786 113.29 174.631 116.843C175.475 120.396 179.039 122.591 182.592 121.747Z" stroke="#263238" stroke-miterlimit="10"/>
<path d="M157.358 136.931H165.24" stroke="#263238" stroke-miterlimit="10"/>
<path d="M102.695 136.931H151.253" stroke="#263238" stroke-miterlimit="10"/>
<path d="M145.663 143.035H165.239" stroke="#263238" stroke-miterlimit="10"/>
<path d="M115.658 143.035H140.323" stroke="#263238" stroke-miterlimit="10"/>
<path d="M102.695 143.035H111.084" stroke="#263238" stroke-miterlimit="10"/>
<path d="M127.103 149.134H165.24" stroke="#263238" stroke-miterlimit="10"/>
<path d="M102.695 149.134H118.711" stroke="#263238" stroke-miterlimit="10"/>
<path d="M185.735 147.196C188.317 144.614 188.317 140.428 185.735 137.846C183.153 135.264 178.967 135.264 176.385 137.846C173.803 140.428 173.803 144.614 176.385 147.196C178.967 149.778 183.153 149.778 185.735 147.196Z" stroke="#263238" stroke-miterlimit="10"/>
<path d="M151.731 24.8267C151.501 24.8267 151.281 24.7356 151.119 24.5735C150.957 24.4114 150.866 24.1916 150.866 23.9623V19.106C150.866 18.865 150.819 18.6263 150.727 18.4036C150.634 18.1809 150.499 17.9785 150.329 17.8081C150.158 17.6376 149.956 17.5024 149.733 17.4102C149.51 17.3179 149.272 17.2705 149.031 17.2705H141.203C140.961 17.2699 140.722 17.3169 140.499 17.4089C140.276 17.5009 140.073 17.636 139.902 17.8065C139.731 17.977 139.595 18.1796 139.503 18.4026C139.41 18.6256 139.363 18.8646 139.363 19.106V23.9623C139.363 24.0756 139.341 24.1879 139.298 24.2928C139.256 24.3976 139.192 24.4929 139.112 24.5732C139.032 24.6536 138.937 24.7173 138.833 24.7608C138.728 24.8043 138.616 24.8267 138.503 24.8267C138.389 24.8261 138.277 24.8479 138.172 24.8908C138.067 24.9338 137.972 24.997 137.892 25.0769C137.812 25.1568 137.748 25.2518 137.704 25.3564C137.661 25.4611 137.638 25.5732 137.638 25.6865V38.8431H152.59V25.6865C152.59 25.4585 152.5 25.2398 152.339 25.0785C152.177 24.9173 151.959 24.8267 151.731 24.8267ZM145.114 24.3811C144.638 24.3803 144.172 24.2381 143.777 23.9728C143.381 23.7074 143.073 23.3306 142.891 22.8901C142.709 22.4496 142.662 21.9651 142.755 21.4979C142.849 21.0306 143.079 20.6015 143.416 20.2649C143.753 19.9282 144.183 19.6991 144.65 19.6065C145.118 19.5138 145.602 19.5618 146.042 19.7444C146.482 19.927 146.859 20.2359 147.123 20.6322C147.388 21.0284 147.529 21.4943 147.529 21.9708C147.527 22.6093 147.271 23.2208 146.819 23.671C146.366 24.1212 145.753 24.3734 145.114 24.3722V24.3811Z" fill="#263238" stroke="#263238" stroke-linecap="round" stroke-linejoin="round"/>
<path d="M125.622 34.6592H164.611C165.632 34.6604 166.611 35.067 167.333 35.7896C168.055 36.5122 168.46 37.4918 168.46 38.5131V42.9461H121.768V38.5131C121.768 37.491 122.174 36.5107 122.897 35.788C123.62 35.0653 124.6 34.6592 125.622 34.6592Z" fill="white" stroke="#263238" stroke-linecap="round" stroke-linejoin="round"/>
<path d="M122.927 36.0939H167.306C166.895 35.6417 166.393 35.2805 165.834 35.0334C165.275 34.7864 164.67 34.659 164.058 34.6593H126.188C125.575 34.6565 124.967 34.7828 124.405 35.03C123.843 35.2771 123.34 35.6396 122.927 36.0939Z" fill="#263238" stroke="#263238" stroke-linecap="round" stroke-linejoin="round"/>
<path d="M168.46 42.9062H121.768V45.6284H168.46V42.9062Z" fill="white" stroke="#263238" stroke-linecap="round" stroke-linejoin="round"/>
<path d="M178.54 114.227L180.336 117.417L187.126 110.832" stroke="#17586E" stroke-width="6" stroke-miterlimit="10" stroke-linecap="round"/>
<path d="M178.54 86.733L180.336 89.9275L187.126 83.3381" stroke="#17586E" stroke-width="6" stroke-miterlimit="10" stroke-linecap="round"/>
<path d="M157.358 55.6304H165.24" stroke="#263238" stroke-miterlimit="10"/>
<path d="M102.695 55.6304H151.253" stroke="#263238" stroke-miterlimit="10"/>
<path d="M145.663 61.73H165.239" stroke="#263238" stroke-miterlimit="10"/>
<path d="M115.658 61.73H140.323" stroke="#263238" stroke-miterlimit="10"/>
<path d="M102.695 61.73H111.084" stroke="#263238" stroke-miterlimit="10"/>
<path d="M127.103 67.8336H165.24" stroke="#263238" stroke-miterlimit="10"/>
<path d="M102.695 67.8336H118.711" stroke="#263238" stroke-miterlimit="10"/>
<path d="M185.739 65.8944C188.321 63.3124 188.321 59.1261 185.739 56.5441C183.157 53.962 178.971 53.962 176.389 56.5441C173.807 59.1261 173.807 63.3124 176.389 65.8944C178.971 68.4764 183.157 68.4764 185.739 65.8944Z" stroke="#263238" stroke-miterlimit="10"/>
<path d="M178.54 59.8406L180.336 63.035L187.126 56.4456" stroke="#17586E" stroke-width="6" stroke-miterlimit="10" stroke-linecap="round"/>
<path d="M177.593 140.166L179.388 143.36L186.173 136.771" stroke="#17586E" stroke-width="6" stroke-miterlimit="10" stroke-linecap="round"/>
<path d="M213.916 98.0673C213.916 98.0673 216.327 100.108 216.144 101.899C215.961 103.69 213.551 108.074 212.998 109.37C212.446 110.667 213.738 113.754 213.738 113.754L205.718 116.472C205.817 116.004 205.817 115.52 205.718 115.051C205.536 114.605 205.224 113.443 205.224 113.443L203.62 113.999C203.25 114.124 201.954 113.505 201.891 112.952C201.829 112.4 201.829 112.026 201.767 111.219C201.731 110.39 201.628 109.564 201.459 108.751C201.334 108.506 200.1 107.7 200.163 107.268C200.225 106.835 201.642 105.169 201.767 104.617C201.891 104.064 201.584 102.834 201.704 102.144C201.825 101.453 203.001 99.1187 203.001 99.1187C203.001 99.1187 202.261 98.4994 204.297 96.8332C206.333 95.1669 211.448 94.6723 213.916 98.0673Z" fill="white" stroke="#263238" stroke-linecap="round" stroke-linejoin="round"/>
<path d="M213.919 98.0674C211.451 94.6724 206.345 95.167 204.286 96.8333C202.228 98.4995 202.99 99.1188 202.99 99.1188L204.843 100.54C204.843 100.54 203.115 102.514 203.364 102.768C203.614 103.022 204.968 104.741 204.968 104.741L204.848 105.316L204.603 104.385C204.603 104.385 203.836 107.455 203.712 108.221C203.587 108.987 203.565 109.277 203.23 109.375C202.896 109.473 201.448 108.756 201.448 108.756C201.448 108.756 201.448 110.573 201.39 111.34C201.333 112.106 201.292 112.734 201.243 113.403C201.194 114.071 202.206 115.185 203.404 114.94C204.603 114.695 205.249 114.071 205.213 113.447C205.177 112.823 205.61 110.671 205.418 110.239C205.226 109.807 204.866 107.664 205.213 106.72C205.213 106.72 206.015 104.991 206.884 104.991C207.753 104.991 207.868 107.334 207.623 107.891C207.378 108.448 207.254 108.756 207.254 108.756C207.254 108.756 207.254 109.125 209.66 109.927C211.468 110.533 212.475 110.195 212.867 109.99C212.874 109.779 212.918 109.571 212.997 109.375C213.549 108.078 215.959 103.694 216.142 101.903C216.325 100.112 213.919 98.0674 213.919 98.0674Z" fill="#263238" stroke="#263238" stroke-linecap="round" stroke-linejoin="round"/>
<path d="M207.275 108.751C207.275 108.751 206.718 109.616 206.223 109.803C205.729 109.99 205.421 109.308 205.421 109.308" stroke="#263238" stroke-linecap="round" stroke-linejoin="round"/>
<path d="M201.93 104.799C201.93 105.245 202.041 105.601 202.175 105.601C202.308 105.601 202.424 105.245 202.424 104.799C202.424 104.354 202.313 103.997 202.175 103.997C202.037 103.997 201.93 104.358 201.93 104.799Z" fill="#263238"/>
<path d="M202.68 103.811C202.68 103.811 202.805 103.009 201.816 103.365" stroke="#263238" stroke-linecap="round" stroke-linejoin="round"/>
<path d="M202.094 110.534C202.437 110.446 202.755 110.278 203.02 110.044" stroke="white" stroke-linecap="round" stroke-linejoin="round"/>
<path d="M179.481 126.328H193.458L196.701 137.283H182.725L179.481 126.328Z" fill="white" stroke="#263238" stroke-linecap="round" stroke-linejoin="round"/>
<path d="M180.478 126.96H192.841L195.71 136.651H183.347L180.478 126.96Z" fill="white" stroke="#263238" stroke-linecap="round" stroke-linejoin="round"/>
<path d="M182.826 138.139H199.881V137.399H182.826V138.139Z" fill="white" stroke="#263238" stroke-linecap="round" stroke-linejoin="round"/>
<path d="M205.28 208.221C205.28 208.221 203.774 210.328 202.758 210.894C201.743 211.46 199.257 212.079 199.257 212.717C199.257 213.354 199.444 213.456 200.553 213.826C201.662 214.196 203.672 214.196 204.799 214.196C205.691 214.165 206.584 214.196 207.472 214.289C208.573 214.449 209.683 214.542 210.796 214.566C211.718 214.566 211.687 212.111 211.687 212.111L205.28 208.221Z" fill="white" stroke="#263238" stroke-linecap="round" stroke-linejoin="round"/>
<path d="M220.136 155.893C220.136 155.893 217.966 173.122 215.89 178.856C213.814 184.59 214.7 186.332 213.292 192.177C211.885 198.022 211.666 211.78 211.666 212.11C211.666 212.44 211.016 212.11 208.744 210.916C207.425 210.247 206.248 209.328 205.277 208.212C205.341 207.519 205.45 206.832 205.603 206.153C205.816 205.262 206.253 203.012 206.253 203.012C206.253 203.012 205.384 195.643 206.36 183.854C207.336 172.066 207.768 158.049 207.768 158.049C207.768 158.049 215.694 156.975 220.136 155.893Z" fill="#263238" stroke="#263238" stroke-linecap="round" stroke-linejoin="round"/>
<path d="M209.229 211.954C209.229 211.954 207.67 213.576 206.699 214.097C205.727 214.618 202.689 215.719 202.609 216.173C202.529 216.628 202.867 217.537 203.054 217.599C204.788 217.934 206.546 218.13 208.312 218.183C210.775 218.249 213.631 217.924 214.344 217.924C215.057 217.924 216.745 218.575 216.812 216.628C216.879 214.681 215.837 211.892 215.837 211.892C215.837 211.892 212.406 212.93 209.229 211.954Z" fill="white" stroke="#263238" stroke-linecap="round" stroke-linejoin="round"/>
<path d="M214.294 162.371C214.294 162.371 213.505 173.51 213.113 176.869C212.721 180.228 213.514 187.321 214.405 192.222C215.296 197.123 215.59 207.308 215.59 207.308C215.75 207.41 215.867 207.566 215.921 207.747C215.975 207.929 215.962 208.124 215.884 208.297C215.659 208.778 215.461 209.272 215.291 209.776C215.291 209.776 216.379 210.168 216.281 210.858C216.183 211.549 215.884 212.832 215.884 212.832C214.996 212.923 214.103 212.956 213.211 212.93C211.952 212.929 210.696 212.796 209.464 212.534L208.675 212.142C208.675 212.142 208.475 210.564 208.475 209.673C208.475 208.782 209.464 207.891 209.366 207.406C209.268 206.92 208.778 204.153 208.381 201.885C207.985 199.618 208.283 198.237 207.593 195.871C206.902 193.505 203.057 179.386 203.057 179.386C203.057 179.386 201.275 163.017 201.182 160.749C201.088 158.482 201.083 157.493 201.083 157.493C201.083 157.493 204.14 155.029 204.83 155.029C205.521 155.029 214.294 162.371 214.294 162.371Z" fill="#263238" stroke="#263238" stroke-linecap="round" stroke-linejoin="round"/>
<path d="M200.786 155.831C200.786 155.831 200.448 158.312 200.786 158.816C201.125 159.319 204.057 160.112 207.719 160.509C211.381 160.905 216.064 160.509 217.641 159.943C219.218 159.377 220.234 158.874 220.461 158.477C220.688 158.081 220.515 156 220.515 156C220.515 156 205.937 156.846 200.786 155.831Z" fill="#17586E" stroke="#263238" stroke-linecap="round" stroke-linejoin="round"/>
<path d="M215.03 115.234C215.03 115.234 220.216 118.7 221.183 124.207C222.038 129.108 220.648 146.416 220.648 147.343C220.648 148.27 221.361 155.773 221.361 155.773C222.096 157.35 216.086 158.793 212.793 159.101C209.88 159.373 203.437 158.722 201.597 157.809C201.014 157.519 200.452 157.203 200.439 156.552C200.372 153.527 200.216 145.459 200.417 144.256C200.666 142.772 200.394 134.129 200.394 131.166C200.394 128.203 199.285 123.694 200.274 121.779C201.263 119.863 203.794 118.571 203.794 118.571C207.025 116.161 211.007 114.978 215.03 115.234Z" fill="#17586E" stroke="#263238" stroke-linecap="round" stroke-linejoin="round"/>
<path d="M215.081 132.752C214.703 133.506 214.255 134.224 213.744 134.895" stroke="#263238" stroke-linecap="round" stroke-linejoin="round"/>
<path d="M218.61 125.365C218.61 125.365 217.42 128.074 216.159 130.64" stroke="#263238" stroke-linecap="round" stroke-linejoin="round"/>
<path d="M216.175 133.924L213.546 137.426" stroke="#263238" stroke-linecap="round" stroke-linejoin="round"/>
<path d="M215.092 112.703L216.264 115.666C216.264 115.666 213.796 115.791 211.51 116.111C209.225 116.432 203.794 118.584 203.794 118.584C203.794 118.584 204.346 116.356 204.778 115.911C206.184 114.521 207.967 113.576 209.906 113.193C211.604 112.792 213.349 112.628 215.092 112.703Z" fill="#17586E" stroke="#263238" stroke-linecap="round" stroke-linejoin="round"/>
<path d="M206.157 140.821C206.157 140.821 205.761 145.485 205.266 145.721C204.772 145.958 192.029 141.511 191.116 141.057C190.617 140.81 190.076 140.659 189.521 140.611C189.347 140.558 187.806 140.558 187.236 140.268C186.755 139.942 186.315 139.559 185.926 139.128C185.752 139.016 184.384 138.958 183.988 138.682C183.591 138.406 183.074 138.17 183.417 137.996C184.09 137.785 184.774 137.614 185.467 137.484C185.467 137.484 185.525 136.686 186.211 136.57C186.897 136.454 186.656 136.744 188.323 135.773C189.989 134.801 189.806 135.603 191.232 136.628C192.658 137.653 193.339 138.798 193.513 138.856C193.687 138.914 198.859 140.856 198.859 140.856L206.157 140.821Z" fill="white" stroke="#263238" stroke-linecap="round" stroke-linejoin="round"/>
<path d="M185.448 137.452L188.246 137.109" stroke="#263238" stroke-linecap="round" stroke-linejoin="round"/>
<path d="M194.8 139.275C194.8 139.275 194.016 138.598 193.486 138.829C192.956 139.061 192.185 140.055 192.109 141.284C192.034 142.514 194.034 142.67 194.034 142.67L194.8 139.275Z" fill="#17586E" stroke="#263238" stroke-linecap="round" stroke-linejoin="round"/>
<path d="M205.318 119.128C204.289 119.128 201.58 119.876 200.738 120.812C199.896 121.748 199.802 124.456 200.083 128.101C200.364 131.745 201.794 138.571 201.798 138.606C201.798 138.526 201.625 138.967 201.58 139.052C201.393 139.386 201.87 139.44 201.424 139.497C201.036 139.554 200.645 139.583 200.252 139.587L198.292 139.252C196.983 139.026 195.659 138.886 194.331 138.834C193.917 138.834 192.821 142.184 193.44 142.915C194.06 143.645 206.45 148.453 207.283 148.261C208.116 148.07 209.707 137.123 209.684 137.056C209.925 134.053 210.215 130.533 210.268 130.164" fill="#17586E"/>
<path d="M205.318 119.128C204.289 119.128 201.58 119.876 200.738 120.812C199.896 121.748 199.802 124.456 200.083 128.101C200.364 131.745 201.794 138.571 201.798 138.606C201.798 138.526 201.625 138.967 201.58 139.052C201.393 139.386 201.87 139.44 201.424 139.497C201.036 139.554 200.645 139.583 200.252 139.587L198.292 139.252C196.983 139.026 195.659 138.886 194.331 138.834C193.917 138.834 192.821 142.184 193.44 142.915C194.06 143.645 206.45 148.453 207.283 148.261C208.116 148.07 209.707 137.123 209.684 137.056C209.925 134.053 210.215 130.533 210.268 130.164" stroke="#263238" stroke-linecap="round" stroke-linejoin="round"/>
<path d="M201.424 139.506C202.239 140.36 203.113 141.157 204.039 141.89" stroke="#263238" stroke-linecap="round" stroke-linejoin="round"/>
<path d="M202.58 141.662C203.132 142.18 203.753 142.619 204.424 142.968" stroke="#263238" stroke-linecap="round" stroke-linejoin="round"/>
<path d="M156.377 111.398C156.123 109.869 155.103 108.849 154.844 107.914C154.627 107.208 154.343 106.525 153.998 105.873C153.13 107.651 152.461 109.518 152.002 111.442L151.779 110.912L147.573 114.227L147.324 121.6L154.176 121.921C154.176 121.921 153.895 120.7 153.797 119.796C153.723 118.902 153.776 118.002 153.953 117.123C153.953 117.123 155.891 117.167 156.061 116.486C156.23 115.804 156.631 112.917 156.377 111.398Z" fill="white" stroke="#263238" stroke-linecap="round" stroke-linejoin="round"/>
<path d="M155.276 108.684C155.533 108.782 155.8 108.849 156.073 108.885C156.323 108.885 156.768 108.934 156.621 109.535C156.562 109.855 156.384 110.14 156.122 110.333L155.276 108.684Z" fill="white" stroke="#263238" stroke-linecap="round" stroke-linejoin="round"/>
<path d="M153.24 193.879C153.24 193.879 152.305 209.802 152.305 210.056C152.305 210.31 151.124 214.262 151.293 214.85C151.463 215.438 152.808 215.608 153.735 215.692C154.662 215.777 156.591 216.026 157.348 216.026C158.673 216.008 159.995 215.896 161.305 215.692C161.808 215.523 162.481 215.02 161.893 214.596C161.305 214.173 159.874 214.008 158.19 212.075C157.394 211.226 156.689 210.296 156.087 209.299L159.652 194.048L153.24 193.879Z" fill="white" stroke="#263238" stroke-linecap="round" stroke-linejoin="round"/>
<path d="M129.606 190.939C129.606 190.939 123.053 207.241 122.549 207.913C122.046 208.586 118.642 212.885 118.539 213.705C118.437 214.525 122.808 214.623 123.565 214.12C124.322 213.616 125.222 209.219 125.726 208.328C126.229 207.437 137.408 192.11 137.408 192.11L129.606 190.939Z" fill="white" stroke="#263238" stroke-linecap="round" stroke-linejoin="round"/>
<path d="M140.641 143.534L140.516 146.27C140.516 146.27 137.104 153.63 133.784 162.754C130.167 172.703 125.462 189.932 125.462 189.932C125.462 189.932 128.581 192.792 137.046 194.16C145.511 195.528 150.768 196.107 155.366 195.969C160.931 195.799 168.019 194.284 168.019 194.284C168.019 194.284 164.04 169.905 160.806 158.834C157.571 147.762 156.796 146.662 156.796 146.662L155.696 140.491L140.641 143.534Z" fill="#8F8F8F" stroke="#263238" stroke-linecap="round" stroke-linejoin="round"/>
<path d="M145.919 162.371L144.993 195.033" stroke="#263238" stroke-linecap="round" stroke-linejoin="round"/>
<path d="M145.989 159.952L145.953 161.235" stroke="#263238" stroke-linecap="round" stroke-linejoin="round"/>
<path d="M153.05 146.907C153.57 146.8 154.078 146.671 154.574 146.519" stroke="#263238" stroke-linecap="round" stroke-linejoin="round"/>
<path d="M142.007 147.138C145.038 147.506 148.1 147.535 151.136 147.223" stroke="#263238" stroke-linecap="round" stroke-linejoin="round"/>
<path d="M171.631 111.357C171.425 110.454 171.276 109.539 171.186 108.617C171.124 107.521 170.09 106.06 170.21 105.45C170.33 104.839 170.941 104.902 171.248 105.084C171.516 105.308 171.742 105.576 171.917 105.877C171.917 105.877 172.772 103.258 172.772 102.099C172.772 100.941 173.503 101.066 173.806 101.854C174.109 102.643 173.685 105.695 173.685 105.695C174.263 105.844 174.831 106.027 175.387 106.243C175.94 106.488 176.973 106.973 176.791 108.497C176.608 110.021 176.425 110.872 176.06 110.872C175.695 110.872 175.387 110.386 175.387 110.386C175.387 110.386 175.387 112.03 174.839 112.516C174.352 112.846 173.783 113.036 173.195 113.064C173.195 113.064 173.342 111.848 171.631 111.357Z" fill="white" stroke="#263238" stroke-linecap="round" stroke-linejoin="round"/>
<path d="M175.41 110.386C175.41 110.386 175.78 108.983 175.78 108.8" stroke="#263238" stroke-linecap="round" stroke-linejoin="round"/>
<path d="M171.942 105.878L171.577 107.584" stroke="#263238" stroke-linecap="round" stroke-linejoin="round"/>
<path d="M170.122 113.064L171.267 111.121C171.267 111.121 171.712 110.502 172.768 110.858H172.799C173.263 111.019 173.648 111.349 173.877 111.782C174.106 112.216 174.162 112.72 174.033 113.193L173.739 114.289C173.739 114.289 171.445 112.975 170.122 113.064Z" fill="#17586E" stroke="#263238" stroke-linecap="round" stroke-linejoin="round"/>
<path d="M122.222 151.999C122.222 151.999 122.502 153.456 122.641 154.494C122.779 155.532 123.469 157.613 123.977 157.889C124.485 158.165 125.087 158.513 124.396 158.722C123.705 158.931 123.287 158.998 122.663 158.513C122.267 158.21 121.909 157.859 121.598 157.47C121.598 157.47 121.117 159.618 120.769 160.66C120.387 161.599 119.924 162.502 119.384 163.36C119.374 163.513 119.329 163.662 119.252 163.794C119.174 163.926 119.067 164.039 118.938 164.122C118.524 164.331 118.225 163.503 118.225 163.503C118.225 163.503 117.668 164.804 117.308 163.431C117.01 161.829 116.825 160.208 116.755 158.579C116.822 157.884 119.624 151.451 119.624 151.451L122.222 151.999Z" fill="white" stroke="#263238" stroke-linecap="round" stroke-linejoin="round"/>
<path d="M118.288 159.622C118.077 159.963 117.926 160.339 117.843 160.731C117.843 161.008 118.204 163.507 118.204 163.507" stroke="#263238" stroke-linecap="round" stroke-linejoin="round"/>
<path d="M119.384 163.365L119.027 160.941L119.66 159.346" stroke="#263238" stroke-linecap="round" stroke-linejoin="round"/>
<path d="M119.871 162.536C119.871 162.536 119.898 161.226 119.987 160.629C120.076 160.032 120.228 160.139 120.432 159.417" stroke="#263238" stroke-linecap="round" stroke-linejoin="round"/>
<path d="M120.56 156.16C120.496 156.577 120.303 156.964 120.008 157.265C119.547 157.689 119.061 158.083 118.551 158.446" stroke="#263238" stroke-linecap="round" stroke-linejoin="round"/>
<path d="M139.136 122.509C139.136 122.509 133.483 125.249 133.131 125.953C132.779 126.657 125.717 139.284 124.746 140.522C123.774 141.761 120.772 143.347 120.42 144.581C120.068 145.815 120.33 149.174 120.33 149.174L119.622 151.469C119.622 151.469 119.711 152.262 120.959 152.529L122.197 152.792L124.318 150.76C124.318 150.76 128.907 149.615 130.76 147.406C132.614 145.196 137.118 134.868 137.118 134.868L136.41 141.845C139.746 142.282 143.119 142.37 146.474 142.108C151.95 141.663 157.951 140.772 157.951 140.772L157.158 132.65C157.158 132.65 170.226 130.533 170.929 129.914C171.633 129.295 172.266 127.62 172.342 127C172.418 126.381 174.636 114.552 174.636 114.552C174.328 114.112 173.935 113.736 173.481 113.448C173.027 113.16 172.52 112.964 171.99 112.872C170.136 112.52 168.283 113.492 168.194 114.022C168.105 114.552 164.309 122.233 164.309 122.233C164.309 122.233 164.042 122.055 163.075 122.496C162.108 122.937 160.402 122.246 160.402 122.246C160.402 122.246 156.989 121.262 155.055 121.44C153.122 121.618 151.259 121.886 151.259 121.886C151.259 121.886 147.815 120.295 145.258 120.994C142.701 121.694 139.136 122.509 139.136 122.509Z" fill="#17586E" stroke="#263238" stroke-linecap="round" stroke-linejoin="round"/>
<path d="M151.316 133.456L157.144 132.663L153.259 134.694" stroke="#263238" stroke-linecap="round" stroke-linejoin="round"/>
<path d="M137.192 130.899L137.103 134.868L135.779 133.193" stroke="#263238" stroke-linecap="round" stroke-linejoin="round"/>
<path d="M121.122 149.526C121.122 149.526 121.39 150.417 123.506 150.417" stroke="#263238" stroke-linecap="round" stroke-linejoin="round"/>
<path d="M143.919 115.421C146.819 117.648 149.265 116.312 150.303 115.26C151.573 113.986 151.564 112.32 152.393 110.729C152.5 110.15 154.42 108.118 154.567 107.637C154.91 106.532 154.251 104.594 154.251 104.594C154.251 104.594 156.122 104.853 155.271 102.982C154.42 101.11 153.654 100.429 151.867 100.259C151.331 100.224 150.795 100.322 150.306 100.544C149.817 100.767 149.39 101.107 149.065 101.534C149.065 101.534 146.939 100.513 145.5 101.28C144.061 102.046 141.958 101.28 140.252 106.461C140.006 107.048 139.831 107.663 139.731 108.292C139.655 109.794 140.515 110.863 141.366 112.102C142.671 114.004 142.097 114.013 143.919 115.421Z" fill="#263238" stroke="#263238" stroke-linecap="round" stroke-linejoin="round"/>
<path d="M147.386 112.984C147.386 113.409 147.259 113.826 147.023 114.179C146.786 114.533 146.45 114.809 146.057 114.972C145.664 115.135 145.231 115.177 144.814 115.094C144.396 115.011 144.013 114.806 143.712 114.505C143.411 114.205 143.206 113.821 143.123 113.404C143.04 112.986 143.083 112.554 143.246 112.16C143.408 111.767 143.684 111.431 144.038 111.195C144.392 110.958 144.808 110.832 145.234 110.832C145.804 110.833 146.351 111.06 146.754 111.464C147.157 111.867 147.384 112.413 147.386 112.984Z" fill="white" stroke="#263238" stroke-linecap="round" stroke-linejoin="round"/>
<path d="M141.304 116.958C141.304 118.295 141.304 119.609 140.11 120.522C138.773 121.516 133.65 125.329 136.465 129.223C139.281 133.117 139.682 132.039 139.437 133.367C139.192 134.695 133.721 138.335 134.714 141.565C135.708 144.795 139.767 146.617 139.17 147.86C138.573 149.103 140.413 155.234 147.452 152.003C154.492 148.773 154.006 143.209 151.181 136.927C150.526 135.474 150.834 133.621 153.485 130.636C156.136 127.651 154.14 121.926 151.346 119.052C149.698 117.346 149.025 115.987 149.119 115.657C149.212 115.327 146.552 111.433 144.316 112.592C142.926 113.313 141.642 114.69 141.344 116.307C141.311 116.523 141.298 116.74 141.304 116.958Z" fill="#263238" stroke="#263238" stroke-linecap="round" stroke-linejoin="round"/>
<path d="M152.395 110.73C152.395 110.73 151.504 109.513 150.911 110.819C150.688 111.346 150.639 111.931 150.773 112.487C150.907 113.044 151.216 113.543 151.655 113.911C152.261 114.387 152.698 112.645 152.698 112.645" fill="white"/>
<path d="M152.395 110.73C152.395 110.73 151.504 109.513 150.911 110.819C150.688 111.346 150.639 111.931 150.773 112.487C150.907 113.044 151.216 113.543 151.655 113.911C152.261 114.387 152.698 112.645 152.698 112.645" stroke="#263238" stroke-linecap="round" stroke-linejoin="round"/>
<path d="M161.307 215.693C161.81 215.523 162.483 215.02 161.895 214.597C161.307 214.173 159.877 214.008 158.193 212.075L158.104 213.581C155.926 213.485 153.759 213.223 151.621 212.797C151.416 213.462 151.306 214.154 151.296 214.85C151.465 215.439 152.811 215.608 153.737 215.693C154.664 215.777 156.593 216.027 157.351 216.027C158.676 216.008 159.998 215.896 161.307 215.693Z" fill="#17586E" stroke="#263238" stroke-linecap="round" stroke-linejoin="round"/>
<path d="M123.582 214.142C123.898 213.932 124.232 213.059 124.557 212.048C122.978 212.112 121.399 211.917 119.884 211.469C119.171 212.476 118.592 213.384 118.547 213.728C118.476 214.565 122.824 214.645 123.582 214.142Z" fill="#17586E" stroke="#263238" stroke-linecap="round" stroke-linejoin="round"/>
<path d="M65.1364 172.97H61.3984V179.604H65.1364V172.97Z" fill="#263238" stroke="#263238" stroke-linecap="round" stroke-linejoin="round"/>
<path d="M65.3297 146.506H60.6382C56.7923 146.506 53.6746 149.623 53.6746 153.469V168.025C53.6746 171.871 56.7923 174.988 60.6382 174.988H65.3297C69.1756 174.988 72.2933 171.871 72.2933 168.025V153.469C72.2933 149.623 69.1756 146.506 65.3297 146.506Z" fill="#949494" stroke="#263238" stroke-linecap="round" stroke-linejoin="round"/>
<path d="M57.4025 214.374C57.4025 214.061 57.3098 213.755 57.136 213.495C56.9622 213.235 56.7152 213.032 56.4262 212.912C56.1372 212.793 55.8191 212.761 55.5123 212.822C55.2055 212.883 54.9237 213.034 54.7025 213.255C54.4813 213.476 54.3307 213.758 54.2696 214.065C54.2086 214.372 54.2399 214.69 54.3597 214.979C54.4794 215.268 54.6821 215.515 54.9422 215.689C55.2023 215.862 55.5081 215.955 55.8209 215.955C56.0288 215.956 56.2347 215.915 56.4269 215.836C56.619 215.757 56.7936 215.64 56.9406 215.493C57.0876 215.346 57.2041 215.172 57.2833 214.98C57.3626 214.787 57.4031 214.581 57.4025 214.374Z" fill="#263238" stroke="#263238" stroke-linecap="round" stroke-linejoin="round"/>
<path d="M88.2924 214.374C88.2924 214.061 88.1997 213.755 88.0259 213.495C87.8521 213.235 87.6051 213.032 87.3161 212.912C87.027 212.793 86.709 212.761 86.4022 212.822C86.0954 212.883 85.8136 213.034 85.5924 213.255C85.3712 213.476 85.2206 213.758 85.1595 214.065C85.0985 214.372 85.1298 214.69 85.2495 214.979C85.3693 215.268 85.572 215.515 85.8321 215.689C86.0922 215.862 86.398 215.955 86.7108 215.955C86.9187 215.956 87.1246 215.915 87.3168 215.836C87.5089 215.757 87.6835 215.64 87.8305 215.493C87.9775 215.346 88.0939 215.172 88.1732 214.98C88.2525 214.787 88.293 214.581 88.2924 214.374Z" fill="#263238" stroke="#263238" stroke-linecap="round" stroke-linejoin="round"/>
<path d="M72.0345 214.373C72.0345 213.482 71.7048 212.796 71.2993 212.796C70.8939 212.796 70.5642 213.5 70.5642 214.373C70.5642 215.247 70.8939 215.955 71.2993 215.955C71.7048 215.955 72.0345 215.247 72.0345 214.373Z" fill="#263238" stroke="#263238" stroke-linecap="round" stroke-linejoin="round"/>
<path d="M72.7376 205.793V183.128H69.6322V205.886L54.3193 211.945V213.469H56.5425V212.182L71.303 209.134L86.0634 212.182V213.469H88.2866V211.945L72.7376 205.793Z" fill="#263238" stroke="#263238" stroke-linecap="round" stroke-linejoin="round"/>
<path d="M70.5243 213.464H72.0748L72.4089 206.104H70.1902L70.5243 213.464Z" fill="#263238" stroke="#263238" stroke-linecap="round" stroke-linejoin="round"/>
<path d="M75.1252 182.264H67.2349V186.951H75.1252V182.264Z" fill="#263238" stroke="#263238" stroke-linecap="round" stroke-linejoin="round"/>
<path d="M82.3596 177.947H59.2632C57.809 177.947 56.6301 179.126 56.6301 180.58V181.355C56.6301 182.809 57.809 183.988 59.2632 183.988H82.3596C83.8138 183.988 84.9927 182.809 84.9927 181.355V180.58C84.9927 179.126 83.8138 177.947 82.3596 177.947Z" fill="#949494" stroke="#263238" stroke-linecap="round" stroke-linejoin="round"/>
<path d="M104.746 191.959L107.098 195.447L109.892 195.274C109.892 195.274 113.982 195.327 114.681 195.149C115.381 194.971 115.639 195.594 115.292 196.285C114.944 196.976 111.906 199.159 110.333 200.121C108.599 201.117 106.789 201.975 104.92 202.687C104.474 202.776 103.957 201.903 103 199.199C102.28 197.31 101.375 195.498 100.295 193.79L104.746 191.959Z" fill="white" stroke="#263238" stroke-linecap="round" stroke-linejoin="round"/>
<path d="M115.29 196.285C115.638 195.585 115.379 194.975 114.68 195.149C113.98 195.322 109.89 195.273 109.89 195.273L107.097 195.447C107.116 196.252 107.266 197.048 107.542 197.804C107.542 197.804 103.617 198.762 103.007 199.198C103.965 201.903 104.49 202.763 104.927 202.687C106.796 201.975 108.606 201.117 110.34 200.121C111.904 199.158 114.943 196.984 115.29 196.285Z" fill="white" stroke="#263238" stroke-linecap="round" stroke-linejoin="round"/>
<path d="M115.169 195.189C114.209 196.15 113.144 196.999 111.992 197.719C109.455 199.281 106.788 200.622 104.022 201.729C104.392 202.464 104.668 202.727 104.913 202.678C106.782 201.966 108.592 201.108 110.326 200.112C111.899 199.15 114.937 196.993 115.285 196.276C115.534 195.786 115.494 195.34 115.169 195.189Z" fill="#17586E" stroke="#263238" stroke-linecap="round" stroke-linejoin="round"/>
<path d="M98.6343 164.273C98.9595 163.547 101.566 173.081 103.655 182.175C105.068 188.314 106.302 191.976 106.302 191.976C105.3 192.844 104.224 193.621 103.085 194.298C101.864 194.908 99.7704 195.692 99.7704 195.692C99.7704 195.692 96.6517 188.911 94.9052 185.507C93.1587 182.103 92.6775 179.831 91.2785 177.301C89.8796 174.77 89.5276 170.217 89.5276 170.217C89.5276 170.217 88.6365 165.855 91.9691 164.719C95.3017 163.583 97.6719 163.052 98.6343 164.273Z" fill="#17586E" stroke="#263238" stroke-linecap="round" stroke-linejoin="round"/>
<path d="M89.4143 200.972C89.4143 200.972 88.8084 204.71 88.403 206.073C87.9975 207.436 86.8748 209.918 87.2268 210.528C87.5787 211.139 89.4544 211.776 90.39 211.865C91.3256 211.954 92.5553 213.496 94.3241 214.137C96.0928 214.779 98.423 214.605 98.3695 214.137C98.316 213.669 93.139 207.967 92.885 206.585C92.6311 205.204 93.5399 200.865 93.5399 200.865L89.4143 200.972Z" fill="white" stroke="#263238" stroke-linecap="round" stroke-linejoin="round"/>
<path d="M92.239 207.512L92.0965 207.904C90.7302 207.751 89.3796 207.479 88.06 207.094C87.5788 208.43 86.9506 210.052 87.2268 210.537C87.5788 211.157 89.4545 211.785 90.3901 211.874C91.3257 211.963 92.5554 213.505 94.3241 214.146C96.0929 214.788 98.423 214.614 98.3696 214.146C98.3161 213.678 93.139 207.976 92.8851 206.595C92.6237 206.865 92.4058 207.175 92.239 207.512Z" fill="white" stroke="#263238" stroke-linecap="round" stroke-linejoin="round"/>
<path d="M94.2176 213.211C92.8186 212.525 91.5444 211.353 89.6954 210.725C88.4836 210.31 87.6415 209.976 87.2005 209.794C87.1302 210.038 87.1395 210.299 87.2272 210.538C87.5792 211.157 89.4548 211.785 90.3905 211.874C91.3261 211.963 92.5557 213.505 94.3245 214.146C96.0086 214.761 98.2006 214.628 98.3566 214.213C97.1937 214.053 95.1755 213.683 94.2176 213.211Z" fill="#17586E" stroke="#263238" stroke-linecap="round" stroke-linejoin="round"/>
<path d="M88.4862 172.872C88.4862 172.872 95.3786 173.656 95.8998 177.145C96.4211 180.633 95.2048 202.353 95.2048 202.353C94.1828 202.399 93.1587 202.341 92.1485 202.179C90.7539 201.916 88.4015 201.395 88.4015 201.395C88.4015 201.395 88.0496 193.981 87.6129 191.014C87.1763 188.047 86.8288 179.43 86.8288 179.43C86.8288 179.43 75.3163 178.472 74.2693 177.773C73.2223 177.073 88.4862 172.872 88.4862 172.872Z" fill="#17586E" stroke="#263238" stroke-linecap="round" stroke-linejoin="round"/>
<path d="M97.5523 170.391C97.5523 170.391 80.5463 177.127 76.6123 178.437C73.0688 179.557 69.2706 179.586 65.7102 178.522C63.0058 177.631 61.7004 174.178 61.7004 174.178C61.7004 174.178 61.0232 173.376 61.3707 172.592C61.7182 171.807 67.3007 166.835 70.7268 165.962C74.153 165.089 80.2835 165.472 80.2835 165.472C80.2835 165.472 95.1464 161.667 96.9775 161.93C98.8087 162.193 100.266 168.711 100.542 169.584" fill="#17586E"/>
<path d="M97.5523 170.391C97.5523 170.391 80.5463 177.127 76.6123 178.437C73.0688 179.557 69.2706 179.586 65.7102 178.522C63.0058 177.631 61.7004 174.178 61.7004 174.178C61.7004 174.178 61.0232 173.376 61.3707 172.592C61.7182 171.807 67.3007 166.835 70.7268 165.962C74.153 165.089 80.2835 165.472 80.2835 165.472C80.2835 165.472 95.1464 161.667 96.9775 161.93C98.8087 162.193 100.266 168.711 100.542 169.584" stroke="#263238" stroke-linecap="round" stroke-linejoin="round"/>
<path d="M65.6326 174.877C65.6326 174.877 66.8533 170.079 70.0879 168.074" stroke="#263238" stroke-linecap="round" stroke-linejoin="round"/>
<path d="M64.936 171.651C64.936 171.651 66.2414 169.642 67.9879 169.205" stroke="#263238" stroke-linecap="round" stroke-linejoin="round"/>
<path d="M78.5618 139.453C78.5618 139.453 79.7647 140.763 81.1726 144.176C82.5805 147.588 84.8616 157.916 84.8616 157.916C84.2057 158.186 83.5107 158.348 82.8032 158.397C81.9122 158.397 80.6959 158.522 80.1924 157.916C79.689 157.31 78.2588 152.601 78.2588 152.601C78.2588 152.601 77.5549 146.871 77.3678 143.957C77.1806 141.044 76.2628 140.442 77.1673 139.538C78.0717 138.633 78.5618 139.453 78.5618 139.453Z" fill="white" stroke="#263238" stroke-linecap="round" stroke-linejoin="round"/>
<path d="M75.1127 137.421C75.1127 137.421 77.7012 138.049 78.5611 139.475C79.421 140.901 79.0333 144.171 79.0333 144.171C79.0333 144.171 81.3189 150.805 80.8912 152.378C80.4635 153.951 78.7482 156.232 78.7482 156.232C78.7482 156.232 78.8908 161.373 79.3185 162.371C79.6953 163.397 80.0063 164.446 80.2496 165.512C80.2496 165.512 79.0333 166.367 75.0369 166.938C71.0405 167.508 67.7569 167.793 66.4025 168.867C65.0481 169.941 62.0452 174.004 61.6888 174.213C61.3324 174.423 61.0472 173.63 60.7577 173.059C60.4681 172.489 60.5438 170.769 61.2032 168.199C61.8626 165.628 62.1834 158.17 61.2878 153.452C60.321 148.337 59.7819 147.597 60.3522 144.242C60.9225 140.888 68.8485 135.777 69.9891 135.559C71.1296 135.341 75.1127 137.421 75.1127 137.421Z" fill="white" stroke="#263238" stroke-linecap="round" stroke-linejoin="round"/>
<path d="M62.4773 169.905C62.4773 169.905 64.6559 167.374 65.7029 166.938C66.7499 166.501 74.0789 166.492 74.0789 166.492" stroke="white" stroke-linecap="round" stroke-linejoin="round"/>
<path d="M64.064 166.679C64.7458 166.284 65.4789 165.984 66.2426 165.788C67.4052 165.698 68.573 165.698 69.7356 165.788" stroke="white" stroke-linecap="round" stroke-linejoin="round"/>
<path d="M67.8997 157.956C70.2758 157.027 72.442 155.632 74.2708 153.853" stroke="#263238" stroke-linecap="round" stroke-linejoin="round"/>
<path d="M75.2285 119.493C75.2285 119.493 76.1909 121.551 76.5117 122.193C76.8325 122.835 76.7032 123.926 76.9572 124.826C77.2112 125.726 78.6903 126.305 78.6903 126.818C78.5881 127.361 78.3921 127.883 78.1111 128.359C78.1111 128.359 77.7903 132.342 77.278 132.792C76.7656 133.242 74.6449 133.371 74.6449 133.371L74.4667 137.185L75.6785 137.898C75.6785 137.898 75.8924 142.108 75.6785 143.61C75.4647 145.111 74.7875 145.423 72.894 144.291C70.7777 143.03 68.0421 139.68 67.757 138.967C67.4718 138.254 68.3495 135.746 67.0619 131.638C65.7744 127.53 68.6079 123.801 70.4703 122.064C72.3326 120.326 73.237 119.154 75.2285 119.493Z" fill="white" stroke="#263238" stroke-linecap="round" stroke-linejoin="round"/>
<path d="M75.2292 119.493C75.1624 118.339 75.0331 117.889 72.6585 117.631C70.2838 117.372 65.2047 117.185 63.2132 120.714C61.2217 124.242 61.2217 131.959 61.2217 131.959C61.2217 131.959 56.0535 135.185 55.6971 137.751C55.3407 140.317 57.0337 142.745 59.7648 143.605L59.9252 143.645C60.1652 142.45 60.6724 141.324 61.4088 140.353C62.9503 138.504 64.2869 138.709 66.2428 138.192C68.1987 137.675 69.4417 137.546 69.7313 135.314C69.9744 133.432 69.9863 131.527 69.767 129.642C69.7046 128.871 70.5377 127.713 70.5377 127.713C70.5377 127.713 72.5293 128.225 73.8124 124.759C75.0955 121.293 75.2916 120.651 75.2292 119.493Z" fill="#263238" stroke="#263238" stroke-linecap="round" stroke-linejoin="round"/>
<path d="M71.3859 128.68C71.3859 128.68 70.7399 125.726 69.0691 126.898C67.3984 128.07 69.9067 131.331 70.2899 131.393C70.6549 131.377 71.0094 131.266 71.3191 131.073" fill="white"/>
<path d="M71.3859 128.68C71.3859 128.68 70.7399 125.726 69.0691 126.898C67.3984 128.07 69.9067 131.331 70.2899 131.393C70.6549 131.377 71.0094 131.266 71.3191 131.073" stroke="#263238" stroke-linecap="round" stroke-linejoin="round"/>
<path d="M74.6473 133.371L72.6558 133.113L74.5314 133.442L74.6473 133.371Z" fill="#263238" stroke="#263238" stroke-linecap="round" stroke-linejoin="round"/>
<path d="M76.7598 125.561C76.8444 126.007 76.7598 126.381 76.5638 126.417C76.3677 126.452 76.1494 126.132 76.0692 125.695C75.989 125.258 76.0692 124.88 76.2608 124.84C76.4524 124.799 76.6751 125.129 76.7598 125.561Z" fill="#263238"/>
<path d="M66.5323 146.015L65.864 145.182" stroke="#263238" stroke-linecap="round" stroke-linejoin="round"/>
<path d="M64.1417 138.103C64.1417 138.103 61.6512 138.018 59.7621 140.678C57.8731 143.338 58.5592 146.688 59.076 148.065C59.5928 149.442 63.714 157.51 64.3154 158.54C64.9169 159.569 67.0599 161.03 67.5767 161.213C68.0935 161.395 69.8044 151.937 69.6395 151.077C69.4747 150.217 65.5139 144.207 65.5139 144.207" fill="white"/>
<path d="M64.1417 138.103C64.1417 138.103 61.6512 138.018 59.7621 140.678C57.8731 143.338 58.5592 146.688 59.076 148.065C59.5928 149.442 63.714 157.51 64.3154 158.54C64.9169 159.569 67.0599 161.03 67.5767 161.213C68.0935 161.395 69.8044 151.937 69.6395 151.077C69.4747 150.217 65.5139 144.207 65.5139 144.207" stroke="#263238" stroke-linecap="round" stroke-linejoin="round"/>
<path d="M65.8639 160.754C65.125 160.663 64.3801 160.632 63.6362 160.66C63.0036 160.745 63.1506 160.852 63.4892 161.195C63.8278 161.538 64.5674 161.391 64.5674 161.391L65.8639 160.754Z" stroke="#263238" stroke-linecap="round" stroke-linejoin="round"/>
<path d="M83.953 155.719C84.6303 156.347 86.1317 160.464 83.2268 161.043C80.322 161.622 72.6722 160.852 72.3782 161.141C72.0841 161.431 69.6693 163.32 69.1347 163.708C68.5795 164.042 67.9913 164.318 67.3793 164.532C67.3793 164.532 66.2655 165.401 65.9759 165.209C65.6863 165.017 66.2655 164.532 66.2655 164.532C65.7763 164.829 65.2565 165.072 64.715 165.258C64.3274 165.307 64.3764 164.723 64.3764 164.723C64.1982 164.815 63.9958 164.85 63.7972 164.821C63.7583 164.679 63.7555 164.529 63.7889 164.385C63.8224 164.241 63.8911 164.108 63.9888 163.997C64.3274 163.61 65.9759 162.015 65.9759 162.015C65.5874 162.132 65.2137 162.293 64.862 162.496C64.764 162.643 64.1848 163.03 63.8462 163.32C63.5076 163.61 63.2136 163.561 63.12 163.32C63.0265 163.079 63.5656 162.26 64.1046 161.703C64.6437 161.146 67.5531 160.027 68.1144 160.027C68.6758 160.027 73.4252 158.535 73.4252 158.535C73.4252 158.535 82.1531 155.523 82.3937 155.416" fill="white"/>
<path d="M83.953 155.719C84.6303 156.347 86.1317 160.464 83.2268 161.043C80.322 161.622 72.6722 160.852 72.3782 161.141C72.0841 161.431 69.6693 163.32 69.1347 163.708C68.5795 164.042 67.9913 164.318 67.3793 164.532C67.3793 164.532 66.2655 165.401 65.9759 165.209C65.6863 165.017 66.2655 164.532 66.2655 164.532C65.7763 164.829 65.2565 165.072 64.715 165.258C64.3274 165.307 64.3764 164.723 64.3764 164.723C64.1982 164.815 63.9958 164.85 63.7972 164.821C63.7583 164.679 63.7555 164.529 63.7889 164.385C63.8224 164.241 63.8911 164.108 63.9888 163.997C64.3274 163.61 65.9759 162.015 65.9759 162.015C65.5874 162.132 65.2137 162.293 64.862 162.496C64.764 162.643 64.1848 163.03 63.8462 163.32C63.5076 163.61 63.2136 163.561 63.12 163.32C63.0265 163.079 63.5656 162.26 64.1046 161.703C64.6437 161.146 67.5531 160.027 68.1144 160.027C68.6758 160.027 73.4252 158.535 73.4252 158.535C73.4252 158.535 82.1531 155.523 82.3937 155.416" stroke="#263238" stroke-linecap="round" stroke-linejoin="round"/>
<path d="M76.4146 157.523C76.4146 157.523 77.4438 159.034 76.1428 161.025" stroke="#263238" stroke-linecap="round" stroke-linejoin="round"/>
<path d="M64.3882 164.724L66.206 163.204L67.1861 162.42" stroke="#263238" stroke-linecap="round" stroke-linejoin="round"/>
<path d="M66.2764 164.532C66.2764 164.532 67.7243 163.347 67.8714 163.298" stroke="#263238" stroke-linecap="round" stroke-linejoin="round"/>
<path d="M64.3152 154.677C64.3954 156.437 63.8697 158.981 66.4493 160.607C67.6879 161.387 69.5279 162.126 70.4591 160.086C71.3902 158.045 72.0585 139.76 72.0585 139.76L73.1412 139.466C74.2238 139.168 74.8253 137.381 74.8253 137.381C74.6927 137.533 74.6197 137.728 74.6197 137.929C74.6197 138.131 74.6927 138.326 74.8253 138.477C75.3198 138.972 77.2935 136.9 77.3915 136.308C77.4896 135.715 76.1084 133.844 76.1084 133.844C76.2919 133.736 76.4378 133.574 76.5262 133.38C76.6147 133.187 76.6415 132.971 76.6029 132.761C76.5049 131.973 73.7738 132.761 73.7738 132.761L72.1655 134.846C72.1655 134.846 69.8086 137.867 69.6036 138.673C69.4433 139.328 67.1889 146.439 65.8924 149.593" fill="white"/>
<path d="M64.3152 154.677C64.3954 156.437 63.8697 158.981 66.4493 160.607C67.6879 161.387 69.5279 162.126 70.4591 160.086C71.3902 158.045 72.0585 139.76 72.0585 139.76L73.1412 139.466C74.2238 139.168 74.8253 137.381 74.8253 137.381C74.6927 137.533 74.6197 137.728 74.6197 137.929C74.6197 138.131 74.6927 138.326 74.8253 138.477C75.3198 138.972 77.2935 136.9 77.3915 136.308C77.4896 135.715 76.1084 133.844 76.1084 133.844C76.2919 133.736 76.4378 133.574 76.5262 133.38C76.6147 133.187 76.6415 132.971 76.6029 132.761C76.5049 131.973 73.7738 132.761 73.7738 132.761L72.1655 134.846C72.1655 134.846 69.8086 137.867 69.6036 138.673C69.4433 139.328 67.1889 146.439 65.8924 149.593" stroke="#263238" stroke-linecap="round" stroke-linejoin="round"/>
<path d="M67.9673 143.993L71.5404 145.369" stroke="#263238" stroke-linecap="round" stroke-linejoin="round"/>
</svg>
